Exo2-ExtraBold.ufo
<glyph name="exclam" format="2">
  <advance width="315.74285714285713"/>
  <unicode hex="0021"/>
  <outline>
    <contour>
      <point x="247.56190476190477" y="695.0" type="line"/>
      <point x="67.45714285714286" y="695.0" type="line"/>
      <point x="67.45714285714286" y="444.7047619047619" type="line"/>
      <point x="86.41904761904762" y="223.40952380952382" type="line"/>
      <point x="228.6" y="223.40952380952382" type="line"/>
      <point x="247.56190476190477" y="444.7047619047619" type="line"/>
    </contour>
    <contour>
      <point x="178.6095238095238" y="169.8095238095238" type="curve" smooth="yes"/>
      <point x="137.40952380952382" y="169.8095238095238" type="line" smooth="yes"/>
      <point x="89.5904761904762" y="169.8095238095238"/>
      <point x="74.52380952380952" y="154.74285714285713"/>
      <point x="74.52380952380952" y="106.92380952380952" type="curve" smooth="yes"/>
      <point x="74.52380952380952" y="62.885714285714286" type="line" smooth="yes"/>
      <point x="74.52380952380952" y="15.066666666666666"/>
      <point x="89.5904761904762" y="0.0"/>
      <point x="137.40952380952382" y="0.0" type="curve" smooth="yes"/>
      <point x="178.6095238095238" y="0.0" type="line" smooth="yes"/>
      <point x="226.42857142857144" y="0.0"/>
      <point x="241.4952380952381" y="15.066666666666666"/>
      <point x="241.4952380952381" y="62.885714285714286" type="curve" smooth="yes"/>
      <point x="241.4952380952381" y="106.92380952380952" type="line" smooth="yes"/>
      <point x="241.4952380952381" y="154.74285714285713"/>
      <point x="226.42857142857144" y="169.8095238095238"/>
    </contour>
  </outline>
</glyph>
<glyph name="quotedbl" format="2">
  <advance width="384.7142857142857"/>
  <unicode hex="0022"/>
  <outline>
    <contour>
      <point x="341.9809523809524" y="690.0" type="line"/>
      <point x="214.0" y="690.0" type="line"/>
      <point x="224.61904761904762" y="465.03809523809525" type="line"/>
      <point x="331.3619047619048" y="465.03809523809525" type="line"/>
    </contour>
    <contour>
      <point x="170.9904761904762" y="690.0" type="line"/>
      <point x="43.00952380952381" y="690.0" type="line"/>
      <point x="53.352380952380955" y="465.03809523809525" type="line"/>
      <point x="160.37142857142857" y="465.03809523809525" type="line"/>
    </contour>
  </outline>
</glyph>
<glyph name="numbersign" format="2">
  <advance width="726.4666666666667"/>
  <unicode hex="0023"/>
  <outline>
    <contour>
      <point x="366.15238095238095" y="690.0" type="line"/>
      <point x="230.76190476190476" y="690.0" type="line"/>
      <point x="110.76190476190476" y="0.0" type="line"/>
      <point x="246.15238095238095" y="0.0" type="line"/>
    </contour>
    <contour>
      <point x="617.152380952381" y="690.0" type="line"/>
      <point x="481.76190476190476" y="690.0" type="line"/>
      <point x="361.76190476190476" y="0.0" type="line"/>
      <point x="497.15238095238095" y="0.0" type="line"/>
    </contour>
    <contour>
      <point x="700.495238095238" y="520.7523809523809" type="line"/>
      <point x="89.38095238095238" y="520.7523809523809" type="line"/>
      <point x="68.41904761904762" y="413.9428571428571" type="line"/>
      <point x="679.5333333333333" y="413.9428571428571" type="line"/>
    </contour>
    <contour>
      <point x="658.495238095238" y="295.7142857142857" type="line"/>
      <point x="47.38095238095238" y="295.7142857142857" type="line"/>
      <point x="26.419047619047618" y="188.9047619047619" type="line"/>
      <point x="637.5333333333333" y="188.9047619047619" type="line"/>
    </contour>
  </outline>
</glyph>
<glyph name="dollar" format="2">
  <advance width="586.9904761904762"/>
  <unicode hex="0024"/>
  <outline>
    <contour>
      <point x="301.81904761904764" y="703.447619047619" type="curve" smooth="yes"/>
      <point x="110.24761904761905" y="703.447619047619"/>
      <point x="37.8" y="663.5238095238095"/>
      <point x="37.8" y="505.9714285714286" type="curve" smooth="yes"/>
      <point x="37.8" y="404.4190476190476"/>
      <point x="77.41904761904762" y="345.20952380952383"/>
      <point x="183.4857142857143" y="300.73333333333335" type="curve" smooth="yes"/>
      <point x="316.6952380952381" y="245.7047619047619" type="line" smooth="yes"/>
      <point x="357.83809523809526" y="231.15238095238095"/>
      <point x="371.9809523809524" y="221.04761904761904"/>
      <point x="371.9809523809524" y="188.23809523809524" type="curve" smooth="yes"/>
      <point x="371.9809523809524" y="153.77142857142857"/>
      <point x="355.1142857142857" y="146.0095238095238"/>
      <point x="290.96190476190475" y="146.0095238095238" type="curve" smooth="yes"/>
      <point x="252.8190476190476" y="146.0095238095238"/>
      <point x="173.77142857142857" y="147.73333333333335"/>
      <point x="55.24761904761905" y="150.73333333333335" type="curve"/>
      <point x="43.80312380952381" y="16.947266666666664" type="line"/>
      <point x="156.10476190476192" y="-10.723809523809523"/>
      <point x="248.13333333333333" y="-13.447619047619048"/>
      <point x="293.0285714285714" y="-13.447619047619048" type="curve" smooth="yes"/>
      <point x="492.25714285714287" y="-13.447619047619048"/>
      <point x="557.3619047619047" y="36.2"/>
      <point x="557.3619047619047" y="192.02857142857144" type="curve" smooth="yes"/>
      <point x="557.3619047619047" y="293.0285714285714"/>
      <point x="520.2952380952381" y="353.96190476190475"/>
      <point x="410.12380952380954" y="398.9904761904762" type="curve" smooth="yes"/>
      <point x="286.9809523809524" y="447.67619047619047" type="line" smooth="yes"/>
      <point x="237.04761904761904" y="465.12380952380954"/>
      <point x="221.45714285714286" y="476.5047619047619"/>
      <point x="221.45714285714286" y="508.76190476190476" type="curve" smooth="yes"/>
      <point x="221.45714285714286" y="546.8857142857142"/>
      <point x="239.53333333333333" y="551.6095238095238"/>
      <point x="298.85714285714283" y="551.6095238095238" type="curve" smooth="yes"/>
      <point x="378.3333333333333" y="551.6095238095238"/>
      <point x="467.6380952380952" y="550.3333333333334"/>
      <point x="525.3619047619047" y="549.0571428571428" type="curve"/>
      <point x="536.7845809523809" y="672.0527333333333" type="line"/>
      <point x="458.9142857142857" y="698.0"/>
      <point x="370.43809523809523" y="703.447619047619"/>
    </contour>
    <contour>
      <point x="334.3619047619048" y="51.19047619047619" type="line"/>
      <point x="199.52380952380952" y="51.19047619047619" type="line"/>
      <point x="183.1809523809524" y="-114.41904761904762" type="line"/>
      <point x="318.2952380952381" y="-114.41904761904762" type="line"/>
    </contour>
    <contour>
      <point x="423.2857142857143" y="790.9333333333333" type="line"/>
      <point x="287.7238095238095" y="790.9333333333333" type="line"/>
      <point x="265.3142857142857" y="605.5714285714286" type="line"/>
      <point x="400.42857142857144" y="605.5714285714286" type="line"/>
    </contour>
  </outline>
</glyph>
<glyph name="percent" format="2">
  <advance width="914.6476190476191"/>
  <unicode hex="0025"/>
  <outline>
    <contour>
      <point x="203.82857142857142" y="703.7238095238096" type="curve" smooth="yes"/>
      <point x="73.14285714285714" y="703.7238095238096"/>
      <point x="27.523809523809526" y="654.2380952380952"/>
      <point x="27.523809523809526" y="498.0" type="curve" smooth="yes"/>
      <point x="27.523809523809526" y="342.03809523809525"/>
      <point x="73.14285714285714" y="292.2761904761905"/>
      <point x="203.82857142857142" y="292.2761904761905" type="curve" smooth="yes"/>
      <point x="336.23809523809524" y="292.2761904761905"/>
      <point x="381.85714285714283" y="342.03809523809525"/>
      <point x="381.85714285714283" y="498.0" type="curve" smooth="yes"/>
      <point x="381.85714285714283" y="654.2380952380952"/>
      <point x="336.23809523809524" y="703.7238095238096"/>
    </contour>
    <contour>
      <point x="203.55238095238096" y="606.6" type="curve" smooth="yes"/>
      <point x="239.6" y="606.6"/>
      <point x="248.46666666666667" y="593.5904761904762"/>
      <point x="248.46666666666667" y="498.0" type="curve" smooth="yes"/>
      <point x="248.46666666666667" y="401.4095238095238"/>
      <point x="239.6" y="389.4"/>
      <point x="203.55238095238096" y="389.4" type="curve" smooth="yes"/>
      <point x="168.78095238095239" y="389.4"/>
      <point x="160.63809523809525" y="401.4095238095238"/>
      <point x="160.63809523809525" y="498.0" type="curve" smooth="yes"/>
      <point x="160.63809523809525" y="593.5904761904762"/>
      <point x="168.78095238095239" y="606.6"/>
    </contour>
    <contour>
      <point x="709.9619047619047" y="690.0" type="line"/>
      <point x="598.3238095238095" y="690.0" type="line"/>
      <point x="203.13333333333333" y="0.0" type="line"/>
      <point x="314.7714285714286" y="0.0" type="line"/>
    </contour>
    <contour>
      <point x="709.8190476190476" y="398.55238095238093" type="curve" smooth="yes"/>
      <point x="579.1333333333333" y="398.55238095238093"/>
      <point x="533.5142857142857" y="348.79047619047617"/>
      <point x="533.5142857142857" y="192.82857142857142" type="curve" smooth="yes"/>
      <point x="533.5142857142857" y="36.59047619047619"/>
      <point x="579.1333333333333" y="-12.895238095238096"/>
      <point x="709.8190476190476" y="-12.895238095238096" type="curve" smooth="yes"/>
      <point x="841.952380952381" y="-12.895238095238096"/>
      <point x="887.5714285714286" y="36.59047619047619"/>
      <point x="887.5714285714286" y="192.82857142857142" type="curve" smooth="yes"/>
      <point x="887.5714285714286" y="348.79047619047617"/>
      <point x="841.952380952381" y="398.55238095238093"/>
    </contour>
    <contour>
      <point x="709.5428571428571" y="301.15238095238095" type="curve" smooth="yes"/>
      <point x="745.3142857142857" y="301.15238095238095"/>
      <point x="754.4571428571429" y="289.6952380952381"/>
      <point x="754.4571428571429" y="192.82857142857142" type="curve" smooth="yes"/>
      <point x="754.4571428571429" y="96.68571428571428"/>
      <point x="745.3142857142857" y="84.22857142857143"/>
      <point x="709.5428571428571" y="84.22857142857143" type="curve" smooth="yes"/>
      <point x="674.495238095238" y="84.22857142857143"/>
      <point x="666.3523809523809" y="96.68571428571428"/>
      <point x="666.6285714285714" y="192.82857142857142" type="curve" smooth="yes"/>
      <point x="666.3523809523809" y="289.6952380952381"/>
      <point x="674.495238095238" y="301.15238095238095"/>
    </contour>
  </outline>
</glyph>
<glyph name="ampersand" format="2">
  <advance width="762.9333333333333"/>
  <unicode hex="0026"/>
  <outline>
    <contour>
      <point x="337.48571428571427" y="703.1714285714286" type="curve" smooth="yes"/>
      <point x="139.45714285714286" y="703.1714285714286"/>
      <point x="63.904761904761905" y="681.7238095238096"/>
      <point x="63.904761904761905" y="520.2761904761904" type="curve" smooth="yes"/>
      <point x="63.904761904761905" y="418.8285714285714"/>
      <point x="95.62857142857143" y="368.7238095238095"/>
      <point x="178.9047619047619" y="360.7238095238095" type="curve"/>
      <point x="178.9047619047619" y="355.2761904761905" type="line"/>
      <point x="77.9047619047619" y="346.2761904761905"/>
      <point x="42.457142857142856" y="280.7238095238095"/>
      <point x="42.457142857142856" y="175.72380952380954" type="curve" smooth="yes"/>
      <point x="42.457142857142856" y="36.72380952380952"/>
      <point x="104.07619047619048" y="-13.17142857142857"/>
      <point x="254.86666666666667" y="-13.17142857142857" type="curve" smooth="yes"/>
      <point x="368.6952380952381" y="-13.17142857142857"/>
      <point x="426.0095238095238" y="11.209523809523809"/>
      <point x="482.4952380952381" y="69.66666666666667" type="curve"/>
      <point x="467.7714285714286" y="168.06666666666666" type="line"/>
      <point x="428.62857142857143" y="146.46666666666667"/>
      <point x="364.0761904761905" y="133.04761904761904"/>
      <point x="310.64761904761906" y="132.04761904761904" type="curve" smooth="yes"/>
      <point x="252.04761904761904" y="131.32380952380953"/>
      <point x="240.52380952380952" y="147.63809523809525"/>
      <point x="240.52380952380952" y="213.8190476190476" type="curve" smooth="yes"/>
      <point x="240.52380952380952" y="279.3142857142857"/>
      <point x="254.42857142857144" y="295.45714285714286"/>
      <point x="314.23809523809524" y="295.45714285714286" type="curve" smooth="yes"/>
      <point x="718.0285714285715" y="295.45714285714286" type="line"/>
      <point x="718.0285714285715" y="413.4761904761905" type="line"/>
      <point x="324.5809523809524" y="413.4761904761905" type="line" smooth="yes"/>
      <point x="268.15238095238095" y="413.4761904761905"/>
      <point x="252.9047619047619" y="429.6857142857143"/>
      <point x="252.9047619047619" y="491.247619047619" type="curve" smooth="yes"/>
      <point x="252.9047619047619" y="556.9142857142857"/>
      <point x="269.8095238095238" y="568.7428571428571"/>
      <point x="332.3142857142857" y="568.7428571428571" type="curve" smooth="yes"/>
      <point x="394.1714285714286" y="568.7428571428571"/>
      <point x="442.45714285714286" y="567.0190476190476"/>
      <point x="480.14285714285717" y="565.7428571428571" type="curve"/>
      <point x="501.8285714285714" y="690.0" type="line"/>
      <point x="441.8285714285714" y="702.1714285714286"/>
      <point x="379.48571428571427" y="703.1714285714286"/>
    </contour>
    <contour>
      <point x="621.9142857142857" y="510.48571428571427" type="line"/>
      <point x="468.2190476190476" y="510.48571428571427" type="line"/>
      <point x="451.42857142857144" y="359.1047619047619" type="line"/>
      <point x="451.42857142857144" y="121.3047619047619" type="line" smooth="yes"/>
      <point x="451.42857142857144" y="36.89523809523809"/>
      <point x="505.1142857142857" y="-12.895238095238096"/>
      <point x="597.2476190476191" y="-12.895238095238096" type="curve" smooth="yes"/>
      <point x="632.4857142857143" y="-12.895238095238096"/>
      <point x="700.6857142857143" y="-5.723809523809524"/>
      <point x="737.0285714285715" y="10.066666666666666" type="curve"/>
      <point x="717.0666666666667" y="128.87619047619046" type="line"/>
      <point x="661.8190476190476" y="128.87619047619046" type="line" smooth="yes"/>
      <point x="632.2952380952381" y="128.87619047619046"/>
      <point x="621.9142857142857" y="140.25714285714287"/>
      <point x="621.9142857142857" y="171.5047619047619" type="curve" smooth="yes"/>
    </contour>
  </outline>
</glyph>
<glyph name="quotesingle" format="2">
  <advance width="213.72380952380954"/>
  <unicode hex="0027"/>
  <outline>
    <contour>
      <point x="170.9904761904762" y="690.0" type="line"/>
      <point x="43.00952380952381" y="690.0" type="line"/>
      <point x="53.352380952380955" y="465.03809523809525" type="line"/>
      <point x="160.37142857142857" y="465.03809523809525" type="line"/>
    </contour>
  </outline>
</glyph>
<glyph name="parenleft" format="2">
  <advance width="368.96190476190475"/>
  <unicode hex="0028"/>
  <outline>
    <contour>
      <point x="336.2" y="790.0" type="line"/>
      <point x="125.76190476190476" y="730.9619047619047"/>
      <point x="31.35238095238095" y="580.9619047619047"/>
      <point x="31.35238095238095" y="312.0" type="curve" smooth="yes"/>
      <point x="31.35238095238095" y="45.03809523809524"/>
      <point x="125.76190476190476" y="-104.96190476190476"/>
      <point x="336.2" y="-165.0" type="curve"/>
      <point x="357.16190476190474" y="-87.77142857142857" type="line"/>
      <point x="246.53333333333333" y="-36.523809523809526"/>
      <point x="207.28571428571428" y="107.75238095238095"/>
      <point x="207.28571428571428" y="313.0" type="curve" smooth="yes"/>
      <point x="207.28571428571428" y="522.2476190476191"/>
      <point x="246.53333333333333" y="665.5238095238095"/>
      <point x="357.16190476190474" y="712.7714285714286" type="curve"/>
    </contour>
  </outline>
</glyph>
<glyph name="parenright" format="2">
  <advance width="368.96190476190475"/>
  <unicode hex="0029"/>
  <outline>
    <contour>
      <point x="32.76190476190476" y="790.0" type="curve"/>
      <point x="11.8" y="712.7714285714286" type="line"/>
      <point x="122.42857142857143" y="665.5238095238095"/>
      <point x="161.67619047619047" y="522.2476190476191"/>
      <point x="161.67619047619047" y="313.0" type="curve" smooth="yes"/>
      <point x="161.67619047619047" y="107.75238095238095"/>
      <point x="122.42857142857143" y="-36.523809523809526"/>
      <point x="11.8" y="-87.77142857142857" type="curve"/>
      <point x="32.76190476190476" y="-165.0" type="line"/>
      <point x="243.2" y="-104.96190476190476"/>
      <point x="337.6095238095238" y="45.03809523809524"/>
      <point x="337.6095238095238" y="312.0" type="curve" smooth="yes"/>
      <point x="337.6095238095238" y="580.9619047619047"/>
      <point x="243.2" y="730.9619047619047"/>
    </contour>
  </outline>
</glyph>
<glyph name="asterisk" format="2">
  <advance width="454.06666666666666"/>
  <unicode hex="002A"/>
  <outline>
    <contour>
      <point x="276.26666666666665" y="691.7238095238096" type="line"/>
      <point x="177.8" y="691.7238095238096" type="line"/>
      <point x="193.31428571428572" y="519.3142857142857" type="line"/>
      <point x="81.62857142857143" y="391.3142857142857" type="line"/>
      <point x="160.85714285714286" y="333.32380952380953" type="line"/>
      <point x="226.89523809523808" y="453.15238095238095" type="line"/>
      <point x="293.93333333333334" y="333.04761904761904" type="line"/>
      <point x="372.16190476190474" y="391.03809523809525" type="line"/>
      <point x="261.9238095238095" y="520.0380952380953" type="line"/>
    </contour>
    <contour>
      <point x="59.76190476190476" y="617.3047619047619" type="line"/>
      <point x="29.62857142857143" y="524.2857142857143" type="line"/>
      <point x="152.1809523809524" y="498.0761904761905" type="line"/>
      <point x="173.86666666666667" y="524.4857142857143" type="line"/>
      <point x="174.14285714285714" y="567.4095238095238" type="line"/>
    </contour>
    <contour>
      <point x="394.3047619047619" y="618.0285714285715" type="line"/>
      <point x="279.9238095238095" y="567.4095238095238" type="line"/>
      <point x="281.37142857142857" y="524.4857142857143" type="line"/>
      <point x="303.3333333333333" y="498.0761904761905" type="line"/>
      <point x="424.43809523809523" y="524.0095238095238" type="line"/>
    </contour>
  </outline>
</glyph>
<glyph name="plus" format="2">
  <advance width="530.4571428571429"/>
  <unicode hex="002B"/>
  <outline>
    <contour>
      <point x="497.0" y="369.4" type="line"/>
      <point x="33.18095238095238" y="369.4" type="line"/>
      <point x="33.18095238095238" y="235.3904761904762" type="line"/>
      <point x="497.0" y="235.3904761904762" type="line"/>
    </contour>
    <contour>
      <point x="331.64761904761906" y="531.5428571428571" type="line"/>
      <point x="198.25714285714287" y="531.5428571428571" type="line"/>
      <point x="198.53333333333333" y="73.24761904761905" type="line"/>
      <point x="331.64761904761906" y="73.24761904761905" type="line"/>
    </contour>
  </outline>
</glyph>
<glyph name="comma" format="2">
  <advance width="249.47619047619048"/>
  <unicode hex="002C"/>
  <outline>
    <contour>
      <point x="143.40952380952382" y="169.8095238095238" type="curve" smooth="yes"/>
      <point x="105.17142857142858" y="169.8095238095238" type="line" smooth="yes"/>
      <point x="59.076190476190476" y="169.8095238095238"/>
      <point x="43.733333333333334" y="154.74285714285713"/>
      <point x="42.457142857142856" y="106.92380952380952" type="curve" smooth="yes"/>
      <point x="40.285714285714285" y="55.714285714285715" type="line" smooth="yes"/>
      <point x="41.00952380952381" y="20.238095238095237"/>
      <point x="57.8" y="0.0"/>
      <point x="92.72380952380952" y="0.0" type="curve"/>
      <point x="92.0" y="-45.82857142857143"/>
      <point x="88.72380952380952" y="-89.23809523809524"/>
      <point x="75.65714285714286" y="-133.13333333333333" type="curve"/>
      <point x="146.2" y="-155.0952380952381" type="line"/>
      <point x="183.5047619047619" y="-100.13333333333333"/>
      <point x="205.74285714285713" y="-48.13333333333333"/>
      <point x="206.01904761904763" y="42.923809523809524" type="curve" smooth="yes"/>
      <point x="205.74285714285713" y="106.92380952380952" type="line" smooth="yes"/>
      <point x="205.2952380952381" y="154.74285714285713"/>
      <point x="189.78095238095239" y="169.8095238095238"/>
    </contour>
  </outline>
</glyph>
<glyph name="hyphen" format="2">
  <advance width="394.74285714285713"/>
  <unicode hex="002D"/>
  <outline>
    <contour>
      <point x="344.3904761904762" y="311.37142857142857" type="line"/>
      <point x="50.352380952380955" y="311.37142857142857" type="line"/>
      <point x="50.352380952380955" y="200.6952380952381" type="line"/>
      <point x="344.3904761904762" y="200.6952380952381" type="line"/>
    </contour>
  </outline>
</glyph>
<glyph name="period" format="2">
  <advance width="252.92380952380952"/>
  <unicode hex="002E"/>
  <outline>
    <contour>
      <point x="148.3047619047619" y="169.8095238095238" type="curve" smooth="yes"/>
      <point x="104.61904761904762" y="169.8095238095238" type="line" smooth="yes"/>
      <point x="56.8" y="169.8095238095238"/>
      <point x="41.733333333333334" y="154.74285714285713"/>
      <point x="41.733333333333334" y="106.92380952380952" type="curve" smooth="yes"/>
      <point x="41.733333333333334" y="62.885714285714286" type="line" smooth="yes"/>
      <point x="41.733333333333334" y="15.066666666666666"/>
      <point x="56.8" y="0.0"/>
      <point x="104.61904761904762" y="0.0" type="curve" smooth="yes"/>
      <point x="148.3047619047619" y="0.0" type="line" smooth="yes"/>
      <point x="196.1238095238095" y="0.0"/>
      <point x="211.1904761904762" y="15.066666666666666"/>
      <point x="211.1904761904762" y="62.885714285714286" type="curve" smooth="yes"/>
      <point x="211.1904761904762" y="106.92380952380952" type="line" smooth="yes"/>
      <point x="211.1904761904762" y="154.74285714285713"/>
      <point x="196.1238095238095" y="169.8095238095238"/>
    </contour>
  </outline>
</glyph>
<glyph name="slash" format="2">
  <advance width="570.8761904761905"/>
  <unicode hex="002F"/>
  <outline>
    <contour>
      <point x="553.6666666666666" y="690.0" type="line"/>
      <point x="410.20952380952383" y="690.0" type="line"/>
      <point x="17.20952380952381" y="-75.96190476190476" type="line"/>
      <point x="160.66666666666666" y="-75.96190476190476" type="line"/>
    </contour>
  </outline>
</glyph>
<glyph name="zero" format="2">
  <advance width="644.7428571428571"/>
  <unicode hex="0030"/>
  <outline>
    <contour>
      <point x="321.64761904761906" y="703.7238095238096" type="curve" smooth="yes"/>
      <point x="112.5904761904762" y="703.7238095238096"/>
      <point x="40.904761904761905" y="614.0285714285715"/>
      <point x="40.904761904761905" y="345.0" type="curve" smooth="yes"/>
      <point x="40.904761904761905" y="75.97142857142858"/>
      <point x="112.5904761904762" y="-13.723809523809523"/>
      <point x="321.64761904761906" y="-13.723809523809523" type="curve" smooth="yes"/>
      <point x="531.4285714285714" y="-13.723809523809523"/>
      <point x="603.8380952380952" y="75.97142857142858"/>
      <point x="603.8380952380952" y="345.0" type="curve" smooth="yes"/>
      <point x="603.8380952380952" y="614.0285714285715"/>
      <point x="531.4285714285714" y="703.7238095238096"/>
    </contour>
    <contour>
      <point x="320.64761904761906" y="560.6761904761905" type="curve" smooth="yes"/>
      <point x="397.6952380952381" y="560.6761904761905"/>
      <point x="418.3904761904762" y="527.6952380952381"/>
      <point x="418.3904761904762" y="345.0" type="curve" smooth="yes"/>
      <point x="418.3904761904762" y="162.3047619047619"/>
      <point x="397.6952380952381" y="129.32380952380953"/>
      <point x="320.64761904761906" y="129.32380952380953" type="curve" smooth="yes"/>
      <point x="246.32380952380953" y="129.32380952380953"/>
      <point x="226.35238095238094" y="162.3047619047619"/>
      <point x="226.35238095238094" y="345.0" type="curve" smooth="yes"/>
      <point x="226.35238095238094" y="527.6952380952381"/>
      <point x="246.32380952380953" y="560.6761904761905"/>
    </contour>
  </outline>
</glyph>
<glyph name="one" format="2">
  <advance width="449.42857142857144"/>
  <unicode hex="0031"/>
  <outline>
    <contour>
      <point x="367.76190476190476" y="690.0" type="line"/>
      <point x="180.76190476190476" y="690.0" type="line"/>
      <point x="6.142857142857142" y="622.1714285714286" type="line"/>
      <point x="28.104761904761904" y="502.9809523809524" type="line"/>
      <point x="187.93333333333334" y="538.952380952381" type="line"/>
      <point x="181.76190476190476" y="511.1619047619048"/>
      <point x="180.76190476190476" y="484.37142857142857"/>
      <point x="180.76190476190476" y="456.5809523809524" type="curve" smooth="yes"/>
      <point x="180.76190476190476" y="0.0" type="line"/>
      <point x="367.76190476190476" y="0.0" type="line"/>
    </contour>
  </outline>
</glyph>
<glyph name="two" format="2">
  <advance width="590.0571428571428"/>
  <unicode hex="0032"/>
  <outline>
    <contour>
      <point x="290.64761904761906" y="702.0" type="curve" smooth="yes"/>
      <point x="215.7904761904762" y="702.0"/>
      <point x="145.4857142857143" y="698.7238095238096"/>
      <point x="44.24761904761905" y="679.1714285714286" type="curve"/>
      <point x="50.971428571428575" y="540.0571428571428" type="line"/>
      <point x="145.93333333333334" y="544.8190476190476"/>
      <point x="195.82857142857142" y="545.3714285714286"/>
      <point x="267.34285714285716" y="545.3714285714286" type="curve" smooth="yes"/>
      <point x="320.0761904761905" y="545.3714285714286"/>
      <point x="342.7047619047619" y="541.9904761904762"/>
      <point x="343.25714285714287" y="512.7714285714286" type="curve" smooth="yes"/>
      <point x="343.8095238095238" y="473.76190476190476"/>
      <point x="297.74285714285713" y="412.1047619047619"/>
      <point x="219.98095238095237" y="332.6857142857143" type="curve" smooth="yes"/>
      <point x="64.65714285714286" y="173.45714285714286" type="line" smooth="yes"/>
      <point x="45.14285714285714" y="150.77142857142857"/>
      <point x="38.523809523809526" y="128.0857142857143"/>
      <point x="38.523809523809526" y="97.5047619047619" type="curve" smooth="yes"/>
      <point x="38.523809523809526" y="0.0" type="line"/>
      <point x="552.8095238095239" y="0.0" type="line"/>
      <point x="552.8095238095239" y="161.56190476190477" type="line"/>
      <point x="353.9047619047619" y="161.56190476190477" type="line" smooth="yes"/>
      <point x="320.62857142857143" y="162.28571428571428"/>
      <point x="289.03809523809525" y="160.56190476190477"/>
      <point x="257.20952380952383" y="152.94285714285715" type="curve"/>
      <point x="426.56190476190477" y="320.4761904761905" type="line" smooth="yes"/>
      <point x="518.2857142857143" y="414.6857142857143"/>
      <point x="534.8761904761905" y="459.93333333333334"/>
      <point x="534.8761904761905" y="535.2476190476191" type="curve" smooth="yes"/>
      <point x="534.8761904761905" y="670.2095238095238"/>
      <point x="438.12380952380954" y="702.0"/>
    </contour>
  </outline>
</glyph>
<glyph name="three" format="2">
  <advance width="572.4761904761905"/>
  <unicode hex="0033"/>
  <outline>
    <contour>
      <point x="278.64761904761906" y="703.7238095238096" type="curve" smooth="yes"/>
      <point x="203.23809523809524" y="703.7238095238096"/>
      <point x="125.93333333333334" y="697.7238095238096"/>
      <point x="47.971428571428575" y="685.0" type="curve"/>
      <point x="54.24761904761905" y="555.2952380952381" type="line"/>
      <point x="104.86666666666667" y="556.4"/>
      <point x="174.65714285714284" y="557.2285714285714"/>
      <point x="245.72380952380954" y="557.2285714285714" type="curve" smooth="yes"/>
      <point x="316.3904761904762" y="557.2285714285714"/>
      <point x="335.9809523809524" y="547.504761904762"/>
      <point x="336.25714285714287" y="492.1142857142857" type="curve" smooth="yes"/>
      <point x="336.5333333333333" y="445.03809523809525"/>
      <point x="330.15238095238095" y="416.5809523809524"/>
      <point x="254.76190476190476" y="416.5809523809524" type="curve" smooth="yes"/>
      <point x="123.41904761904762" y="416.5809523809524" type="line"/>
      <point x="123.41904761904762" y="297.0095238095238" type="line"/>
      <point x="254.76190476190476" y="298.45714285714286" type="line" smooth="yes"/>
      <point x="328.8095238095238" y="299.18095238095236"/>
      <point x="344.74285714285713" y="275.55238095238093"/>
      <point x="344.74285714285713" y="217.3047619047619" type="curve" smooth="yes"/>
      <point x="344.74285714285713" y="146.57142857142856"/>
      <point x="319.04761904761904" y="133.77142857142857"/>
      <point x="230.97142857142856" y="133.77142857142857" type="curve" smooth="yes"/>
      <point x="171.14285714285714" y="133.77142857142857"/>
      <point x="127.0" y="135.32380952380953"/>
      <point x="39.8" y="139.87619047619046" type="curve"/>
      <point x="33.8" y="5.0" type="line"/>
      <point x="112.03809523809524" y="-5.723809523809524"/>
      <point x="199.17142857142858" y="-13.723809523809523"/>
      <point x="282.4095238095238" y="-13.723809523809523" type="curve" smooth="yes"/>
      <point x="465.0571428571429" y="-13.723809523809523"/>
      <point x="532.0190476190476" y="45.93333333333334"/>
      <point x="530.0190476190476" y="192.0" type="curve" smooth="yes"/>
      <point x="528.7428571428571" y="296.96190476190475"/>
      <point x="498.84761904761905" y="350.0"/>
      <point x="402.16190476190474" y="365.0" type="curve"/>
      <point x="402.16190476190474" y="369.0" type="line"/>
      <point x="491.0190476190476" y="382.55238095238093"/>
      <point x="512.0190476190476" y="444.03809523809525"/>
      <point x="512.0190476190476" y="543.0" type="curve" smooth="yes"/>
      <point x="512.0190476190476" y="665.7238095238096"/>
      <point x="448.1904761904762" y="703.7238095238096"/>
    </contour>
  </outline>
</glyph>
<glyph name="four" format="2">
  <advance width="648.7809523809524"/>
  <unicode hex="0034"/>
  <outline>
    <contour>
      <point x="369.84761904761905" y="690.0" type="line"/>
      <point x="194.98095238095237" y="690.0" type="line"/>
      <point x="22.733333333333334" y="252.3904761904762" type="line" smooth="yes"/>
      <point x="1.3523809523809511" y="198.28571428571428"/>
      <point x="37.8" y="145.24761904761905"/>
      <point x="96.45714285714286" y="145.24761904761905" type="curve" smooth="yes"/>
      <point x="545.1142857142858" y="145.24761904761905" type="line"/>
      <point x="625.4285714285714" y="162.76190476190476" type="line"/>
      <point x="625.4285714285714" y="269.9904761904762" type="line"/>
      <point x="237.45714285714286" y="269.9904761904762" type="line" smooth="yes"/>
      <point x="220.52380952380952" y="269.9904761904762"/>
      <point x="211.14285714285714" y="280.26666666666665"/>
      <point x="218.8" y="298.5809523809524" type="curve" smooth="yes"/>
    </contour>
    <contour>
      <point x="543.1142857142858" y="554.8285714285714" type="line"/>
      <point x="402.1047619047619" y="554.8285714285714" type="line"/>
      <point x="371.5238095238095" y="447.1714285714286" type="line"/>
      <point x="371.5238095238095" y="0.0" type="line"/>
      <point x="543.1142857142858" y="0.0" type="line"/>
    </contour>
  </outline>
</glyph>
<glyph name="five" format="2">
  <advance width="560.2666666666667"/>
  <unicode hex="0035"/>
  <outline>
    <contour>
      <point x="505.6380952380952" y="690.0" type="line"/>
      <point x="74.35238095238095" y="690.0" type="line"/>
      <point x="56.18095238095238" y="380.247619047619" type="line" smooth="yes"/>
      <point x="54.457142857142856" y="347.73333333333335"/>
      <point x="77.24761904761905" y="321.9428571428571"/>
      <point x="110.20952380952382" y="317.7714285714286" type="curve" smooth="yes"/>
      <point x="217.15238095238095" y="304.8095238095238" type="line" smooth="yes"/>
      <point x="310.18095238095236" y="297.04761904761904"/>
      <point x="344.3619047619048" y="284.3619047619048"/>
      <point x="340.6380952380952" y="218.85714285714286" type="curve" smooth="yes"/>
      <point x="337.1904761904762" y="162.9142857142857"/>
      <point x="317.0857142857143" y="140.56190476190477"/>
      <point x="226.03809523809525" y="140.56190476190477" type="curve" smooth="yes"/>
      <point x="177.14285714285714" y="140.56190476190477"/>
      <point x="113.03809523809524" y="144.3904761904762"/>
      <point x="46.695238095238096" y="149.32380952380953" type="curve"/>
      <point x="30.35238095238095" y="7.6571428571428575" type="line"/>
      <point x="118.20952380952382" y="-4.723809523809524"/>
      <point x="205.89523809523808" y="-12.0"/>
      <point x="274.752380952381" y="-12.0" type="curve" smooth="yes"/>
      <point x="470.9904761904762" y="-12.0"/>
      <point x="526.3619047619047" y="89.03809523809524"/>
      <point x="526.3619047619047" y="213.06666666666666" type="curve" smooth="yes"/>
      <point x="526.6380952380953" y="324.1142857142857"/>
      <point x="484.9047619047619" y="422.5809523809524"/>
      <point x="323.93333333333334" y="441.0285714285714" type="curve" smooth="yes"/>
      <point x="208.9142857142857" y="455.54285714285714" type="line"/>
      <point x="215.74285714285713" y="551.5714285714286" type="line"/>
      <point x="499.4666666666667" y="551.5714285714286" type="line"/>
    </contour>
  </outline>
</glyph>
<glyph name="six" format="2">
  <advance width="598.8857142857142"/>
  <unicode hex="0036"/>
  <outline>
    <contour>
      <point x="343.4095238095238" y="702.0" type="curve" smooth="yes"/>
      <point x="142.59047619047618" y="702.0"/>
      <point x="42.18095238095238" y="653.0"/>
      <point x="42.18095238095238" y="338.44761904761907" type="curve" smooth="yes"/>
      <point x="42.18095238095238" y="57.76190476190476"/>
      <point x="104.17142857142858" y="-12.0"/>
      <point x="309.6857142857143" y="-12.0" type="curve" smooth="yes"/>
      <point x="521.1238095238095" y="-12.0"/>
      <point x="566.9809523809524" y="69.07619047619048"/>
      <point x="566.9809523809524" y="241.3047619047619" type="curve" smooth="yes"/>
      <point x="566.9809523809524" y="393.0"/>
      <point x="521.9809523809524" y="455.44761904761907"/>
      <point x="365.12380952380954" y="455.44761904761907" type="curve" smooth="yes"/>
      <point x="264.0571428571429" y="455.44761904761907"/>
      <point x="216.5047619047619" y="428.44761904761907"/>
      <point x="149.33333333333334" y="326.65714285714284" type="curve"/>
      <point x="153.33333333333334" y="259.35238095238094" type="line"/>
      <point x="232.95238095238096" y="310.9809523809524"/>
      <point x="258.64761904761906" y="327.8095238095238"/>
      <point x="309.79047619047617" y="327.8095238095238" type="curve" smooth="yes"/>
      <point x="376.18095238095236" y="327.8095238095238"/>
      <point x="391.4952380952381" y="311.0761904761905"/>
      <point x="391.4952380952381" y="237.40952380952382" type="curve" smooth="yes"/>
      <point x="391.4952380952381" y="154.9904761904762"/>
      <point x="386.73333333333335" y="123.53333333333333"/>
      <point x="311.4095238095238" y="123.53333333333333" type="curve" smooth="yes"/>
      <point x="226.94285714285715" y="123.53333333333333"/>
      <point x="222.1142857142857" y="152.37142857142857"/>
      <point x="222.1142857142857" y="328.93333333333334" type="curve" smooth="yes"/>
      <point x="222.1142857142857" y="535.0857142857143"/>
      <point x="237.05714285714285" y="566.7428571428571"/>
      <point x="343.4095238095238" y="566.7428571428571" type="curve" smooth="yes"/>
      <point x="423.3333333333333" y="566.7428571428571"/>
      <point x="456.4" y="566.7428571428571"/>
      <point x="512.8095238095239" y="565.9142857142857" type="curve"/>
      <point x="520.8095238095239" y="681.6571428571428" type="line"/>
      <point x="450.2285714285714" y="702.0"/>
      <point x="378.9238095238095" y="702.0"/>
    </contour>
  </outline>
</glyph>
<glyph name="seven" format="2">
  <advance width="535.2666666666667"/>
  <unicode hex="0037"/>
  <outline>
    <contour>
      <point x="449.81904761904764" y="690.0" type="curve" smooth="yes"/>
      <point x="19.8" y="690.0" type="line"/>
      <point x="27.695238095238096" y="538.8190476190476" type="line"/>
      <point x="328.4666666666667" y="538.8190476190476" type="line"/>
      <point x="311.95238095238096" y="515.0285714285715"/>
      <point x="302.5047619047619" y="490.23809523809524"/>
      <point x="294.3333333333333" y="466.1714285714286" type="curve" smooth="yes"/>
      <point x="128.15238095238095" y="0.0" type="line"/>
      <point x="311.5333333333333" y="0.0" type="line"/>
      <point x="519.6380952380953" y="598.1142857142858" type="line" smooth="yes"/>
      <point x="536.9809523809524" y="648.5238095238095"/>
      <point x="503.95238095238096" y="690.0"/>
    </contour>
  </outline>
</glyph>
<glyph name="eight" format="2">
  <advance width="629.8857142857142"/>
  <unicode hex="0038"/>
  <outline>
    <contour>
      <point x="315.3047619047619" y="703.1714285714286" type="curve" smooth="yes"/>
      <point x="107.35238095238095" y="703.1714285714286"/>
      <point x="61.62857142857143" y="647.1714285714286"/>
      <point x="61.62857142857143" y="518.0" type="curve" smooth="yes"/>
      <point x="61.62857142857143" y="443.5809523809524"/>
      <point x="91.8" y="368.0"/>
      <point x="166.86666666666667" y="360.0" type="curve"/>
      <point x="166.86666666666667" y="356.0" type="line"/>
      <point x="68.00952380952381" y="347.0"/>
      <point x="44.18095238095238" y="264.4190476190476"/>
      <point x="44.18095238095238" y="172.0" type="curve" smooth="yes"/>
      <point x="44.18095238095238" y="37.86666666666667"/>
      <point x="99.6952380952381" y="-13.17142857142857"/>
      <point x="315.3047619047619" y="-13.17142857142857" type="curve" smooth="yes"/>
      <point x="533.9142857142857" y="-13.17142857142857"/>
      <point x="586.4285714285714" y="37.86666666666667"/>
      <point x="586.4285714285714" y="172.0" type="curve" smooth="yes"/>
      <point x="586.4285714285714" y="264.4190476190476"/>
      <point x="562.6" y="347.0"/>
      <point x="463.74285714285713" y="356.0" type="curve"/>
      <point x="463.74285714285713" y="360.0" type="line"/>
      <point x="538.8095238095239" y="368.0"/>
      <point x="568.9809523809524" y="443.5809523809524"/>
      <point x="568.9809523809524" y="518.0" type="curve" smooth="yes"/>
      <point x="568.9809523809524" y="647.1714285714286"/>
      <point x="524.9809523809524" y="702.8952380952381"/>
    </contour>
    <contour>
      <point x="317.3047619047619" y="298.0761904761905" type="curve" smooth="yes"/>
      <point x="392.73333333333335" y="298.0761904761905"/>
      <point x="409.4952380952381" y="281.03809523809525"/>
      <point x="409.4952380952381" y="207.85714285714286" type="curve" smooth="yes"/>
      <point x="409.4952380952381" y="139.22857142857143"/>
      <point x="392.73333333333335" y="122.36190476190475"/>
      <point x="316.3047619047619" y="122.36190476190475" type="curve" smooth="yes"/>
      <point x="238.15238095238095" y="122.36190476190475"/>
      <point x="220.1142857142857" y="139.22857142857143"/>
      <point x="220.1142857142857" y="207.85714285714286" type="curve" smooth="yes"/>
      <point x="220.1142857142857" y="280.48571428571427"/>
      <point x="237.42857142857144" y="297.8"/>
    </contour>
    <contour>
      <point x="316.3047619047619" y="577.2571428571429" type="curve" smooth="yes"/>
      <point x="385.45714285714286" y="577.2571428571429"/>
      <point x="400.6666666666667" y="562.3904761904762"/>
      <point x="400.6666666666667" y="493.9714285714286" type="curve" smooth="yes"/>
      <point x="400.6666666666667" y="432.51428571428573"/>
      <point x="387.73333333333335" y="417.9238095238095"/>
      <point x="318.0285714285714" y="417.9238095238095" type="curve" smooth="yes"/>
      <point x="247.42857142857144" y="417.9238095238095"/>
      <point x="229.94285714285715" y="432.23809523809524"/>
      <point x="229.94285714285715" y="493.9714285714286" type="curve" smooth="yes"/>
      <point x="229.94285714285715" y="562.3904761904762"/>
      <point x="246.42857142857144" y="577.2571428571429"/>
    </contour>
  </outline>
</glyph>
<glyph name="nine" format="2">
  <advance width="598.8857142857142"/>
  <unicode hex="0039"/>
  <outline>
    <contour>
      <point x="291.0285714285714" y="702.0" type="curve" smooth="yes"/>
      <point x="90.00952380952381" y="702.0"/>
      <point x="33.352380952380955" y="626.447619047619"/>
      <point x="33.62857142857143" y="448.6952380952381" type="curve" smooth="yes"/>
      <point x="33.62857142857143" y="322.5238095238095"/>
      <point x="78.35238095238095" y="234.55238095238096"/>
      <point x="232.2095238095238" y="234.55238095238096" type="curve" smooth="yes"/>
      <point x="333.2761904761905" y="234.55238095238096"/>
      <point x="380.1047619047619" y="261.55238095238093"/>
      <point x="447.2761904761905" y="363.34285714285716" type="curve"/>
      <point x="443.2761904761905" y="430.37142857142857" type="line"/>
      <point x="363.65714285714284" y="379.74285714285713"/>
      <point x="338.96190476190475" y="361.9142857142857"/>
      <point x="288.54285714285714" y="361.9142857142857" type="curve" smooth="yes"/>
      <point x="224.87619047619046" y="361.9142857142857"/>
      <point x="209.28571428571428" y="382.4095238095238"/>
      <point x="209.56190476190477" y="452.5904761904762" type="curve" smooth="yes"/>
      <point x="209.28571428571428" y="535.2857142857143"/>
      <point x="216.7047619047619" y="566.7428571428571"/>
      <point x="289.3047619047619" y="566.7428571428571" type="curve" smooth="yes"/>
      <point x="371.7714285714286" y="566.7428571428571"/>
      <point x="376.04761904761904" y="536.9047619047619"/>
      <point x="376.04761904761904" y="362.06666666666666" type="curve" smooth="yes"/>
      <point x="376.04761904761904" y="173.9142857142857"/>
      <point x="363.48571428571427" y="123.53333333333333"/>
      <point x="254.2" y="123.53333333333333" type="curve" smooth="yes"/>
      <point x="164.55238095238096" y="123.53333333333333"/>
      <point x="132.03809523809525" y="123.53333333333333"/>
      <point x="71.18095238095238" y="125.08571428571429" type="curve"/>
      <point x="62.457142857142856" y="8.342857142857142" type="line"/>
      <point x="141.93333333333334" y="-12.0"/>
      <point x="215.68571428571428" y="-12.0"/>
      <point x="254.47619047619048" y="-12.0" type="curve" smooth="yes"/>
      <point x="473.6380952380952" y="-12.0"/>
      <point x="555.152380952381" y="39.76190476190476"/>
      <point x="555.4285714285714" y="351.55238095238093" type="curve" smooth="yes"/>
      <point x="555.4285714285714" y="630.8571428571429"/>
      <point x="509.2285714285714" y="702.0"/>
    </contour>
  </outline>
</glyph>
<glyph name="less" format="2">
  <advance width="510.8"/>
  <unicode hex="003C"/>
  <outline>
    <contour>
      <point x="460.7238095238095" y="532.9904761904762" type="line"/>
      <point x="32.352380952380955" y="372.12380952380954" type="line"/>
      <point x="32.352380952380955" y="232.3904761904762" type="line"/>
      <point x="460.7238095238095" y="71.35238095238095" type="line"/>
      <point x="460.7238095238095" y="212.8095238095238" type="line"/>
      <point x="185.15238095238095" y="301.8952380952381" type="line"/>
      <point x="460.7238095238095" y="391.5333333333333" type="line"/>
    </contour>
  </outline>
</glyph>
<glyph name="equal" format="2">
  <advance width="574.5904761904762"/>
  <unicode hex="003D"/>
  <outline>
    <contour>
      <point x="522.9619047619047" y="470.84761904761905" type="line"/>
      <point x="51.62857142857143" y="470.84761904761905" type="line"/>
      <point x="51.62857142857143" y="343.35238095238094" type="line"/>
      <point x="522.9619047619047" y="343.35238095238094" type="line"/>
    </contour>
    <contour>
      <point x="522.9619047619047" y="256.2285714285714" type="line"/>
      <point x="51.62857142857143" y="256.2285714285714" type="line"/>
      <point x="51.62857142857143" y="128.73333333333335" type="line"/>
      <point x="522.9619047619047" y="128.73333333333335" type="line"/>
    </contour>
  </outline>
</glyph>
<glyph name="greater" format="2">
  <advance width="508.62857142857143"/>
  <unicode hex="003E"/>
  <outline>
    <contour>
      <point x="50.076190476190476" y="532.9904761904762" type="line"/>
      <point x="50.076190476190476" y="391.5333333333333" type="line"/>
      <point x="323.4761904761905" y="301.8952380952381" type="line"/>
      <point x="50.076190476190476" y="212.8095238095238" type="line"/>
      <point x="50.076190476190476" y="71.35238095238095" type="line"/>
      <point x="476.2761904761905" y="232.3904761904762" type="line"/>
      <point x="476.2761904761905" y="372.12380952380954" type="line"/>
    </contour>
  </outline>
</glyph>
<glyph name="question" format="2">
  <advance width="527.1619047619048"/>
  <unicode hex="003F"/>
  <outline>
    <contour>
      <point x="280.81904761904764" y="712.0" type="curve" smooth="yes"/>
      <point x="144.34285714285716" y="712.0"/>
      <point x="107.0" y="700.552380952381"/>
      <point x="27.314285714285717" y="685.6571428571428" type="curve"/>
      <point x="32.31428571428572" y="564.504761904762" type="line"/>
      <point x="101.48571428571428" y="565.8857142857142"/>
      <point x="134.65714285714284" y="566.7142857142857"/>
      <point x="236.55238095238096" y="566.7142857142857" type="curve" smooth="yes"/>
      <point x="292.7714285714286" y="566.7142857142857"/>
      <point x="314.0190476190476" y="553.4666666666667"/>
      <point x="308.84761904761905" y="519.6285714285714" type="curve" smooth="yes"/>
      <point x="300.5047619047619" y="458.26666666666665"/>
      <point x="168.1142857142857" y="393.55238095238093"/>
      <point x="176.73333333333335" y="223.40952380952382" type="curve"/>
      <point x="320.57142857142856" y="223.40952380952382" type="line"/>
      <point x="337.25714285714287" y="389.34285714285716"/>
      <point x="501.74285714285713" y="410.8952380952381"/>
      <point x="501.74285714285713" y="557.0" type="curve" smooth="yes"/>
      <point x="501.74285714285713" y="663.0"/>
      <point x="430.12380952380954" y="712.0"/>
    </contour>
    <contour>
      <point x="269.0285714285714" y="169.8095238095238" type="curve" smooth="yes"/>
      <point x="227.55238095238096" y="169.8095238095238" type="line" smooth="yes"/>
      <point x="179.73333333333335" y="169.8095238095238"/>
      <point x="164.66666666666666" y="154.74285714285713"/>
      <point x="164.66666666666666" y="106.92380952380952" type="curve" smooth="yes"/>
      <point x="164.66666666666666" y="62.885714285714286" type="line" smooth="yes"/>
      <point x="164.66666666666666" y="15.066666666666666"/>
      <point x="179.73333333333335" y="0.0"/>
      <point x="227.55238095238096" y="0.0" type="curve" smooth="yes"/>
      <point x="269.0285714285714" y="0.0" type="line" smooth="yes"/>
      <point x="316.84761904761905" y="0.0"/>
      <point x="331.9142857142857" y="15.066666666666666"/>
      <point x="331.9142857142857" y="62.885714285714286" type="curve" smooth="yes"/>
      <point x="331.9142857142857" y="106.92380952380952" type="line" smooth="yes"/>
      <point x="331.9142857142857" y="154.74285714285713"/>
      <point x="316.84761904761905" y="169.8095238095238"/>
    </contour>
  </outline>
</glyph>
<glyph name="at" format="2">
  <advance width="780.5619047619048"/>
  <unicode hex="0040"/>
  <outline>
    <contour>
      <point x="544.7047619047619" y="609.8190476190476" type="curve" smooth="yes"/>
      <point x="387.4" y="609.8190476190476" type="line" smooth="yes"/>
      <point x="81.07619047619048" y="609.5428571428571"/>
      <point x="47.00952380952381" y="566.2"/>
      <point x="47.00952380952381" y="269.1714285714286" type="curve" smooth="yes"/>
      <point x="47.00952380952381" y="-31.238095238095237"/>
      <point x="85.8" y="-74.85714285714286"/>
      <point x="435.5333333333333" y="-74.3047619047619" type="curve" smooth="yes"/>
      <point x="534.3904761904762" y="-74.3047619047619"/>
      <point x="633.9714285714285" y="-67.4095238095238"/>
      <point x="731.8285714285714" y="-59.23809523809524" type="curve"/>
      <point x="731.8285714285714" y="55.50476190476191" type="line"/>
      <point x="435.25714285714287" y="55.50476190476191" type="line" smooth="yes"/>
      <point x="236.7047619047619" y="55.50476190476191"/>
      <point x="213.42857142857144" y="49.37142857142857"/>
      <point x="213.42857142857144" y="269.1714285714286" type="curve" smooth="yes"/>
      <point x="213.42857142857144" y="478.5238095238095"/>
      <point x="232.53333333333333" y="481.0095238095238"/>
      <point x="387.4" y="481.73333333333335" type="curve" smooth="yes"/>
      <point x="507.0571428571429" y="481.73333333333335" type="line" smooth="yes"/>
      <point x="550.8571428571429" y="481.73333333333335"/>
      <point x="564.5142857142857" y="468.73333333333335"/>
      <point x="564.5142857142857" y="430.93333333333334" type="curve" smooth="yes"/>
      <point x="564.5142857142857" y="412.4095238095238" type="line"/>
      <point x="408.87619047619046" y="412.4095238095238" type="line" smooth="yes"/>
      <point x="321.74285714285713" y="412.4095238095238"/>
      <point x="270.7142857142857" y="368.79047619047617"/>
      <point x="270.7142857142857" y="298.0" type="curve" smooth="yes"/>
      <point x="270.7142857142857" y="251.61904761904762" type="line" smooth="yes"/>
      <point x="270.7142857142857" y="167.89523809523808"/>
      <point x="338.2952380952381" y="124.72380952380952"/>
      <point x="419.6380952380952" y="124.72380952380952" type="curve" smooth="yes"/>
      <point x="497.0190476190476" y="124.72380952380952"/>
      <point x="553.0952380952381" y="164.65714285714284"/>
      <point x="584.2" y="202.38095238095238" type="curve"/>
      <point x="598.5428571428571" y="136.61904761904762" type="line"/>
      <point x="731.6571428571428" y="136.61904761904762" type="line"/>
      <point x="731.6571428571428" y="431.3142857142857" type="line" smooth="yes"/>
      <point x="731.6571428571428" y="564.7523809523809"/>
      <point x="665.2476190476191" y="609.8190476190476"/>
    </contour>
    <contour>
      <point x="564.5142857142857" y="331.48571428571427" type="line"/>
      <point x="564.5142857142857" y="273.06666666666666" type="line"/>
      <point x="537.9904761904762" y="252.33333333333334"/>
      <point x="502.2190476190476" y="241.57142857142856"/>
      <point x="474.20952380952383" y="241.57142857142856" type="curve" smooth="yes"/>
      <point x="447.1714285714286" y="241.57142857142856"/>
      <point x="432.23809523809524" y="254.1238095238095"/>
      <point x="432.23809523809524" y="278.1333333333333" type="curve" smooth="yes"/>
      <point x="432.23809523809524" y="292.6857142857143" type="line" smooth="yes"/>
      <point x="432.23809523809524" y="314.20952380952383"/>
      <point x="444.23809523809524" y="324.76190476190476"/>
      <point x="472.03809523809525" y="326.76190476190476" type="curve" smooth="yes"/>
    </contour>
  </outline>
</glyph>
<glyph name="B" format="2">
  <advance width="649.7809523809524"/>
  <unicode hex="0042"/>
  <outline>
    <contour>
      <point x="340.6095238095238" y="698.0" type="curve" smooth="yes"/>
      <point x="215.7904761904762" y="698.0"/>
      <point x="144.31428571428572" y="697.0"/>
      <point x="60.00952380952381" y="690.0" type="curve"/>
      <point x="75.45714285714286" y="562.6380952380953" type="line"/>
      <point x="142.44761904761904" y="568.0857142857143"/>
      <point x="211.89523809523808" y="565.6380952380953"/>
      <point x="331.26666666666665" y="565.6380952380953" type="curve" smooth="yes"/>
      <point x="395.9714285714286" y="565.6380952380953"/>
      <point x="413.7714285714286" y="552.4285714285714"/>
      <point x="413.7714285714286" y="491.6952380952381" type="curve" smooth="yes"/>
      <point x="413.7714285714286" y="429.6857142857143"/>
      <point x="396.8" y="415.2"/>
      <point x="336.0285714285714" y="415.2" type="curve" smooth="yes"/>
      <point x="74.45714285714286" y="415.2" type="line"/>
      <point x="74.45714285714286" y="299.8" type="line"/>
      <point x="337.752380952381" y="299.8" type="line" smooth="yes"/>
      <point x="409.8" y="299.5238095238095"/>
      <point x="428.32380952380953" y="282.20952380952383"/>
      <point x="428.32380952380953" y="209.37142857142857" type="curve" smooth="yes"/>
      <point x="428.32380952380953" y="140.01904761904763"/>
      <point x="410.35238095238094" y="124.36190476190475"/>
      <point x="339.85714285714283" y="124.36190476190475" type="curve" smooth="yes"/>
      <point x="211.65714285714284" y="124.36190476190475"/>
      <point x="108.35238095238095" y="125.36190476190475"/>
      <point x="75.45714285714286" y="127.36190476190475" type="curve"/>
      <point x="60.00952380952381" y="0.0" type="line"/>
      <point x="153.31428571428572" y="-7.0"/>
      <point x="231.5142857142857" y="-8.0"/>
      <point x="373.0571428571429" y="-8.0" type="curve" smooth="yes"/>
      <point x="542.1904761904761" y="-8.0"/>
      <point x="615.6" y="30.0"/>
      <point x="615.6" y="172.0" type="curve" smooth="yes"/>
      <point x="615.6" y="282.0"/>
      <point x="577.7047619047619" y="346.2761904761905"/>
      <point x="469.6380952380952" y="355.2761904761905" type="curve"/>
      <point x="469.6380952380952" y="360.7238095238095" type="line"/>
      <point x="558.4285714285714" y="368.7238095238095"/>
      <point x="593.152380952381" y="419.0"/>
      <point x="593.152380952381" y="518.0" type="curve" smooth="yes"/>
      <point x="593.152380952381" y="660.0"/>
      <point x="527.0857142857143" y="698.0"/>
    </contour>
    <contour>
      <point x="243.56190476190477" y="690.0" type="line"/>
      <point x="60.00952380952381" y="690.0" type="line"/>
      <point x="60.00952380952381" y="0.0" type="line"/>
      <point x="243.56190476190477" y="0.0" type="line"/>
    </contour>
  </outline>
</glyph>
<glyph name="C" format="2">
  <advance width="596.4380952380952"/>
  <unicode hex="0043"/>
  <anchor x="322.7238095238095" y="-26.476190476190474" name="bottom"/>
  <anchor x="337.37142857142857" y="734.1714285714286" name="top"/>
  <outline>
    <contour>
      <point x="341.4095238095238" y="702.0" type="curve" smooth="yes"/>
      <point x="119.5904761904762" y="702.0"/>
      <point x="38.62857142857143" y="608.0"/>
      <point x="38.62857142857143" y="345.0" type="curve" smooth="yes"/>
      <point x="38.62857142857143" y="82.0"/>
      <point x="119.5904761904762" y="-12.0"/>
      <point x="341.4095238095238" y="-12.0" type="curve" smooth="yes"/>
      <point x="445.26666666666665" y="-12.0"/>
      <point x="506.7809523809524" y="-3.552380952380952"/>
      <point x="574.0190476190476" y="18.79047619047619" type="curve"/>
      <point x="559.4" y="156.35238095238094" type="line"/>
      <point x="495.16190476190474" y="149.07619047619048"/>
      <point x="437.81904761904764" y="147.8"/>
      <point x="341.4095238095238" y="147.8" type="curve" smooth="yes"/>
      <point x="258.7714285714286" y="147.8"/>
      <point x="235.97142857142856" y="189.53333333333333"/>
      <point x="235.97142857142856" y="345.0" type="curve" smooth="yes"/>
      <point x="235.97142857142856" y="500.4666666666667"/>
      <point x="258.7714285714286" y="542.2"/>
      <point x="341.4095238095238" y="542.2" type="curve" smooth="yes"/>
      <point x="432.81904761904764" y="542.2"/>
      <point x="477.16190476190474" y="540.9238095238095"/>
      <point x="544.6761904761905" y="538.8190476190476" type="curve"/>
      <point x="559.2952380952381" y="676.6571428571428" type="line"/>
      <point x="493.0571428571429" y="694.552380952381"/>
      <point x="444.43809523809523" y="702.0"/>
    </contour>
  </outline>
</glyph>
<glyph name="D" format="2">
  <advance width="691.3333333333334"/>
  <unicode hex="0044"/>
  <anchor x="331.96190476190475" y="-12.0" name="bottom"/>
  <anchor x="339.16190476190474" y="734.1714285714286" name="top"/>
  <outline>
    <contour>
      <point x="343.1333333333333" y="699.7238095238096" type="curve" smooth="yes"/>
      <point x="230.65714285714284" y="699.7238095238096"/>
      <point x="144.14285714285714" y="695.0"/>
      <point x="60.00952380952381" y="690.0" type="curve"/>
      <point x="143.75238095238095" y="559.7428571428571" type="line"/>
      <point x="203.3047619047619" y="559.0190476190476"/>
      <point x="262.1333333333333" y="559.5714285714286"/>
      <point x="343.1333333333333" y="559.5714285714286" type="curve" smooth="yes"/>
      <point x="429.83809523809526" y="559.5714285714286"/>
      <point x="454.3619047619048" y="514.6666666666666"/>
      <point x="454.3619047619048" y="345.0" type="curve" smooth="yes"/>
      <point x="454.3619047619048" y="175.33333333333334"/>
      <point x="429.83809523809526" y="130.7047619047619"/>
      <point x="343.1333333333333" y="130.7047619047619" type="curve" smooth="yes"/>
      <point x="257.23809523809524" y="130.7047619047619"/>
      <point x="184.61904761904762" y="132.7047619047619"/>
      <point x="136.68571428571428" y="136.87619047619046" type="curve"/>
      <point x="60.00952380952381" y="0.0" type="line"/>
      <point x="143.41904761904763" y="-5.723809523809524"/>
      <point x="233.10476190476192" y="-9.723809523809523"/>
      <point x="343.1333333333333" y="-9.723809523809523" type="curve" smooth="yes"/>
      <point x="570.7428571428571" y="-9.723809523809523"/>
      <point x="652.4285714285714" y="68.03809523809524"/>
      <point x="652.4285714285714" y="345.0" type="curve" smooth="yes"/>
      <point x="652.4285714285714" y="621.9619047619047"/>
      <point x="570.7428571428571" y="699.7238095238096"/>
    </contour>
    <contour>
      <point x="247.73333333333335" y="690.0" type="line"/>
      <point x="60.00952380952381" y="690.0" type="line"/>
      <point x="60.00952380952381" y="0.0" type="line"/>
      <point x="247.73333333333335" y="0.0" type="line"/>
    </contour>
  </outline>
</glyph>
<glyph name="E" format="2">
  <advance width="587.1619047619048"/>
  <unicode hex="0045"/>
  <guideline x="145.17142857142858" y="538.0" angle="0.0"/>
  <anchor x="312.5809523809524" y="0.0" name="bottom"/>
  <anchor x="553.6380952380953" y="8.17142857142857" name="ogonek"/>
  <anchor x="319.4095238095238" y="736.6571428571428" name="top"/>
  <outline>
    <contour>
      <point x="212.03809523809525" y="693.447619047619" type="curve" smooth="yes"/>
      <point x="118.6952380952381" y="693.447619047619"/>
      <point x="55.00952380952381" y="633.8666666666667"/>
      <point x="54.733333333333334" y="544.7333333333333" type="curve" smooth="yes"/>
      <point x="54.733333333333334" y="145.26666666666665" type="line" smooth="yes"/>
      <point x="55.00952380952381" y="56.13333333333333"/>
      <point x="118.41904761904762" y="-3.447619047619048"/>
      <point x="212.03809523809525" y="-3.447619047619048" type="curve" smooth="yes"/>
      <point x="325.51428571428573" y="-3.447619047619048"/>
      <point x="456.4" y="-3.447619047619048"/>
      <point x="553.6380952380953" y="8.17142857142857" type="curve"/>
      <point x="545.0190476190476" y="142.66666666666666" type="line"/>
      <point x="286.4952380952381" y="142.66666666666666" type="line" smooth="yes"/>
      <point x="257.9047619047619" y="142.66666666666666"/>
      <point x="242.73333333333335" y="157.66666666666666"/>
      <point x="242.73333333333335" y="185.57142857142856" type="curve" smooth="yes"/>
      <point x="242.73333333333335" y="504.15238095238095" type="line" smooth="yes"/>
      <point x="242.73333333333335" y="532.0571428571428"/>
      <point x="257.9047619047619" y="547.0571428571428"/>
      <point x="286.4952380952381" y="547.0571428571428" type="curve" smooth="yes"/>
      <point x="545.0190476190476" y="547.0571428571428" type="line"/>
      <point x="553.6380952380953" y="681.8285714285714" type="line"/>
      <point x="456.4" y="693.447619047619"/>
      <point x="325.51428571428573" y="693.447619047619"/>
    </contour>
    <contour>
      <point x="72.73333333333333" y="420.0285714285714" type="line"/>
      <point x="72.73333333333333" y="291.2190476190476" type="line"/>
      <point x="508.4666666666667" y="291.2190476190476" type="line"/>
      <point x="508.4666666666667" y="420.0285714285714" type="line"/>
    </contour>
  </outline>
</glyph>
<glyph name="F" format="2">
  <advance width="565.1619047619048"/>
  <unicode hex="0046"/>
  <outline>
    <contour>
      <point x="216.76190476190476" y="693.447619047619" type="curve" smooth="yes"/>
      <point x="122.6952380952381" y="693.447619047619"/>
      <point x="58.00952380952381" y="634.1428571428571"/>
      <point x="58.00952380952381" y="543.0761904761905" type="curve" smooth="yes"/>
      <point x="58.00952380952381" y="0.0" type="line"/>
      <point x="246.0095238095238" y="0.0" type="line"/>
      <point x="246.0095238095238" y="504.15238095238095" type="line" smooth="yes"/>
      <point x="246.0095238095238" y="532.0571428571428"/>
      <point x="261.73333333333335" y="547.0571428571428"/>
      <point x="293.9809523809524" y="547.0571428571428" type="curve" smooth="yes"/>
      <point x="538.0190476190476" y="547.0571428571428" type="line"/>
      <point x="546.9142857142857" y="680.8285714285714" type="line"/>
      <point x="454.12380952380954" y="693.447619047619"/>
      <point x="326.51428571428573" y="693.447619047619"/>
    </contour>
    <contour>
      <point x="75.73333333333333" y="406.5809523809524" type="line"/>
      <point x="75.73333333333333" y="277.4952380952381" type="line"/>
      <point x="501.0190476190476" y="277.4952380952381" type="line"/>
      <point x="501.0190476190476" y="406.5809523809524" type="line"/>
    </contour>
  </outline>
</glyph>
<glyph name="G" format="2">
  <advance width="657.504761904762"/>
  <unicode hex="0047"/>
  <anchor x="346.752380952381" y="-8.685714285714285" name="bottom"/>
  <anchor x="345.64761904761906" y="736.9333333333333" name="top"/>
  <outline>
    <contour>
      <point x="356.7238095238095" y="703.7238095238096" type="curve" smooth="yes"/>
      <point x="123.41904761904762" y="703.7238095238096"/>
      <point x="38.904761904761905" y="614.4190476190477"/>
      <point x="38.904761904761905" y="345.8285714285714" type="curve" smooth="yes"/>
      <point x="38.904761904761905" y="88.6952380952381"/>
      <point x="106.6952380952381" y="-13.723809523809523"/>
      <point x="263.76190476190476" y="-13.723809523809523" type="curve" smooth="yes"/>
      <point x="373.76190476190476" y="-13.723809523809523"/>
      <point x="446.8666666666667" y="49.17142857142857"/>
      <point x="473.0761904761905" y="88.51428571428572" type="curve"/>
      <point x="453.73333333333335" y="172.8857142857143" type="line"/>
      <point x="425.8952380952381" y="159.87619047619046"/>
      <point x="385.4761904761905" y="146.6952380952381"/>
      <point x="335.57142857142856" y="146.6952380952381" type="curve" smooth="yes"/>
      <point x="259.56190476190477" y="146.6952380952381"/>
      <point x="236.24761904761905" y="189.25714285714287"/>
      <point x="236.24761904761905" y="343.6190476190476" type="curve" smooth="yes"/>
      <point x="236.24761904761905" y="512.1333333333333"/>
      <point x="264.9809523809524" y="543.9238095238095"/>
      <point x="359.3809523809524" y="543.9238095238095" type="curve" smooth="yes"/>
      <point x="437.4666666666667" y="543.9238095238095"/>
      <point x="500.0571428571429" y="542.6476190476191"/>
      <point x="572.4666666666667" y="540.5428571428572" type="curve"/>
      <point x="586.8095238095239" y="676.6571428571428" type="line"/>
      <point x="517.4" y="696.2761904761904"/>
      <point x="453.4666666666667" y="703.7238095238096"/>
    </contour>
    <contour>
      <point x="613.3238095238095" y="397.2761904761905" type="line"/>
      <point x="432.9428571428571" y="397.2761904761905" type="line"/>
      <point x="432.9428571428571" y="139.02857142857144" type="line"/>
      <point x="450.18095238095236" y="105.8952380952381" type="line"/>
      <point x="474.8666666666667" y="0.0" type="line"/>
      <point x="613.3238095238095" y="0.0" type="line"/>
    </contour>
  </outline>
</glyph>
<glyph name="H" format="2">
  <advance width="702.4"/>
  <unicode hex="0048"/>
  <anchor x="351.9238095238095" y="0.0" name="bottom"/>
  <anchor x="329.0" y="345.0" name="center"/>
  <anchor x="349.752380952381" y="736.6571428571428" name="top"/>
  <outline>
    <contour>
      <point x="248.45714285714286" y="690.0" type="line"/>
      <point x="60.733333333333334" y="690.0" type="line"/>
      <point x="60.733333333333334" y="0.0" type="line"/>
      <point x="248.45714285714286" y="0.0" type="line"/>
    </contour>
    <contour>
      <point x="464.6666666666667" y="434.81904761904764" type="line"/>
      <point x="240.45714285714286" y="434.81904761904764" type="line"/>
      <point x="240.45714285714286" y="298.2857142857143" type="line"/>
      <point x="464.6666666666667" y="298.2857142857143" type="line"/>
    </contour>
    <contour>
      <point x="641.6666666666666" y="690.0" type="line"/>
      <point x="453.9428571428571" y="690.0" type="line"/>
      <point x="453.9428571428571" y="0.0" type="line"/>
      <point x="641.6666666666666" y="0.0" type="line"/>
    </contour>
  </outline>
</glyph>
<glyph name="I" format="2">
  <advance width="307.74285714285713"/>
  <unicode hex="0049"/>
  <anchor x="151.8190476190476" y="0.0" name="bottom"/>
  <anchor x="223.15238095238095" y="0.0" name="ogonek"/>
  <anchor x="154.37142857142857" y="734.1714285714286" name="top"/>
  <outline>
    <contour>
      <point x="247.0095238095238" y="690.0" type="line"/>
      <point x="60.733333333333334" y="690.0" type="line"/>
      <point x="60.733333333333334" y="0.0" type="line"/>
      <point x="247.0095238095238" y="0.0" type="line"/>
    </contour>
  </outline>
</glyph>
<glyph name="J" format="2">
  <advance width="387.9809523809524"/>
  <unicode hex="004A"/>
  <anchor x="237.22857142857143" y="0.0" name="bottom"/>
  <anchor x="239.78095238095239" y="734.1714285714286" name="top"/>
  <outline>
    <contour>
      <point x="330.247619047619" y="690.0" type="line"/>
      <point x="143.97142857142856" y="690.0" type="line"/>
      <point x="143.97142857142856" y="174.16190476190476" type="line" smooth="yes"/>
      <point x="143.97142857142856" y="144.1904761904762"/>
      <point x="123.86666666666667" y="130.6"/>
      <point x="81.65714285714286" y="130.6" type="curve" smooth="yes"/>
      <point x="34.65714285714286" y="130.6" type="line"/>
      <point x="14.695238095238096" y="10.066666666666666" type="line"/>
      <point x="45.93333333333334" y="-5.447619047619048"/>
      <point x="119.81904761904762" y="-12.895238095238096"/>
      <point x="159.67619047619047" y="-12.895238095238096" type="curve" smooth="yes"/>
      <point x="265.7714285714286" y="-12.895238095238096"/>
      <point x="330.247619047619" y="40.03809523809524"/>
      <point x="330.247619047619" y="135.0095238095238" type="curve" smooth="yes"/>
    </contour>
  </outline>
</glyph>
<glyph name="K" format="2">
  <advance width="655.5619047619048"/>
  <unicode hex="004B"/>
  <anchor x="325.0571428571429" y="-8.685714285714285" name="bottom"/>
  <anchor x="326.16190476190474" y="734.1714285714286" name="top"/>
  <outline>
    <contour>
      <point x="647.3809523809524" y="690.0" type="line"/>
      <point x="445.3142857142857" y="690.0" type="line"/>
      <point x="251.6095238095238" y="361.0" type="line"/>
      <point x="449.5238095238095" y="0.0" type="line"/>
      <point x="658.2095238095238" y="0.0" type="line"/>
      <point x="487.54285714285714" y="290.5904761904762" type="line" smooth="yes"/>
      <point x="472.64761904761906" y="317.55238095238093"/>
      <point x="443.34285714285716" y="344.51428571428573"/>
      <point x="423.51428571428573" y="355.55238095238093" type="curve"/>
      <point x="423.51428571428573" y="359.2761904761905" type="line"/>
      <point x="443.06666666666666" y="370.5904761904762"/>
      <point x="463.9238095238095" y="389.55238095238093"/>
      <point x="479.81904761904764" y="417.51428571428573" type="curve" smooth="yes"/>
    </contour>
    <contour>
      <point x="248.45714285714286" y="690.0" type="line"/>
      <point x="60.733333333333334" y="690.0" type="line"/>
      <point x="60.733333333333334" y="0.0" type="line"/>
      <point x="248.45714285714286" y="0.0" type="line"/>
      <point x="248.45714285714286" y="230.8" type="line" smooth="yes"/>
      <point x="248.45714285714286" y="269.6952380952381"/>
      <point x="235.66666666666666" y="319.8285714285714"/>
      <point x="221.6" y="361.7238095238095" type="curve"/>
      <point x="239.83809523809524" y="406.06666666666666"/>
      <point x="248.45714285714286" y="458.0952380952381"/>
      <point x="248.45714285714286" y="506.6095238095238" type="curve" smooth="yes"/>
    </contour>
    <contour>
      <point x="312.67619047619047" y="421.37142857142857" type="line"/>
      <point x="193.36190476190475" y="421.37142857142857" type="line"/>
      <point x="193.36190476190475" y="295.45714285714286" type="line"/>
      <point x="312.67619047619047" y="295.45714285714286" type="line"/>
    </contour>
  </outline>
</glyph>
<glyph name="L" format="2">
  <advance width="545.6761904761905"/>
  <unicode hex="004C"/>
  <anchor x="309.96190476190475" y="0.0" name="bottom"/>
  <anchor x="146.85714285714286" y="734.1714285714286" name="top"/>
  <outline>
    <contour>
      <point x="245.73333333333335" y="690.0" type="line"/>
      <point x="58.00952380952381" y="690.0" type="line"/>
      <point x="58.00952380952381" y="149.13333333333333" type="line" smooth="yes"/>
      <point x="58.00952380952381" y="59.44761904761905"/>
      <point x="114.27619047619048" y="-3.447619047619048"/>
      <point x="219.24761904761905" y="-3.447619047619048" type="curve" smooth="yes"/>
      <point x="325.6190476190476" y="-3.447619047619048"/>
      <point x="438.0571428571429" y="-3.1714285714285713"/>
      <point x="536.0857142857143" y="9.17142857142857" type="curve"/>
      <point x="527.4666666666667" y="150.18095238095236" type="line"/>
      <point x="292.9809523809524" y="150.18095238095236" type="line" smooth="yes"/>
      <point x="261.45714285714286" y="150.18095238095236"/>
      <point x="245.73333333333335" y="165.18095238095236"/>
      <point x="245.73333333333335" y="193.0857142857143" type="curve" smooth="yes"/>
    </contour>
  </outline>
</glyph>
<glyph name="M" format="2">
  <advance width="933.495238095238"/>
  <unicode hex="004D"/>
  <guideline x="348.2761904761905" y="437.0" angle="0.0"/>
  <anchor x="462.7142857142857" y="0.0" name="bottom"/>
  <anchor x="465.26666666666665" y="734.1714285714286" name="top"/>
  <outline>
    <contour>
      <point x="793.495238095238" y="690.0" type="curve" smooth="yes"/>
      <point x="622.3809523809524" y="690.0" type="line" smooth="yes"/>
      <point x="581.9047619047619" y="690.0"/>
      <point x="556.7714285714286" y="670.4857142857143"/>
      <point x="549.047619047619" y="631.0095238095238" type="curve" smooth="yes"/>
      <point x="485.752380952381" y="325.5238095238095" type="line" smooth="yes"/>
      <point x="479.64761904761906" y="291.8"/>
      <point x="475.81904761904764" y="258.45714285714286"/>
      <point x="470.9904761904762" y="225.0095238095238" type="curve"/>
      <point x="460.0571428571429" y="225.0095238095238" type="line"/>
      <point x="455.95238095238096" y="258.45714285714286"/>
      <point x="452.12380952380954" y="291.8"/>
      <point x="446.0190476190476" y="325.247619047619" type="curve" smooth="yes"/>
      <point x="380.552380952381" y="631.0095238095238" type="line" smooth="yes"/>
      <point x="372.8285714285714" y="670.4857142857143"/>
      <point x="347.9714285714286" y="690.0"/>
      <point x="308.4952380952381" y="690.0" type="curve" smooth="yes"/>
      <point x="139.72380952380954" y="690.0" type="line" smooth="yes"/>
      <point x="95.52380952380952" y="690.0"/>
      <point x="74.00952380952381" y="666.7619047619048"/>
      <point x="72.28571428571428" y="623.2857142857143" type="curve" smooth="yes"/>
      <point x="47.733333333333334" y="0.0" type="line"/>
      <point x="219.53333333333333" y="0.0" type="line"/>
      <point x="237.9142857142857" y="547.3333333333334" type="line"/>
      <point x="253.74285714285713" y="547.3333333333334" type="line"/>
      <point x="339.03809523809525" y="161.36190476190475" type="line" smooth="yes"/>
      <point x="346.76190476190476" y="122.60952380952381"/>
      <point x="372.1714285714286" y="103.0952380952381"/>
      <point x="412.64761904761906" y="103.0952380952381" type="curve" smooth="yes"/>
      <point x="519.4" y="103.0952380952381" type="line" smooth="yes"/>
      <point x="559.8761904761905" y="103.0952380952381"/>
      <point x="585.0095238095238" y="122.60952380952381"/>
      <point x="592.0095238095238" y="161.36190476190475" type="curve" smooth="yes"/>
      <point x="676.3047619047619" y="547.3333333333334" type="line"/>
      <point x="692.4095238095238" y="547.3333333333334" type="line"/>
      <point x="714.2380952380952" y="0.0" type="line"/>
      <point x="886.0380952380953" y="0.0" type="line"/>
      <point x="860.9333333333334" y="623.2857142857143" type="line" smooth="yes"/>
      <point x="859.2095238095238" y="666.7619047619048"/>
      <point x="837.6952380952381" y="690.0"/>
    </contour>
  </outline>
</glyph>
<glyph name="N" format="2">
  <advance width="730.5428571428571"/>
  <unicode hex="004E"/>
  <anchor x="375.1333333333333" y="0.0" name="bottom"/>
  <anchor x="376.85714285714283" y="734.1714285714286" name="top"/>
  <outline>
    <contour>
      <point x="671.2571428571429" y="690.0" type="line"/>
      <point x="496.83809523809526" y="690.0" type="line"/>
      <point x="497.56190476190477" y="355.79999999999995" type="line" smooth="yes"/>
      <point x="497.56190476190477" y="315.18095238095236"/>
      <point x="501.0095238095238" y="275.56190476190477"/>
      <point x="505.45714285714286" y="234.94285714285712" type="curve"/>
      <point x="496.8" y="234.94285714285712" type="line"/>
      <point x="481.0761904761905" y="276.73333333333335"/>
      <point x="462.5238095238095" y="318.0095238095238"/>
      <point x="445.18095238095236" y="349.9047619047619" type="curve" smooth="yes"/>
      <point x="287.37142857142857" y="635.0095238095238" type="line" smooth="yes"/>
      <point x="267.23809523809524" y="671.0380952380953"/>
      <point x="252.7904761904762" y="690.0"/>
      <point x="213.59047619047618" y="690.0" type="curve" smooth="yes"/>
      <point x="125.8952380952381" y="690.0" type="line" smooth="yes"/>
      <point x="82.97142857142858" y="690.0"/>
      <point x="60.00952380952381" y="667.3142857142857"/>
      <point x="60.00952380952381" y="624.1142857142858" type="curve" smooth="yes"/>
      <point x="60.00952380952381" y="0.0" type="line"/>
      <point x="235.42857142857144" y="0.0" type="line"/>
      <point x="235.42857142857144" y="345.5809523809524" type="line" smooth="yes"/>
      <point x="235.42857142857144" y="383.64761904761906"/>
      <point x="232.25714285714287" y="424.8857142857143"/>
      <point x="226.8095238095238" y="464.4" type="curve"/>
      <point x="235.1904761904762" y="464.4" type="line"/>
      <point x="245.8095238095238" y="425.7142857142857"/>
      <point x="262.74285714285713" y="383.43809523809523"/>
      <point x="279.8095238095238" y="351.37142857142857" type="curve" smooth="yes"/>
      <point x="443.6190476190476" y="54.99047619047619" type="line" smooth="yes"/>
      <point x="463.0285714285714" y="18.961904761904762"/>
      <point x="478.2" y="0.0"/>
      <point x="517.4" y="0.0" type="curve" smooth="yes"/>
      <point x="605.6476190476191" y="0.0" type="line" smooth="yes"/>
      <point x="648.5714285714286" y="0.0"/>
      <point x="671.2571428571429" y="22.685714285714283"/>
      <point x="671.2571428571429" y="65.88571428571429" type="curve" smooth="yes"/>
    </contour>
  </outline>
</glyph>
<glyph name="P" format="2">
  <advance width="631.6380952380953"/>
  <unicode hex="0050"/>
  <outline>
    <contour>
      <point x="338.4761904761905" y="699.7238095238096" type="curve" smooth="yes"/>
      <point x="207.10476190476192" y="699.7238095238096"/>
      <point x="147.86666666666667" y="698.7238095238096"/>
      <point x="60.00952380952381" y="690.0" type="curve"/>
      <point x="74.73333333333333" y="558.0190476190476" type="line"/>
      <point x="107.35238095238095" y="561.7428571428571"/>
      <point x="204.93333333333334" y="562.7428571428571"/>
      <point x="334.3047619047619" y="562.7428571428571" type="curve" smooth="yes"/>
      <point x="402.14285714285717" y="562.7428571428571"/>
      <point x="421.0095238095238" y="543.9809523809524"/>
      <point x="421.0095238095238" y="468.8666666666667" type="curve" smooth="yes"/>
      <point x="421.0095238095238" y="394.9238095238095"/>
      <point x="402.14285714285717" y="376.43809523809523"/>
      <point x="334.3047619047619" y="376.16190476190474" type="curve" smooth="yes"/>
      <point x="247.44761904761904" y="376.16190476190474"/>
      <point x="156.59047619047618" y="376.16190476190474"/>
      <point x="73.73333333333333" y="376.16190476190474" type="curve"/>
      <point x="70.73333333333333" y="286.7238095238095" type="line"/>
      <point x="101.07619047619048" y="267.76190476190476"/>
      <point x="235.58095238095237" y="239.1809523809524"/>
      <point x="364.0571428571429" y="239.1809523809524" type="curve" smooth="yes"/>
      <point x="544.7714285714286" y="239.1809523809524"/>
      <point x="609.0095238095238" y="289.0761904761905"/>
      <point x="609.0095238095238" y="468.8666666666667" type="curve" smooth="yes"/>
      <point x="609.0095238095238" y="649.552380952381"/>
      <point x="544.7714285714286" y="699.7238095238096"/>
    </contour>
    <contour>
      <point x="247.73333333333335" y="690.0" type="line"/>
      <point x="60.00952380952381" y="690.0" type="line"/>
      <point x="60.00952380952381" y="0.0" type="line"/>
      <point x="247.73333333333335" y="0.0" type="line"/>
    </contour>
  </outline>
</glyph>
<glyph name="R" format="2">
  <advance width="661.0857142857143"/>
  <unicode hex="0052"/>
  <anchor x="327.23809523809524" y="-8.685714285714285" name="bottom"/>
  <anchor x="322.54285714285714" y="734.1714285714286" name="top"/>
  <outline>
    <contour>
      <point x="339.4761904761905" y="699.7238095238096" type="curve" smooth="yes"/>
      <point x="208.10476190476192" y="699.7238095238096"/>
      <point x="147.86666666666667" y="698.7238095238096"/>
      <point x="60.00952380952381" y="690.0" type="curve"/>
      <point x="75.45714285714286" y="558.5714285714286" type="line"/>
      <point x="108.07619047619048" y="561.4666666666667"/>
      <point x="203.2095238095238" y="562.7428571428571"/>
      <point x="335.3047619047619" y="562.7428571428571" type="curve" smooth="yes"/>
      <point x="405.5904761904762" y="562.7428571428571"/>
      <point x="425.45714285714286" y="545.9809523809524"/>
      <point x="425.45714285714286" y="480.14285714285717" type="curve" smooth="yes"/>
      <point x="425.45714285714286" y="414.3047619047619"/>
      <point x="405.5904761904762" y="396.9904761904762"/>
      <point x="335.3047619047619" y="396.7142857142857" type="curve" smooth="yes"/>
      <point x="73.73333333333333" y="396.7142857142857" type="line"/>
      <point x="70.73333333333333" y="263.9047619047619" type="line"/>
      <point x="129.10476190476192" y="260.73333333333335"/>
      <point x="186.41904761904763" y="260.45714285714286"/>
      <point x="329.79047619047617" y="259.73333333333335" type="curve" smooth="yes"/>
      <point x="368.44761904761907" y="259.73333333333335"/>
      <point x="385.48571428571427" y="248.24761904761905"/>
      <point x="395.4190476190476" y="207.76190476190476" type="curve" smooth="yes"/>
      <point x="443.73333333333335" y="0.0" type="line"/>
      <point x="640.6285714285714" y="0.0" type="line"/>
      <point x="584.1428571428571" y="213.38095238095238" type="line" smooth="yes"/>
      <point x="567.6952380952381" y="291.5809523809524"/>
      <point x="514.6666666666666" y="313.34285714285716"/>
      <point x="477.7714285714286" y="319.44761904761907" type="curve"/>
      <point x="477.7714285714286" y="325.1714285714286" type="line"/>
      <point x="580.9047619047619" y="336.44761904761907"/>
      <point x="614.1809523809524" y="402.85714285714283"/>
      <point x="614.1809523809524" y="492.20952380952383" type="curve" smooth="yes"/>
      <point x="614.1809523809524" y="651.8285714285714"/>
      <point x="531.9809523809524" y="699.7238095238096"/>
    </contour>
    <contour>
      <point x="244.56190476190477" y="690.0" type="line"/>
      <point x="60.00952380952381" y="690.0" type="line"/>
      <point x="60.00952380952381" y="0.0" type="line"/>
      <point x="244.56190476190477" y="0.0" type="line"/>
    </contour>
  </outline>
</glyph>
<glyph name="T" format="2">
  <advance width="613.0571428571428"/>
  <unicode hex="0054"/>
  <anchor x="299.96190476190475" y="-14.476190476190476" name="bottom"/>
  <anchor x="300.4095238095238" y="345.0" name="center"/>
  <anchor x="306.0285714285714" y="734.1714285714286" name="top"/>
  <outline>
    <contour>
      <point x="400.3904761904762" y="690.0" type="line"/>
      <point x="212.3904761904762" y="690.0" type="line"/>
      <point x="212.3904761904762" y="0.0" type="line"/>
      <point x="400.3904761904762" y="0.0" type="line"/>
    </contour>
    <contour>
      <point x="599.4666666666667" y="690.0" type="line"/>
      <point x="13.59047619047619" y="690.0" type="line"/>
      <point x="13.59047619047619" y="545.4" type="line"/>
      <point x="599.4666666666667" y="545.4" type="line"/>
    </contour>
  </outline>
</glyph>
<glyph name="V" format="2">
  <advance width="654.8095238095239"/>
  <unicode hex="0056"/>
  <outline>
    <contour>
      <point x="652.6666666666666" y="690.0" type="line"/>
      <point x="459.4952380952381" y="690.0" type="line"/>
      <point x="354.4761904761905" y="218.9047619047619" type="line" smooth="yes"/>
      <point x="348.9238095238095" y="193.9047619047619"/>
      <point x="343.37142857142857" y="165.73333333333335"/>
      <point x="339.81904761904764" y="140.73333333333335" type="curve"/>
      <point x="315.26666666666665" y="140.73333333333335" type="line"/>
      <point x="310.7142857142857" y="165.73333333333335"/>
      <point x="306.16190476190474" y="193.9047619047619"/>
      <point x="300.6095238095238" y="218.9047619047619" type="curve" smooth="yes"/>
      <point x="195.31428571428572" y="690.0" type="line"/>
      <point x="2.1428571428571423" y="690.0" type="line"/>
      <point x="178.98095238095237" y="50.542857142857144" type="line" smooth="yes"/>
      <point x="186.15238095238095" y="20.238095238095237"/>
      <point x="211.56190476190477" y="0.0"/>
      <point x="243.86666666666667" y="0.0" type="curve" smooth="yes"/>
      <point x="410.9428571428571" y="0.0" type="line" smooth="yes"/>
      <point x="443.247619047619" y="0.0"/>
      <point x="468.65714285714284" y="20.238095238095237"/>
      <point x="475.8285714285714" y="50.542857142857144" type="curve" smooth="yes"/>
    </contour>
  </outline>
</glyph>
<glyph name="X" format="2">
  <advance width="660.7047619047619"/>
  <unicode hex="0058"/>
  <outline>
    <contour>
      <point x="645.0761904761905" y="690.0" type="line"/>
      <point x="457.03809523809525" y="690.0" type="line"/>
      <point x="307.6857142857143" y="353.1047619047619" type="line"/>
      <point x="469.76190476190476" y="0.0" type="line"/>
      <point x="658.8" y="0.0" type="line"/>
      <point x="483.65714285714284" y="353.1047619047619" type="line"/>
    </contour>
    <contour>
      <point x="203.3904761904762" y="690.0" type="line"/>
      <point x="15.62857142857143" y="690.0" type="line"/>
      <point x="176.77142857142857" y="353.1047619047619" type="line"/>
      <point x="1.904761904761905" y="0.0" type="line"/>
      <point x="190.66666666666666" y="0.0" type="line"/>
      <point x="352.74285714285713" y="353.1047619047619" type="line"/>
    </contour>
    <contour>
      <point x="416.32380952380953" y="410.1333333333333" type="line"/>
      <point x="230.6952380952381" y="410.1333333333333" type="line"/>
      <point x="230.6952380952381" y="299.8" type="line"/>
      <point x="416.32380952380953" y="299.8" type="line"/>
    </contour>
  </outline>
</glyph>
<glyph name="Y" format="2">
  <advance width="633.2857142857143"/>
  <unicode hex="0059"/>
  <anchor x="316.67619047619047" y="-8.685714285714285" name="bottom"/>
  <anchor x="317.7809523809524" y="730.3047619047619" name="top"/>
  <outline>
    <contour>
      <point x="638.3142857142857" y="690.0" type="line"/>
      <point x="444.8666666666667" y="690.0" type="line"/>
      <point x="346.16190476190474" y="457.42857142857144" type="line" smooth="yes"/>
      <point x="334.8857142857143" y="428.8095238095238"/>
      <point x="328.7809523809524" y="393.74285714285713"/>
      <point x="322.95238095238096" y="364.12380952380954" type="curve"/>
      <point x="311.3333333333333" y="364.12380952380954" type="line"/>
      <point x="305.5047619047619" y="393.74285714285713"/>
      <point x="300.12380952380954" y="428.0857142857143"/>
      <point x="288.12380952380954" y="456.7047619047619" type="curve" smooth="yes"/>
      <point x="188.6952380952381" y="690.0" type="line"/>
      <point x="-5.304761904761904" y="690.0" type="line"/>
      <point x="227.41904761904763" y="211.35238095238094" type="line"/>
      <point x="406.1428571428571" y="211.35238095238094" type="line"/>
    </contour>
    <contour>
      <point x="410.8666666666667" y="320.81904761904764" type="line"/>
      <point x="223.14285714285714" y="320.81904761904764" type="line"/>
      <point x="223.14285714285714" y="0.0" type="line"/>
      <point x="410.8666666666667" y="0.0" type="line"/>
    </contour>
  </outline>
</glyph>
<glyph name="Z" format="2">
  <advance width="595.0571428571428"/>
  <unicode hex="005A"/>
  <anchor x="301.23809523809524" y="-8.685714285714285" name="bottom"/>
  <anchor x="297.9238095238095" y="734.1714285714286" name="top"/>
  <outline>
    <contour>
      <point x="346.5047619047619" y="555.0190476190476" type="line"/>
      <point x="33.971428571428575" y="135.98095238095237" type="line"/>
      <point x="240.65714285714284" y="134.98095238095237" type="line"/>
      <point x="552.9142857142857" y="554.0190476190476" type="line"/>
    </contour>
    <contour>
      <point x="562.0857142857143" y="135.98095238095237" type="line"/>
      <point x="33.971428571428575" y="135.98095238095237" type="line"/>
      <point x="33.971428571428575" y="0.0" type="line"/>
      <point x="562.0857142857143" y="0.0" type="line"/>
    </contour>
    <contour>
      <point x="552.9142857142857" y="690.0" type="line"/>
      <point x="42.86666666666667" y="690.0" type="line"/>
      <point x="42.86666666666667" y="554.0190476190476" type="line"/>
      <point x="552.9142857142857" y="554.0190476190476" type="line"/>
    </contour>
  </outline>
</glyph>
<glyph name="bracketleft" format="2">
  <advance width="355.26666666666665"/>
  <unicode hex="005B"/>
  <outline>
    <contour>
      <point x="327.4" y="768.0" type="line"/>
      <point x="158.13333333333333" y="768.0" type="line" smooth="yes"/>
      <point x="104.76190476190476" y="768.0"/>
      <point x="67.9047619047619" y="731.1428571428571"/>
      <point x="67.9047619047619" y="677.7714285714286" type="curve" smooth="yes"/>
      <point x="67.9047619047619" y="-74.77142857142857" type="line" smooth="yes"/>
      <point x="67.9047619047619" y="-145.10476190476192"/>
      <point x="104.76190476190476" y="-165.0"/>
      <point x="158.13333333333333" y="-165.0" type="curve" smooth="yes"/>
      <point x="327.4" y="-165.0" type="line"/>
      <point x="327.4" y="-53.2952380952381" type="line"/>
      <point x="258.0095238095238" y="-53.2952380952381" type="line" smooth="yes"/>
      <point x="246.1142857142857" y="-53.2952380952381"/>
      <point x="237.66666666666666" y="-44.84761904761905"/>
      <point x="237.66666666666666" y="-32.67619047619048" type="curve" smooth="yes"/>
      <point x="237.66666666666666" y="635.6761904761905" type="line" smooth="yes"/>
      <point x="237.66666666666666" y="647.847619047619"/>
      <point x="246.1142857142857" y="656.2952380952381"/>
      <point x="258.0095238095238" y="656.2952380952381" type="curve" smooth="yes"/>
      <point x="327.4" y="656.2952380952381" type="line"/>
    </contour>
  </outline>
</glyph>
<glyph name="backslash" format="2">
  <advance width="571.152380952381"/>
  <unicode hex="005C"/>
  <outline>
    <contour>
      <point x="160.94285714285715" y="690.0" type="line"/>
      <point x="17.20952380952381" y="690.0" type="line"/>
      <point x="410.20952380952383" y="-75.96190476190476" type="line"/>
      <point x="553.9428571428572" y="-75.96190476190476" type="line"/>
    </contour>
  </outline>
</glyph>
<glyph name="bracketright" format="2">
  <advance width="355.26666666666665"/>
  <unicode hex="005D"/>
  <outline>
    <contour>
      <point x="196.85714285714286" y="768.0" type="curve" smooth="yes"/>
      <point x="27.866666666666667" y="768.0" type="line"/>
      <point x="27.866666666666667" y="656.2952380952381" type="line"/>
      <point x="96.98095238095237" y="656.2952380952381" type="line" smooth="yes"/>
      <point x="109.15238095238095" y="656.2952380952381"/>
      <point x="117.6" y="647.847619047619"/>
      <point x="117.6" y="635.6761904761905" type="curve" smooth="yes"/>
      <point x="117.6" y="-32.67619047619048" type="line" smooth="yes"/>
      <point x="117.6" y="-44.84761904761905"/>
      <point x="109.15238095238095" y="-53.2952380952381"/>
      <point x="96.98095238095237" y="-53.2952380952381" type="curve" smooth="yes"/>
      <point x="27.866666666666667" y="-53.2952380952381" type="line"/>
      <point x="27.866666666666667" y="-165.0" type="line"/>
      <point x="196.85714285714286" y="-165.0" type="line" smooth="yes"/>
      <point x="250.5047619047619" y="-165.0"/>
      <point x="287.3619047619048" y="-128.14285714285714"/>
      <point x="287.3619047619048" y="-74.77142857142857" type="curve" smooth="yes"/>
      <point x="287.3619047619048" y="677.7714285714286" type="line" smooth="yes"/>
      <point x="287.3619047619048" y="731.1428571428571"/>
      <point x="250.5047619047619" y="768.0"/>
    </contour>
  </outline>
</glyph>
<glyph name="asciicircum" format="2">
  <advance width="480.9809523809524"/>
  <unicode hex="005E"/>
  <outline>
    <contour>
      <point x="307.53169523809527" y="641.0948095238095" type="line"/>
      <point x="175.98415238095237" y="641.0948095238095" type="line"/>
      <point x="30.0" y="408.5051904761905" type="line"/>
      <point x="99.77377142857142" y="371.0841523809524" type="line"/>
      <point x="237.75792380952382" y="531.9" type="line"/>
      <point x="245.75792380952382" y="531.9" type="line"/>
      <point x="380.5051904761905" y="371.0841523809524" type="line"/>
      <point x="450.9737714285714" y="408.5051904761905" type="line"/>
    </contour>
  </outline>
</glyph>
<glyph name="underscore" format="2">
  <advance width="447.96190476190475"/>
  <unicode hex="005F"/>
  <outline>
    <contour>
      <point x="447.96190476190475" y="0.0" type="line"/>
      <point x="0.0" y="0.0" type="line"/>
      <point x="0.0" y="-110.67619047619047" type="line"/>
      <point x="447.96190476190475" y="-110.67619047619047" type="line"/>
    </contour>
  </outline>
</glyph>
<glyph name="grave" format="2">
  <advance width="374.4472666666667"/>
  <unicode hex="0060"/>
  <anchor x="239.96389523809523" y="529.9031238095238" name="_top"/>
  <outline>
    <contour>
      <point x="111.26666666666667" y="756.504761904762" type="line"/>
      <point x="37.51428571428571" y="637.3142857142857" type="line"/>
      <point x="278.9809523809524" y="531.552380952381" type="line"/>
      <point x="329.9047619047619" y="607.3333333333334" type="line"/>
    </contour>
  </outline>
</glyph>
<glyph name="a" format="2">
  <advance width="579.7809523809524"/>
  <unicode hex="0061"/>
  <anchor x="283.81904761904764" y="-12.0" name="bottom"/>
  <anchor x="532.9428571428572" y="0.0" name="ogonek"/>
  <anchor x="295.54285714285714" y="561.4095238095238" name="top"/>
  <outline>
    <contour>
      <point x="325.54285714285714" y="510.6857142857143" type="curve" smooth="yes"/>
      <point x="253.13333333333333" y="510.6857142857143"/>
      <point x="127.5904761904762" y="499.6857142857143"/>
      <point x="53.523809523809526" y="486.23809523809524" type="curve"/>
      <point x="70.03809523809524" y="368.15238095238095" type="line"/>
      <point x="152.55238095238096" y="372.7047619047619"/>
      <point x="232.93333333333334" y="374.8095238095238"/>
      <point x="282.7238095238095" y="374.8095238095238" type="curve" smooth="yes"/>
      <point x="335.0095238095238" y="374.8095238095238"/>
      <point x="350.6666666666667" y="360.0857142857143"/>
      <point x="351.6666666666667" y="318.18095238095236" type="curve" smooth="yes"/>
      <point x="351.6666666666667" y="124.79047619047618" type="line"/>
      <point x="363.73333333333335" y="106.72380952380952" type="line"/>
      <point x="389.14285714285717" y="0.0" type="line"/>
      <point x="533.495238095238" y="0.0" type="line"/>
      <point x="533.495238095238" y="317.45714285714286" type="line" smooth="yes"/>
      <point x="533.495238095238" y="465.44761904761907"/>
      <point x="460.1904761904762" y="510.6857142857143"/>
    </contour>
    <contour>
      <point x="461.8857142857143" y="306.1714285714286" type="line"/>
      <point x="186.55238095238096" y="306.1714285714286" type="line" smooth="yes"/>
      <point x="87.86666666666667" y="306.1714285714286"/>
      <point x="27.904761904761905" y="258.2761904761905"/>
      <point x="27.904761904761905" y="178.82857142857142" type="curve" smooth="yes"/>
      <point x="27.904761904761905" y="128.82857142857142" type="line" smooth="yes"/>
      <point x="27.904761904761905" y="35.65714285714286"/>
      <point x="102.48571428571428" y="-12.895238095238096"/>
      <point x="194.65714285714284" y="-12.895238095238096" type="curve" smooth="yes"/>
      <point x="325.64761904761906" y="-12.895238095238096"/>
      <point x="387.8952380952381" y="87.88571428571429"/>
      <point x="408.55238095238093" y="130.67619047619047" type="curve"/>
      <point x="408.55238095238093" y="198.26666666666665" type="line"/>
      <point x="366.81904761904764" y="150.6"/>
      <point x="301.84761904761905" y="115.01904761904763"/>
      <point x="254.57142857142856" y="115.01904761904763" type="curve" smooth="yes"/>
      <point x="221.32380952380953" y="115.01904761904763"/>
      <point x="205.66666666666666" y="129.4"/>
      <point x="205.66666666666666" y="155.13333333333333" type="curve" smooth="yes"/>
      <point x="205.66666666666666" y="172.23809523809524" type="line" smooth="yes"/>
      <point x="205.66666666666666" y="194.93333333333334"/>
      <point x="218.1142857142857" y="210.14285714285714"/>
      <point x="248.0857142857143" y="210.6952380952381" type="curve" smooth="yes"/>
      <point x="460.8857142857143" y="210.6952380952381" type="line"/>
    </contour>
  </outline>
</glyph>
<glyph name="b" format="2">
  <advance width="606.1238095238095"/>
  <unicode hex="0062"/>
  <outline>
    <contour>
      <point x="387.3619047619048" y="510.6857142857143" type="curve" smooth="yes"/>
      <point x="313.2952380952381" y="510.6857142857143"/>
      <point x="245.2952380952381" y="466.65714285714284"/>
      <point x="200.42857142857144" y="414.96190476190475" type="curve"/>
      <point x="213.4952380952381" y="336.2761904761905" type="line"/>
      <point x="247.5047619047619" y="355.1142857142857"/>
      <point x="273.4761904761905" y="371.3619047619048"/>
      <point x="312.6190476190476" y="371.3619047619048" type="curve" smooth="yes"/>
      <point x="371.9428571428571" y="371.3619047619048"/>
      <point x="385.7714285714286" y="347.73333333333335"/>
      <point x="386.04761904761904" y="252.7904761904762" type="curve" smooth="yes"/>
      <point x="385.7714285714286" y="143.8857142857143"/>
      <point x="367.0761904761905" y="117.36190476190475"/>
      <point x="313.0285714285714" y="114.91428571428571" type="curve" smooth="yes"/>
      <point x="280.8857142857143" y="113.19047619047619"/>
      <point x="221.54285714285714" y="119.91428571428571"/>
      <point x="195.0857142857143" y="130.57142857142856" type="curve"/>
      <point x="49.733333333333334" y="28.34285714285714" type="line"/>
      <point x="109.11428571428571" y="0.0"/>
      <point x="244.85714285714286" y="-12.0"/>
      <point x="316.4761904761905" y="-12.0" type="curve" smooth="yes"/>
      <point x="530.3904761904762" y="-12.0"/>
      <point x="573.047619047619" y="111.33333333333333"/>
      <point x="573.047619047619" y="253.5142857142857" type="curve" smooth="yes"/>
      <point x="573.047619047619" y="436.51428571428573"/>
      <point x="521.5619047619048" y="510.6857142857143"/>
    </contour>
    <contour>
      <point x="231.56190476190477" y="700.0" type="line"/>
      <point x="49.733333333333334" y="700.0" type="line"/>
      <point x="49.733333333333334" y="28.34285714285714" type="line"/>
      <point x="231.56190476190477" y="19.723809523809525" type="line"/>
      <point x="231.28571428571428" y="404.6190476190476" type="line"/>
      <point x="213.04761904761904" y="417.1714285714286" type="line"/>
      <point x="228.1142857142857" y="458.51428571428573"/>
      <point x="233.73333333333335" y="506.0952380952381"/>
      <point x="233.0095238095238" y="552.7142857142857" type="curve" smooth="yes"/>
    </contour>
  </outline>
</glyph>
<glyph name="c" format="2">
  <advance width="518.3333333333334"/>
  <unicode hex="0063"/>
  <anchor x="275.7238095238095" y="-15.619047619047619" name="bottom"/>
  <anchor x="284.81904761904764" y="555.8952380952381" name="top"/>
  <outline>
    <contour>
      <point x="291.51428571428573" y="510.6857142857143" type="curve" smooth="yes"/>
      <point x="101.41904761904762" y="510.6857142857143"/>
      <point x="32.352380952380955" y="441.23809523809524"/>
      <point x="32.352380952380955" y="249.34285714285716" type="curve" smooth="yes"/>
      <point x="32.352380952380955" y="57.44761904761905"/>
      <point x="100.41904761904762" y="-12.0"/>
      <point x="289.79047619047617" y="-12.0" type="curve" smooth="yes"/>
      <point x="362.0952380952381" y="-12.0"/>
      <point x="439.12380952380954" y="-1.5523809523809524"/>
      <point x="495.6380952380952" y="26.133333333333333" type="curve"/>
      <point x="479.12380952380954" y="140.83809523809524" type="line"/>
      <point x="419.16190476190474" y="133.56190476190477"/>
      <point x="355.43809523809523" y="133.0095238095238"/>
      <point x="322.54285714285714" y="133.0095238095238" type="curve" smooth="yes"/>
      <point x="247.21904761904761" y="133.0095238095238"/>
      <point x="222.8" y="156.98095238095237"/>
      <point x="222.8" y="249.34285714285716" type="curve" smooth="yes"/>
      <point x="222.8" y="340.7047619047619"/>
      <point x="247.21904761904761" y="364.67619047619047"/>
      <point x="322.54285714285714" y="364.67619047619047" type="curve" smooth="yes"/>
      <point x="362.6095238095238" y="364.67619047619047"/>
      <point x="410.26666666666665" y="364.4"/>
      <point x="469.57142857142856" y="363.84761904761905" type="curve"/>
      <point x="488.3619047619048" y="476.7238095238095" type="line"/>
      <point x="431.12380952380954" y="503.23809523809524"/>
      <point x="348.37142857142857" y="510.6857142857143"/>
    </contour>
  </outline>
</glyph>
<glyph name="d" format="2">
  <advance width="608.1238095238095"/>
  <unicode hex="0064"/>
  <anchor x="314.37142857142857" y="-15.619047619047619" name="bottom"/>
  <anchor x="472.43809523809523" y="694.4190476190477" name="top"/>
  <outline>
    <contour>
      <point x="223.52380952380952" y="510.6857142857143" type="curve" smooth="yes"/>
      <point x="99.52380952380952" y="510.6857142857143"/>
      <point x="34.076190476190476" y="455.2"/>
      <point x="34.076190476190476" y="253.5142857142857" type="curve" smooth="yes"/>
      <point x="34.076190476190476" y="84.61904761904762"/>
      <point x="83.52380952380952" y="-12.0"/>
      <point x="212.31428571428572" y="-12.0" type="curve" smooth="yes"/>
      <point x="312.6857142857143" y="-12.0"/>
      <point x="373.55238095238093" y="33.89523809523809"/>
      <point x="406.0761904761905" y="89.92380952380952" type="curve"/>
      <point x="393.62857142857143" y="172.33333333333334" type="line"/>
      <point x="355.4761904761905" y="148.4952380952381"/>
      <point x="334.7142857142857" y="135.28571428571428"/>
      <point x="287.95238095238096" y="135.28571428571428" type="curve" smooth="yes"/>
      <point x="240.66666666666666" y="135.28571428571428"/>
      <point x="221.07619047619048" y="151.36190476190475"/>
      <point x="221.07619047619048" y="255.23809523809524" type="curve" smooth="yes"/>
      <point x="221.07619047619048" y="369.9714285714286"/>
      <point x="240.66666666666666" y="385.83809523809526"/>
      <point x="292.0571428571429" y="385.83809523809526" type="curve" smooth="yes"/>
      <point x="335.54285714285714" y="385.83809523809526"/>
      <point x="360.79047619047617" y="373.3904761904762"/>
      <point x="395.5238095238095" y="364.2857142857143" type="curve"/>
      <point x="408.3142857142857" y="441.3142857142857" type="line"/>
      <point x="364.0" y="491.79047619047617"/>
      <point x="295.93333333333334" y="510.6857142857143"/>
    </contour>
    <contour>
      <point x="557.1142857142858" y="700.0" type="line"/>
      <point x="375.2857142857143" y="700.0" type="line"/>
      <point x="375.2857142857143" y="574.0952380952381" type="line" smooth="yes"/>
      <point x="375.2857142857143" y="528.0285714285715"/>
      <point x="378.0095238095238" y="480.44761904761907"/>
      <point x="381.56190476190477" y="438.55238095238093" type="curve"/>
      <point x="375.2857142857143" y="426.0" type="line"/>
      <point x="375.2857142857143" y="107.02857142857142" type="line"/>
      <point x="395.247619047619" y="92.96190476190476" type="line"/>
      <point x="412.76190476190476" y="0.0" type="line"/>
      <point x="557.1142857142858" y="0.0" type="line"/>
    </contour>
  </outline>
</glyph>
<glyph name="e" format="2">
  <advance width="576.4666666666667"/>
  <unicode hex="0065"/>
  <anchor x="301.67619047619047" y="-12.0" name="bottom"/>
  <anchor x="535.3904761904762" y="30.133333333333333" name="ogonek"/>
  <anchor x="303.9904761904762" y="555.6190476190476" name="top"/>
  <outline>
    <contour>
      <point x="300.7142857142857" y="510.6857142857143" type="curve" smooth="yes"/>
      <point x="106.6952380952381" y="510.6857142857143"/>
      <point x="31.62857142857143" y="442.1714285714286"/>
      <point x="31.62857142857143" y="246.0" type="curve" smooth="yes"/>
      <point x="31.62857142857143" y="70.75238095238095"/>
      <point x="104.86666666666667" y="-12.0"/>
      <point x="303.9238095238095" y="-12.0" type="curve" smooth="yes"/>
      <point x="385.0857142857143" y="-12.0"/>
      <point x="470.1904761904762" y="-2.552380952380952"/>
      <point x="535.3904761904762" y="29.857142857142858" type="curve"/>
      <point x="518.8761904761905" y="140.66666666666666" type="line"/>
      <point x="441.43809523809523" y="132.21904761904761"/>
      <point x="366.64761904761906" y="129.3904761904762"/>
      <point x="324.43809523809523" y="129.3904761904762" type="curve" smooth="yes"/>
      <point x="241.42857142857144" y="129.3904761904762"/>
      <point x="221.8" y="156.28571428571428"/>
      <point x="221.8" y="264.3047619047619" type="curve" smooth="yes"/>
      <point x="221.8" y="371.3142857142857"/>
      <point x="237.94285714285715" y="388.83809523809526"/>
      <point x="306.43809523809523" y="388.1142857142857" type="curve" smooth="yes"/>
      <point x="356.03809523809525" y="388.1142857142857"/>
      <point x="373.5238095238095" y="377.6952380952381"/>
      <point x="373.5238095238095" y="339.34285714285716" type="curve" smooth="yes"/>
      <point x="373.5238095238095" y="307.8285714285714"/>
      <point x="367.0761904761905" y="295.26666666666665"/>
      <point x="324.0095238095238" y="295.26666666666665" type="curve" smooth="yes"/>
      <point x="101.02857142857142" y="295.26666666666665" type="line"/>
      <point x="101.02857142857142" y="200.96190476190475" type="line"/>
      <point x="375.0" y="200.96190476190475" type="line" smooth="yes"/>
      <point x="504.04761904761904" y="200.96190476190475"/>
      <point x="549.5619047619048" y="243.82857142857142"/>
      <point x="548.8380952380952" y="335.44761904761907" type="curve" smooth="yes"/>
      <point x="548.1142857142858" y="450.51428571428573"/>
      <point x="479.6" y="510.6857142857143"/>
    </contour>
  </outline>
</glyph>
<glyph name="f" format="2">
  <advance width="416.7809523809524"/>
  <unicode hex="0066"/>
  <outline>
    <contour>
      <point x="272.1333333333333" y="722.3428571428572" type="curve" smooth="yes"/>
      <point x="142.86666666666667" y="722.3428571428572"/>
      <point x="98.07619047619048" y="657.2095238095238"/>
      <point x="98.07619047619048" y="564.0380952380953" type="curve" smooth="yes"/>
      <point x="98.07619047619048" y="0.0" type="line"/>
      <point x="280.62857142857143" y="0.0" type="line"/>
      <point x="280.62857142857143" y="539.4571428571429" type="line" smooth="yes"/>
      <point x="280.62857142857143" y="581.7714285714286"/>
      <point x="294.1142857142857" y="596.7047619047619"/>
      <point x="336.9142857142857" y="596.7047619047619" type="curve" smooth="yes"/>
      <point x="427.4" y="596.7047619047619" type="line"/>
      <point x="444.3619047619048" y="710.0" type="line"/>
      <point x="397.12380952380954" y="718.8952380952381"/>
      <point x="310.2" y="722.3428571428572"/>
    </contour>
    <contour>
      <point x="407.3619047619048" y="496.96190476190475" type="line"/>
      <point x="99.9047619047619" y="496.96190476190475" type="line"/>
      <point x="12.971428571428572" y="491.96190476190475" type="line"/>
      <point x="12.971428571428572" y="382.83809523809526" type="line"/>
      <point x="407.3619047619048" y="382.83809523809526" type="line"/>
    </contour>
  </outline>
</glyph>
<glyph name="g" format="2">
  <advance width="592.6761904761905"/>
  <unicode hex="0067"/>
  <anchor x="286.752380952381" y="548.6571428571428" name="top"/>
  <outline>
    <contour>
      <point x="283.5809523809524" y="510.6857142857143" type="curve" smooth="yes"/>
      <point x="101.48571428571428" y="510.6857142857143"/>
      <point x="36.457142857142856" y="467.4095238095238"/>
      <point x="36.457142857142856" y="352.4095238095238" type="curve" smooth="yes"/>
      <point x="36.457142857142856" y="238.34285714285716"/>
      <point x="100.76190476190476" y="194.96190476190475"/>
      <point x="282.5809523809524" y="194.96190476190475" type="curve" smooth="yes"/>
      <point x="465.12380952380954" y="194.96190476190475"/>
      <point x="527.9809523809524" y="238.34285714285716"/>
      <point x="527.9809523809524" y="352.6857142857143" type="curve" smooth="yes"/>
      <point x="527.9809523809524" y="467.4095238095238"/>
      <point x="464.4" y="510.6857142857143"/>
    </contour>
    <contour>
      <point x="282.5809523809524" y="405.0761904761905" type="curve" smooth="yes"/>
      <point x="342.35238095238094" y="405.0761904761905"/>
      <point x="359.4952380952381" y="394.3142857142857"/>
      <point x="359.4952380952381" y="352.6857142857143" type="curve" smooth="yes"/>
      <point x="359.4952380952381" y="311.8857142857143"/>
      <point x="342.35238095238094" y="299.57142857142856"/>
      <point x="282.5809523809524" y="299.57142857142856" type="curve" smooth="yes"/>
      <point x="222.8095238095238" y="299.57142857142856"/>
      <point x="204.66666666666666" y="311.8857142857143"/>
      <point x="204.66666666666666" y="352.6857142857143" type="curve" smooth="yes"/>
      <point x="204.66666666666666" y="394.3142857142857"/>
      <point x="222.8095238095238" y="405.0761904761905"/>
    </contour>
    <contour>
      <point x="585.2571428571429" y="496.96190476190475" type="line"/>
      <point x="403.5047619047619" y="496.96190476190475" type="line"/>
      <point x="439.95238095238096" y="404.5238095238095" type="line"/>
      <point x="576.3619047619047" y="425.48571428571427" type="line"/>
    </contour>
    <contour>
      <point x="129.10476190476192" y="223.7904761904762" type="line"/>
      <point x="45.285714285714285" y="198.13333333333333"/>
      <point x="32.39047619047619" y="44.31428571428572"/>
      <point x="169.96190476190475" y="32.03809523809524" type="curve" smooth="yes"/>
      <point x="314.5238095238095" y="19.0" type="line" smooth="yes"/>
      <point x="372.3904761904762" y="13.619047619047619"/>
      <point x="393.9047619047619" y="11.342857142857142"/>
      <point x="393.9047619047619" y="-18.904761904761905" type="curve" smooth="yes"/>
      <point x="393.9047619047619" y="-51.4"/>
      <point x="372.5238095238095" y="-58.05714285714286"/>
      <point x="286.85714285714283" y="-58.05714285714286" type="curve" smooth="yes"/>
      <point x="205.98095238095237" y="-58.05714285714286"/>
      <point x="185.6" y="-51.50476190476191"/>
      <point x="185.6" y="-15.285714285714285" type="curve" smooth="yes"/>
      <point x="185.6" y="17.923809523809524"/>
      <point x="204.25714285714287" y="23.276190476190475"/>
      <point x="258.9047619047619" y="62.96190476190476" type="curve" smooth="yes"/>
      <point x="295.32380952380953" y="86.31428571428572" type="line"/>
      <point x="233.95238095238096" y="109.55238095238096" type="line"/>
      <point x="153.2" y="85.85714285714286" type="line" smooth="yes"/>
      <point x="45.56190476190476" y="55.2"/>
      <point x="14.733333333333334" y="20.79047619047619"/>
      <point x="14.733333333333334" y="-41.20952380952381" type="curve" smooth="yes"/>
      <point x="14.733333333333334" y="-147.24761904761905"/>
      <point x="65.77142857142857" y="-185.6952380952381"/>
      <point x="289.3047619047619" y="-185.6952380952381" type="curve" smooth="yes"/>
      <point x="486.5047619047619" y="-185.6952380952381"/>
      <point x="564.7714285714286" y="-156.65714285714284"/>
      <point x="564.7714285714286" y="-21.285714285714285" type="curve" smooth="yes"/>
      <point x="564.7714285714286" y="73.29523809523809"/>
      <point x="521.5333333333333" y="121.63809523809525"/>
      <point x="412.7809523809524" y="131.2952380952381" type="curve" smooth="yes"/>
      <point x="231.8857142857143" y="147.43809523809523" type="line" smooth="yes"/>
      <point x="185.05714285714285" y="151.54285714285714"/>
      <point x="191.78095238095239" y="199.3047619047619"/>
      <point x="215.6095238095238" y="209.0" type="curve"/>
    </contour>
  </outline>
</glyph>
<glyph name="h" format="2">
  <advance width="611.0571428571428"/>
  <unicode hex="0068"/>
  <anchor x="310.23809523809524" y="-12.0" name="bottom"/>
  <anchor x="302.6857142857143" y="224.8" name="center"/>
  <anchor x="141.64761904761906" y="712.5142857142857" name="top"/>
  <outline>
    <contour>
      <point x="419.1904761904762" y="510.6857142857143" type="curve" smooth="yes"/>
      <point x="346.6380952380952" y="510.6857142857143"/>
      <point x="267.84761904761905" y="476.4095238095238"/>
      <point x="196.2952380952381" y="409.55238095238093" type="curve"/>
      <point x="213.6" y="322.9714285714286" type="line"/>
      <point x="272.3333333333333" y="348.5333333333333"/>
      <point x="305.96190476190475" y="357.43809523809523"/>
      <point x="339.9714285714286" y="357.43809523809523" type="curve" smooth="yes"/>
      <point x="370.3904761904762" y="357.43809523809523"/>
      <point x="381.2190476190476" y="347.2285714285714"/>
      <point x="381.2190476190476" y="314.73333333333335" type="curve" smooth="yes"/>
      <point x="381.2190476190476" y="0.0" type="line"/>
      <point x="563.047619047619" y="0.0" type="line"/>
      <point x="563.047619047619" y="372.06666666666666" type="line" smooth="yes"/>
      <point x="563.047619047619" y="462.96190476190475"/>
      <point x="513.152380952381" y="510.6857142857143"/>
    </contour>
    <contour>
      <point x="232.83809523809524" y="700.0" type="line"/>
      <point x="51.00952380952381" y="700.0" type="line"/>
      <point x="51.00952380952381" y="0.0" type="line"/>
      <point x="232.83809523809524" y="0.0" type="line"/>
      <point x="232.83809523809524" y="384.34285714285716" type="line"/>
      <point x="215.32380952380953" y="397.1714285714286" type="line"/>
      <point x="225.21904761904761" y="429.06666666666666"/>
      <point x="233.83809523809524" y="484.64761904761906"/>
      <point x="233.83809523809524" y="541.0571428571428" type="curve" smooth="yes"/>
    </contour>
  </outline>
</glyph>
<glyph name="i" format="2">
  <advance width="290.84761904761905"/>
  <unicode hex="0069"/>
  <anchor x="145.47619047619048" y="-12.0" name="bottom"/>
  <anchor x="220.6" y="0.0" name="ogonek"/>
  <anchor x="144.75238095238095" y="555.8952380952381" name="top"/>
  <outline>
    <contour>
      <point x="235.83809523809524" y="496.96190476190475" type="line"/>
      <point x="55.00952380952381" y="496.96190476190475" type="line"/>
      <point x="55.00952380952381" y="0.0" type="line"/>
      <point x="235.83809523809524" y="0.0" type="line"/>
    </contour>
    <contour>
      <point x="184.67619047619047" y="720.7142857142857" type="curve" smooth="yes"/>
      <point x="106.17142857142858" y="720.7142857142857" type="line" smooth="yes"/>
      <point x="70.6952380952381" y="720.7142857142857"/>
      <point x="53.457142857142856" y="702.9238095238095"/>
      <point x="53.457142857142856" y="667.2761904761904" type="curve" smooth="yes"/>
      <point x="53.457142857142856" y="615.1714285714286" type="line" smooth="yes"/>
      <point x="53.457142857142856" y="578.9714285714285"/>
      <point x="70.6952380952381" y="561.7333333333333"/>
      <point x="106.17142857142858" y="561.7333333333333" type="curve" smooth="yes"/>
      <point x="184.67619047619047" y="561.7333333333333" type="line" smooth="yes"/>
      <point x="220.15238095238095" y="561.7333333333333"/>
      <point x="237.3904761904762" y="578.9714285714285"/>
      <point x="237.3904761904762" y="615.1714285714286" type="curve" smooth="yes"/>
      <point x="237.3904761904762" y="667.2761904761904" type="line" smooth="yes"/>
      <point x="237.3904761904762" y="702.9238095238095"/>
      <point x="220.15238095238095" y="720.7142857142857"/>
    </contour>
  </outline>
</glyph>
<glyph name="j" format="2">
  <advance width="292.12380952380954"/>
  <unicode hex="006A"/>
  <outline>
    <contour>
      <point x="237.1142857142857" y="496.96190476190475" type="line"/>
      <point x="56.00952380952381" y="496.96190476190475" type="line"/>
      <point x="56.00952380952381" y="42.25714285714285" type="line" smooth="yes"/>
      <point x="56.00952380952381" y="-16.123809523809527"/>
      <point x="39.733333333333334" y="-61.84761904761905"/>
      <point x="-9.399999999999999" y="-113.46666666666667" type="curve"/>
      <point x="91.13333333333333" y="-193.03809523809525" type="line"/>
      <point x="181.9142857142857" y="-151.4857142857143"/>
      <point x="237.1142857142857" y="-55.94285714285714"/>
      <point x="237.1142857142857" y="42.25714285714285" type="curve" smooth="yes"/>
    </contour>
    <contour>
      <point x="183.78095238095239" y="727.952380952381" type="curve" smooth="yes"/>
      <point x="105.27619047619048" y="727.952380952381" type="line"/>
      <point x="69.8" y="727.952380952381"/>
      <point x="52.56190476190476" y="710.1619047619048"/>
      <point x="52.56190476190476" y="674.5142857142857" type="curve" smooth="yes"/>
      <point x="52.56190476190476" y="622.4095238095238" type="line"/>
      <point x="52.56190476190476" y="586.2095238095238"/>
      <point x="69.8" y="568.9714285714285"/>
      <point x="105.27619047619048" y="568.9714285714285" type="curve" smooth="yes"/>
      <point x="183.78095238095239" y="568.9714285714285" type="line"/>
      <point x="219.25714285714287" y="568.9714285714285"/>
      <point x="236.4952380952381" y="586.2095238095238"/>
      <point x="236.4952380952381" y="622.4095238095238" type="curve" smooth="yes"/>
      <point x="236.4952380952381" y="674.5142857142857" type="line"/>
      <point x="236.4952380952381" y="710.1619047619048"/>
      <point x="219.25714285714287" y="727.952380952381"/>
    </contour>
  </outline>
</glyph>
<glyph name="k" format="2">
  <advance width="585.2476190476191"/>
  <unicode hex="006B"/>
  <guideline x="470.2761904761905" y="273.0" angle="90.0"/>
  <anchor x="302.1904761904762" y="0.0" name="bottom"/>
  <outline>
    <contour>
      <point x="570.2761904761904" y="496.96190476190475" type="line"/>
      <point x="369.55238095238093" y="496.96190476190475" type="line"/>
      <point x="230.78095238095239" y="277.8285714285714" type="line"/>
      <point x="387.0" y="0.0" type="line"/>
      <point x="588.447619047619" y="0.0" type="line"/>
      <point x="455.0571428571428" y="211.62857142857143" type="line" smooth="yes"/>
      <point x="441.43809523809523" y="236.59047619047618"/>
      <point x="416.2" y="264.55238095238093"/>
      <point x="402.5809523809524" y="272.2761904761905" type="curve"/>
      <point x="402.5809523809524" y="275.7238095238095" type="line"/>
      <point x="416.2" y="284.1714285714286"/>
      <point x="441.43809523809523" y="305.96190476190475"/>
      <point x="455.0571428571428" y="329.64761904761906" type="curve" smooth="yes"/>
    </contour>
    <contour>
      <point x="232.83809523809524" y="700.0" type="line"/>
      <point x="51.00952380952381" y="700.0" type="line"/>
      <point x="51.00952380952381" y="0.0" type="line"/>
      <point x="232.83809523809524" y="0.0" type="line"/>
      <point x="232.83809523809524" y="148.24761904761905" type="line" smooth="yes"/>
      <point x="232.83809523809524" y="186.14285714285714"/>
      <point x="224.21904761904761" y="236.55238095238096"/>
      <point x="214.6" y="278.44761904761907" type="curve"/>
      <point x="226.94285714285715" y="322.79047619047617"/>
      <point x="233.1142857142857" y="373.54285714285714"/>
      <point x="233.1142857142857" y="422.3333333333333" type="curve" smooth="yes"/>
    </contour>
    <contour>
      <point x="293.9142857142857" y="328.2" type="line"/>
      <point x="178.01904761904763" y="328.2" type="line"/>
      <point x="178.01904761904763" y="221.8" type="line"/>
      <point x="293.9142857142857" y="221.8" type="line"/>
    </contour>
  </outline>
</glyph>
<glyph name="l" format="2">
  <advance width="343.9142857142857"/>
  <unicode hex="006C"/>
  <anchor x="197.40952380952382" y="-12.0" name="bottom"/>
  <anchor x="142.92380952380952" y="736.5904761904762" name="top"/>
  <outline>
    <contour>
      <point x="233.1142857142857" y="700.0" type="line"/>
      <point x="52.00952380952381" y="700.0" type="line"/>
      <point x="52.00952380952381" y="125.17142857142858" type="line" smooth="yes"/>
      <point x="52.00952380952381" y="37.72380952380952"/>
      <point x="111.86666666666667" y="-12.895238095238096"/>
      <point x="209.13333333333333" y="-12.895238095238096" type="curve" smooth="yes"/>
      <point x="244.54285714285714" y="-12.895238095238096"/>
      <point x="315.0857142857143" y="-5.723809523809524"/>
      <point x="342.6" y="10.066666666666666" type="curve"/>
      <point x="322.3619047619048" y="129.98095238095237" type="line"/>
      <point x="285.87619047619046" y="129.98095238095237" type="line" smooth="yes"/>
      <point x="250.21904761904761" y="129.98095238095237"/>
      <point x="232.83809523809524" y="142.74285714285713"/>
      <point x="232.83809523809524" y="172.6095238095238" type="curve" smooth="yes"/>
    </contour>
  </outline>
</glyph>
<glyph name="m" format="2">
  <advance width="881.9619047619047"/>
  <unicode hex="006D"/>
  <anchor x="442.6190476190476" y="-12.0" name="bottom"/>
  <anchor x="444.93333333333334" y="557.2761904761904" name="top"/>
  <outline>
    <contour>
      <point x="693.2666666666667" y="510.6857142857143" type="curve" smooth="yes"/>
      <point x="620.2" y="510.6857142857143"/>
      <point x="564.8857142857142" y="480.6857142857143"/>
      <point x="504.12380952380954" y="417.96190476190475" type="curve"/>
      <point x="514.0190476190476" y="322.9714285714286" type="line"/>
      <point x="565.2380952380952" y="350.4666666666667"/>
      <point x="585.552380952381" y="357.43809523809523"/>
      <point x="611.5619047619048" y="357.43809523809523" type="curve" smooth="yes"/>
      <point x="643.1904761904761" y="357.43809523809523"/>
      <point x="653.1238095238095" y="345.57142857142856"/>
      <point x="653.4" y="314.73333333333335" type="curve" smooth="yes"/>
      <point x="653.4" y="0.0" type="line"/>
      <point x="833.952380952381" y="0.0" type="line"/>
      <point x="833.952380952381" y="372.06666666666666" type="line" smooth="yes"/>
      <point x="833.952380952381" y="462.96190476190475"/>
      <point x="785.7809523809524" y="510.6857142857143"/>
    </contour>
    <contour>
      <point x="194.2952380952381" y="496.96190476190475" type="line"/>
      <point x="51.00952380952381" y="496.96190476190475" type="line"/>
      <point x="51.00952380952381" y="0.0" type="line"/>
      <point x="231.83809523809524" y="0.0" type="line"/>
      <point x="231.83809523809524" y="384.34285714285716" type="line"/>
      <point x="214.32380952380953" y="397.1714285714286" type="line"/>
    </contour>
    <contour>
      <point x="391.84761904761905" y="510.6857142857143" type="curve" smooth="yes"/>
      <point x="317.5047619047619" y="510.6857142857143"/>
      <point x="263.6380952380952" y="480.1333333333333"/>
      <point x="202.42857142857144" y="417.96190476190475" type="curve"/>
      <point x="212.6" y="322.9714285714286" type="line"/>
      <point x="266.54285714285714" y="351.0190476190476"/>
      <point x="286.4095238095238" y="357.43809523809523"/>
      <point x="312.5904761904762" y="357.43809523809523" type="curve" smooth="yes"/>
      <point x="342.3904761904762" y="357.43809523809523"/>
      <point x="355.42857142857144" y="346.67619047619047"/>
      <point x="355.15238095238095" y="314.73333333333335" type="curve" smooth="yes"/>
      <point x="355.15238095238095" y="0.0" type="line"/>
      <point x="530.0857142857143" y="0.0" type="line"/>
      <point x="530.0857142857143" y="372.06666666666666" type="line" smooth="yes"/>
      <point x="529.8095238095239" y="463.23809523809524"/>
      <point x="481.6380952380952" y="510.6857142857143"/>
    </contour>
  </outline>
</glyph>
<glyph name="n" format="2">
  <advance width="611.0571428571428"/>
  <unicode hex="006E"/>
  <anchor x="309.6857142857143" y="-12.0" name="bottom"/>
  <anchor x="310.6190476190476" y="555.6190476190476" name="top"/>
  <outline>
    <contour>
      <point x="419.1904761904762" y="510.6857142857143" type="curve" smooth="yes"/>
      <point x="348.8095238095238" y="510.6857142857143"/>
      <point x="273.6380952380952" y="479.3047619047619"/>
      <point x="204.98095238095237" y="418.23809523809524" type="curve"/>
      <point x="213.6" y="322.9714285714286" type="line"/>
      <point x="272.3333333333333" y="347.9809523809524"/>
      <point x="305.96190476190475" y="357.43809523809523"/>
      <point x="339.9714285714286" y="357.43809523809523" type="curve" smooth="yes"/>
      <point x="370.3904761904762" y="357.43809523809523"/>
      <point x="381.2190476190476" y="347.2285714285714"/>
      <point x="381.2190476190476" y="314.73333333333335" type="curve" smooth="yes"/>
      <point x="381.2190476190476" y="0.0" type="line"/>
      <point x="563.047619047619" y="0.0" type="line"/>
      <point x="563.047619047619" y="372.06666666666666" type="line" smooth="yes"/>
      <point x="563.047619047619" y="462.96190476190475"/>
      <point x="513.152380952381" y="510.6857142857143"/>
    </contour>
    <contour>
      <point x="195.84761904761905" y="496.96190476190475" type="line"/>
      <point x="51.00952380952381" y="496.96190476190475" type="line"/>
      <point x="51.00952380952381" y="0.0" type="line"/>
      <point x="232.83809523809524" y="0.0" type="line"/>
      <point x="232.56190476190477" y="384.34285714285716" type="line"/>
      <point x="216.87619047619046" y="397.1714285714286" type="line"/>
    </contour>
  </outline>
</glyph>
<glyph name="o" format="2">
  <advance width="599.952380952381"/>
  <unicode hex="006F"/>
  <anchor x="300.37142857142857" y="-12.0" name="bottom"/>
  <anchor x="345.0285714285714" y="0.5523809523809524" name="ogonek"/>
  <anchor x="301.0285714285714" y="547.0" name="top"/>
  <outline>
    <contour>
      <point x="300.4761904761905" y="510.6857142857143" type="curve" smooth="yes"/>
      <point x="104.5904761904762" y="510.6857142857143"/>
      <point x="32.352380952380955" y="440.4095238095238"/>
      <point x="32.352380952380955" y="247.61904761904762" type="curve" smooth="yes"/>
      <point x="32.352380952380955" y="57.0"/>
      <point x="104.5904761904762" y="-12.276190476190477"/>
      <point x="300.4761904761905" y="-12.276190476190477" type="curve" smooth="yes"/>
      <point x="495.6380952380952" y="-12.276190476190477"/>
      <point x="567.6" y="57.0"/>
      <point x="567.6" y="247.61904761904762" type="curve" smooth="yes"/>
      <point x="567.6" y="440.4095238095238"/>
      <point x="495.6380952380952" y="510.6857142857143"/>
    </contour>
    <contour>
      <point x="300.4761904761905" y="383.04761904761904" type="curve" smooth="yes"/>
      <point x="361.45714285714286" y="383.04761904761904"/>
      <point x="377.42857142857144" y="358.35238095238094"/>
      <point x="377.42857142857144" y="247.61904761904762" type="curve" smooth="yes"/>
      <point x="377.42857142857144" y="139.33333333333334"/>
      <point x="361.45714285714286" y="115.36190476190475"/>
      <point x="300.4761904761905" y="115.36190476190475" type="curve" smooth="yes"/>
      <point x="238.4952380952381" y="115.36190476190475"/>
      <point x="222.8" y="139.33333333333334"/>
      <point x="222.8" y="247.61904761904762" type="curve" smooth="yes"/>
      <point x="222.8" y="358.35238095238094"/>
      <point x="238.4952380952381" y="383.04761904761904"/>
    </contour>
  </outline>
</glyph>
<glyph name="p" format="2">
  <advance width="610.8857142857142"/>
  <unicode hex="0070"/>
  <outline>
    <contour>
      <point x="400.95238095238096" y="509.23809523809524" type="curve" smooth="yes"/>
      <point x="317.54285714285714" y="509.23809523809524"/>
      <point x="236.78095238095239" y="468.34285714285716"/>
      <point x="204.98095238095237" y="417.6857142857143" type="curve"/>
      <point x="229.56190476190477" y="341.44761904761907" type="line"/>
      <point x="262.43809523809523" y="361.1142857142857"/>
      <point x="286.1714285714286" y="374.25714285714287"/>
      <point x="325.3142857142857" y="374.25714285714287" type="curve" smooth="yes"/>
      <point x="371.04761904761904" y="374.25714285714287"/>
      <point x="389.8095238095238" y="354.9714285714286"/>
      <point x="389.8095238095238" y="242.0" type="curve" smooth="yes"/>
      <point x="389.8095238095238" y="127.54285714285714"/>
      <point x="370.2190476190476" y="111.4"/>
      <point x="319.2761904761905" y="111.4" type="curve" smooth="yes"/>
      <point x="276.06666666666666" y="111.4"/>
      <point x="250.8190476190476" y="123.12380952380953"/>
      <point x="216.0857142857143" y="132.95238095238096" type="curve"/>
      <point x="204.01904761904763" y="55.923809523809524" type="line"/>
      <point x="247.6095238095238" y="5.447619047619048"/>
      <point x="315.67619047619047" y="-13.447619047619048"/>
      <point x="388.0857142857143" y="-13.447619047619048" type="curve" smooth="yes"/>
      <point x="512.0857142857143" y="-13.447619047619048"/>
      <point x="576.8095238095239" y="41.59047619047619"/>
      <point x="576.8095238095239" y="243.17142857142858" type="curve" smooth="yes"/>
      <point x="576.8095238095239" y="411.79047619047617"/>
      <point x="527.3619047619047" y="509.23809523809524"/>
    </contour>
    <contour>
      <point x="197.1904761904762" y="496.96190476190475" type="line"/>
      <point x="51.00952380952381" y="496.96190476190475" type="line"/>
      <point x="51.00952380952381" y="-184.6952380952381" type="line"/>
      <point x="232.56190476190477" y="-184.6952380952381" type="line"/>
      <point x="232.56190476190477" y="-76.3047619047619" type="line" smooth="yes"/>
      <point x="233.56190476190477" y="-31.238095238095237"/>
      <point x="231.1142857142857" y="17.066666666666666"/>
      <point x="227.1142857142857" y="58.96190476190476" type="curve"/>
      <point x="232.56190476190477" y="70.96190476190476" type="line"/>
      <point x="232.56190476190477" y="394.5047619047619" type="line"/>
      <point x="214.7047619047619" y="410.7809523809524" type="line"/>
    </contour>
  </outline>
</glyph>
<glyph name="q" format="2">
  <advance width="605.847619047619"/>
  <unicode hex="0071"/>
  <outline>
    <contour>
      <point x="290.4761904761905" y="510.6857142857143" type="curve" smooth="yes"/>
      <point x="75.73333333333333" y="510.6857142857143"/>
      <point x="33.076190476190476" y="401.65714285714284"/>
      <point x="33.076190476190476" y="245.17142857142858" type="curve" smooth="yes"/>
      <point x="33.076190476190476" y="77.75238095238095"/>
      <point x="84.28571428571428" y="-12.276190476190477"/>
      <point x="215.82857142857142" y="-12.276190476190477" type="curve" smooth="yes"/>
      <point x="298.79047619047617" y="-12.276190476190477"/>
      <point x="371.51428571428573" y="46.60952380952381"/>
      <point x="408.9714285714286" y="94.99047619047619" type="curve"/>
      <point x="394.5238095238095" y="167.43809523809523" type="line"/>
      <point x="359.23809523809524" y="150.42857142857144"/>
      <point x="331.54285714285714" y="134.56190476190477"/>
      <point x="289.74285714285713" y="134.56190476190477" type="curve" smooth="yes"/>
      <point x="233.9047619047619" y="134.56190476190477"/>
      <point x="220.07619047619048" y="159.5047619047619"/>
      <point x="220.07619047619048" y="243.68571428571428" type="curve" smooth="yes"/>
      <point x="220.07619047619048" y="355.9047619047619"/>
      <point x="237.4952380952381" y="380.7714285714286"/>
      <point x="292.81904761904764" y="383.7714285714286" type="curve" smooth="yes"/>
      <point x="324.6857142857143" y="385.4952380952381"/>
      <point x="384.3047619047619" y="378.7714285714286"/>
      <point x="410.76190476190476" y="367.3904761904762" type="curve"/>
      <point x="556.1142857142858" y="470.34285714285716" type="line"/>
      <point x="496.73333333333335" y="498.6857142857143"/>
      <point x="360.7142857142857" y="510.6857142857143"/>
    </contour>
    <contour>
      <point x="374.56190476190477" y="478.96190476190475" type="line"/>
      <point x="374.56190476190477" y="100.75238095238095" type="line"/>
      <point x="392.8" y="88.2" type="line"/>
      <point x="379.18095238095236" y="46.85714285714286"/>
      <point x="373.56190476190477" y="-1.4476190476190476"/>
      <point x="374.2857142857143" y="-48.06666666666666" type="curve" smooth="yes"/>
      <point x="374.56190476190477" y="-184.6952380952381" type="line"/>
      <point x="556.1142857142858" y="-184.6952380952381" type="line"/>
      <point x="556.1142857142858" y="470.34285714285716" type="line"/>
    </contour>
  </outline>
</glyph>
<glyph name="r" format="2">
  <advance width="439.57142857142856"/>
  <unicode hex="0072"/>
  <anchor x="141.47619047619048" y="-12.0" name="bottom"/>
  <anchor x="227.96190476190475" y="555.8952380952381" name="top"/>
  <outline>
    <contour>
      <point x="192.9142857142857" y="496.96190476190475" type="line"/>
      <point x="51.00952380952381" y="496.96190476190475" type="line"/>
      <point x="51.00952380952381" y="0.0" type="line"/>
      <point x="232.83809523809524" y="0.0" type="line"/>
      <point x="232.83809523809524" y="384.34285714285716" type="line"/>
      <point x="215.32380952380953" y="397.1714285714286" type="line"/>
    </contour>
    <contour>
      <point x="433.9809523809524" y="510.6857142857143" type="line"/>
      <point x="406.6380952380952" y="510.6857142857143" type="line"/>
      <point x="340.3619047619048" y="510.6857142857143"/>
      <point x="268.5333333333333" y="479.5809523809524"/>
      <point x="202.15238095238095" y="417.96190476190475" type="curve"/>
      <point x="213.6" y="318.4952380952381" type="line"/>
      <point x="287.5333333333333" y="336.57142857142856"/>
      <point x="330.0190476190476" y="343.81904761904764"/>
      <point x="370.43809523809523" y="343.81904761904764" type="curve" smooth="yes"/>
      <point x="417.6380952380952" y="343.81904761904764" type="line"/>
    </contour>
  </outline>
</glyph>
<glyph name="s" format="2">
  <advance width="541.4"/>
  <unicode hex="0073"/>
  <anchor x="259.1333333333333" y="-14.619047619047619" name="bottom"/>
  <anchor x="275.2" y="548.6571428571428" name="top"/>
  <outline>
    <contour>
      <point x="251.85714285714286" y="510.6857142857143" type="curve" smooth="yes"/>
      <point x="86.07619047619048" y="510.96190476190475"/>
      <point x="30.076190476190476" y="463.4190476190476"/>
      <point x="30.076190476190476" y="367.1714285714286" type="curve" smooth="yes"/>
      <point x="30.076190476190476" y="288.8952380952381"/>
      <point x="53.285714285714285" y="239.03809523809525"/>
      <point x="155.82857142857142" y="209.52380952380952" type="curve" smooth="yes"/>
      <point x="271.9047619047619" y="177.86666666666667" type="line" smooth="yes"/>
      <point x="322.247619047619" y="163.41904761904763"/>
      <point x="339.1142857142857" y="162.59047619047618"/>
      <point x="339.1142857142857" y="142.58095238095237" type="curve" smooth="yes"/>
      <point x="339.1142857142857" y="119.84761904761905"/>
      <point x="321.4190476190476" y="117.36190476190475"/>
      <point x="223.65714285714284" y="117.36190476190475" type="curve" smooth="yes"/>
      <point x="155.14285714285714" y="117.36190476190475"/>
      <point x="79.39047619047619" y="117.63809523809525"/>
      <point x="48.971428571428575" y="118.46666666666667" type="curve"/>
      <point x="37.62857142857143" y="8.342857142857142" type="line"/>
      <point x="141.0" y="-9.276190476190477"/>
      <point x="236.92380952380952" y="-11.0"/>
      <point x="280.2285714285714" y="-11.0" type="curve" smooth="yes"/>
      <point x="447.32380952380953" y="-11.0"/>
      <point x="514.7714285714286" y="22.857142857142858"/>
      <point x="514.7714285714286" y="147.64761904761906" type="curve" smooth="yes"/>
      <point x="514.7714285714286" y="234.37142857142857"/>
      <point x="473.9809523809524" y="271.16190476190474"/>
      <point x="387.4666666666667" y="295.3333333333333" type="curve" smooth="yes"/>
      <point x="267.2190476190476" y="326.54285714285714" type="line" smooth="yes"/>
      <point x="219.77142857142857" y="339.54285714285714"/>
      <point x="205.73333333333335" y="340.0952380952381"/>
      <point x="205.73333333333335" y="359.93333333333334" type="curve" smooth="yes"/>
      <point x="205.73333333333335" y="381.7714285714286"/>
      <point x="218.15238095238095" y="381.32380952380953"/>
      <point x="289.84761904761905" y="381.32380952380953" type="curve" smooth="yes"/>
      <point x="351.12380952380954" y="381.32380952380953"/>
      <point x="418.1904761904762" y="380.7714285714286"/>
      <point x="483.8095238095238" y="380.2190476190476" type="curve"/>
      <point x="495.42857142857144" y="490.06666666666666" type="line"/>
      <point x="433.25714285714287" y="502.23809523809524"/>
      <point x="327.7142857142857" y="510.4095238095238"/>
    </contour>
  </outline>
</glyph>
<glyph name="u" format="2">
  <advance width="603.6761904761905"/>
  <unicode hex="0075"/>
  <anchor x="298.43809523809523" y="-11.723809523809523" name="bottom"/>
  <anchor x="553.495238095238" y="0.0" name="ogonek"/>
  <anchor x="300.752380952381" y="557.0" name="top"/>
  <outline>
    <contour>
      <point x="229.83809523809524" y="496.96190476190475" type="line"/>
      <point x="48.00952380952381" y="496.96190476190475" type="line"/>
      <point x="48.00952380952381" y="124.8952380952381" type="line" smooth="yes"/>
      <point x="48.00952380952381" y="33.72380952380952"/>
      <point x="96.9047619047619" y="-13.723809523809523"/>
      <point x="192.14285714285714" y="-13.723809523809523" type="curve" smooth="yes"/>
      <point x="266.8666666666667" y="-13.723809523809523"/>
      <point x="332.247619047619" y="16.0"/>
      <point x="402.18095238095236" y="77.61904761904762" type="curve"/>
      <point x="389.35238095238094" y="172.05714285714285" type="line"/>
      <point x="336.44761904761907" y="147.87619047619046"/>
      <point x="306.37142857142857" y="139.07619047619048"/>
      <point x="274.2952380952381" y="139.07619047619048" type="curve" smooth="yes"/>
      <point x="241.94285714285715" y="139.07619047619048"/>
      <point x="229.56190476190477" y="150.56190476190477"/>
      <point x="229.83809523809524" y="182.22857142857143" type="curve" smooth="yes"/>
    </contour>
    <contour>
      <point x="552.6666666666666" y="496.96190476190475" type="line"/>
      <point x="370.3904761904762" y="496.96190476190475" type="line"/>
      <point x="370.3904761904762" y="112.34285714285714" type="line"/>
      <point x="387.62857142857143" y="99.79047619047618" type="line"/>
      <point x="409.48571428571427" y="0.0" type="line"/>
      <point x="552.6666666666666" y="0.0" type="line"/>
    </contour>
  </outline>
</glyph>
<glyph name="v" format="2">
  <advance width="583.6"/>
  <unicode hex="0076"/>
  <outline>
    <contour>
      <point x="581.9047619047619" y="496.96190476190475" type="line"/>
      <point x="389.73333333333335" y="496.96190476190475" type="line"/>
      <point x="316.4761904761905" y="205.77142857142857" type="line" smooth="yes"/>
      <point x="310.37142857142857" y="175.87619047619046"/>
      <point x="303.54285714285714" y="144.7047619047619"/>
      <point x="298.16190476190474" y="114.80952380952381" type="curve"/>
      <point x="285.16190476190474" y="114.80952380952381" type="line"/>
      <point x="280.0571428571429" y="144.7047619047619"/>
      <point x="274.67619047619047" y="175.87619047619046"/>
      <point x="267.84761904761905" y="205.77142857142857" type="curve" smooth="yes"/>
      <point x="193.86666666666667" y="496.96190476190475" type="line"/>
      <point x="1.6952380952380963" y="496.96190476190475" type="line"/>
      <point x="156.04761904761904" y="42.647619047619045" type="line" smooth="yes"/>
      <point x="163.94285714285715" y="16.514285714285712"/>
      <point x="185.9047619047619" y="0.0"/>
      <point x="213.76190476190476" y="0.0" type="curve" smooth="yes"/>
      <point x="369.56190476190477" y="0.0" type="line" smooth="yes"/>
      <point x="397.6952380952381" y="0.0"/>
      <point x="419.3809523809524" y="16.514285714285712"/>
      <point x="427.552380952381" y="42.647619047619045" type="curve" smooth="yes"/>
    </contour>
  </outline>
</glyph>
<glyph name="w" format="2">
  <advance width="862.7428571428571"/>
  <unicode hex="0077"/>
  <anchor x="433.0952380952381" y="548.6571428571428" name="top"/>
  <outline>
    <contour>
      <point x="851.152380952381" y="496.96190476190475" type="line"/>
      <point x="669.2190476190476" y="496.96190476190475" type="line"/>
      <point x="619.5809523809523" y="198.0095238095238" type="line" smooth="yes"/>
      <point x="614.7523809523809" y="169.1142857142857"/>
      <point x="612.4761904761905" y="141.4952380952381"/>
      <point x="609.2" y="112.6" type="curve"/>
      <point x="596.9238095238095" y="112.6" type="line"/>
      <point x="594.0952380952381" y="141.4952380952381"/>
      <point x="588.8190476190476" y="169.3904761904762"/>
      <point x="585.2666666666667" y="198.0095238095238" type="curve" smooth="yes"/>
      <point x="548.3238095238095" y="442.6952380952381" type="line" smooth="yes"/>
      <point x="544.3238095238095" y="475.2761904761905"/>
      <point x="518.4666666666667" y="496.96190476190475"/>
      <point x="486.16190476190474" y="496.96190476190475" type="curve" smooth="yes"/>
      <point x="376.1333333333333" y="496.96190476190475" type="line" smooth="yes"/>
      <point x="343.55238095238093" y="496.96190476190475"/>
      <point x="317.9714285714286" y="475.2761904761905"/>
      <point x="313.9714285714286" y="443.6952380952381" type="curve" smooth="yes"/>
      <point x="276.0285714285714" y="198.0095238095238" type="line" smooth="yes"/>
      <point x="272.4761904761905" y="169.3904761904762"/>
      <point x="267.9238095238095" y="141.21904761904761"/>
      <point x="265.0952380952381" y="112.6" type="curve"/>
      <point x="252.8190476190476" y="112.6" type="line"/>
      <point x="250.54285714285714" y="141.21904761904761"/>
      <point x="246.9904761904762" y="169.3904761904762"/>
      <point x="243.16190476190476" y="198.0095238095238" type="curve" smooth="yes"/>
      <point x="192.8" y="496.96190476190475" type="line"/>
      <point x="11.59047619047619" y="496.96190476190475" type="line"/>
      <point x="122.42857142857143" y="46.647619047619045" type="line" smooth="yes"/>
      <point x="128.6" y="18.238095238095237"/>
      <point x="152.56190476190477" y="0.0"/>
      <point x="182.6952380952381" y="0.0" type="curve" smooth="yes"/>
      <point x="313.6095238095238" y="0.0" type="line" smooth="yes"/>
      <point x="346.1904761904762" y="0.0"/>
      <point x="373.32380952380953" y="21.685714285714283"/>
      <point x="377.32380952380953" y="54.266666666666666" type="curve" smooth="yes"/>
      <point x="415.43809523809523" y="305.0190476190476" type="line" smooth="yes"/>
      <point x="418.9904761904762" y="333.9142857142857"/>
      <point x="421.81904761904764" y="361.3619047619048"/>
      <point x="424.64761904761906" y="390.5333333333333" type="curve"/>
      <point x="437.37142857142857" y="390.5333333333333" type="line"/>
      <point x="440.4761904761905" y="361.3619047619048"/>
      <point x="442.0285714285714" y="333.9142857142857"/>
      <point x="445.5809523809524" y="305.0190476190476" type="curve" smooth="yes"/>
      <point x="483.9714285714286" y="54.266666666666666" type="line" smooth="yes"/>
      <point x="487.9714285714286" y="21.685714285714283"/>
      <point x="515.1047619047619" y="0.0"/>
      <point x="547.4095238095238" y="0.0" type="curve" smooth="yes"/>
      <point x="680.3238095238095" y="0.0" type="line" smooth="yes"/>
      <point x="710.4571428571428" y="0.0"/>
      <point x="734.1428571428571" y="18.238095238095237"/>
      <point x="740.5904761904762" y="46.647619047619045" type="curve" smooth="yes"/>
    </contour>
  </outline>
</glyph>
<glyph name="x" format="2">
  <advance width="586.9428571428572"/>
  <unicode hex="0078"/>
  <outline>
    <contour>
      <point x="572.8666666666667" y="496.96190476190475" type="line"/>
      <point x="391.2761904761905" y="496.96190476190475" type="line"/>
      <point x="263.85714285714283" y="254.17142857142858" type="line"/>
      <point x="401.55238095238093" y="0.0" type="line"/>
      <point x="584.1428571428571" y="0.0" type="line"/>
      <point x="436.1047619047619" y="254.17142857142858" type="line"/>
    </contour>
    <contour>
      <point x="195.66666666666666" y="496.96190476190475" type="line"/>
      <point x="14.076190476190476" y="496.96190476190475" type="line"/>
      <point x="150.83809523809524" y="254.17142857142858" type="line"/>
      <point x="2.8000000000000007" y="0.0" type="line"/>
      <point x="185.3904761904762" y="0.0" type="line"/>
      <point x="323.0857142857143" y="254.17142857142858" type="line"/>
    </contour>
    <contour>
      <point x="386.0095238095238" y="310.2" type="line"/>
      <point x="202.65714285714284" y="310.2" type="line"/>
      <point x="202.65714285714284" y="201.86666666666667" type="line"/>
      <point x="386.0095238095238" y="201.86666666666667" type="line"/>
    </contour>
  </outline>
</glyph>
<glyph name="y" format="2">
  <advance width="584.047619047619"/>
  <unicode hex="0079"/>
  <anchor x="504.62857142857143" y="-11.723809523809523" name="bottom"/>
  <anchor x="296.3333333333333" y="555.8952380952381" name="top"/>
  <outline>
    <contour>
      <point x="581.3523809523809" y="496.96190476190475" type="line"/>
      <point x="387.9047619047619" y="496.96190476190475" type="line"/>
      <point x="314.26666666666665" y="201.35238095238094" type="line" smooth="yes"/>
      <point x="306.7142857142857" y="167.56190476190477"/>
      <point x="295.43809523809523" y="112.63809523809525"/>
      <point x="281.54285714285714" y="81.29523809523809" type="curve" smooth="yes"/>
      <point x="247.58095238095237" y="5.9904761904761905" type="line" smooth="yes"/>
      <point x="222.13333333333333" y="-50.285714285714285"/>
      <point x="178.5142857142857" y="-78.87619047619047"/>
      <point x="96.61904761904762" y="-97.53333333333333" type="curve"/>
      <point x="109.51428571428572" y="-198.93333333333334" type="line"/>
      <point x="296.35238095238094" y="-231.33333333333334"/>
      <point x="381.7238095238095" y="-99.31428571428572"/>
      <point x="415.1714285714286" y="4.609523809523807" type="curve" smooth="yes"/>
    </contour>
    <contour>
      <point x="194.86666666666667" y="496.96190476190475" type="line"/>
      <point x="1.6952380952380963" y="496.96190476190475" type="line"/>
      <point x="155.4952380952381" y="42.923809523809524" type="line" smooth="yes"/>
      <point x="163.3904761904762" y="16.514285714285712"/>
      <point x="185.35238095238094" y="0.0"/>
      <point x="213.4857142857143" y="0.0" type="curve" smooth="yes"/>
      <point x="254.7904761904762" y="0.0" type="line"/>
      <point x="311.5047619047619" y="116.46666666666667" type="line"/>
      <point x="283.16190476190474" y="116.46666666666667" type="line"/>
      <point x="279.16190476190474" y="144.7047619047619"/>
      <point x="274.6095238095238" y="173.3904761904762"/>
      <point x="269.0571428571429" y="201.35238095238094" type="curve" smooth="yes"/>
    </contour>
  </outline>
</glyph>
<glyph name="z" format="2">
  <advance width="533.5428571428571"/>
  <unicode hex="007A"/>
  <anchor x="276.64761904761906" y="-11.723809523809523" name="bottom"/>
  <anchor x="275.37142857142857" y="555.8952380952381" name="top"/>
  <outline>
    <contour>
      <point x="284.9238095238095" y="376.2190476190476" type="line"/>
      <point x="33.971428571428575" y="121.74285714285713" type="line"/>
      <point x="243.44761904761904" y="120.74285714285713" type="line"/>
      <point x="494.12380952380954" y="375.2190476190476" type="line"/>
    </contour>
    <contour>
      <point x="499.57142857142856" y="121.74285714285713" type="line"/>
      <point x="33.971428571428575" y="121.74285714285713" type="line"/>
      <point x="33.971428571428575" y="0.0" type="line"/>
      <point x="499.57142857142856" y="0.0" type="line"/>
    </contour>
    <contour>
      <point x="494.12380952380954" y="496.96190476190475" type="line"/>
      <point x="39.41904761904762" y="496.96190476190475" type="line"/>
      <point x="39.41904761904762" y="375.2190476190476" type="line"/>
      <point x="494.12380952380954" y="375.2190476190476" type="line"/>
    </contour>
  </outline>
</glyph>
<glyph name="braceleft" format="2">
  <advance width="350.16190476190474"/>
  <unicode hex="007B"/>
  <outline>
    <contour>
      <point x="317.84761904761905" y="768.0" type="line"/>
      <point x="146.2095238095238" y="793.3047619047619"/>
      <point x="75.56190476190477" y="725.8285714285714"/>
      <point x="75.56190476190477" y="625.0380952380953" type="curve" smooth="yes"/>
      <point x="75.56190476190477" y="452.3047619047619" type="line" smooth="yes"/>
      <point x="75.56190476190477" y="398.0952380952381"/>
      <point x="67.00952380952381" y="398.0952380952381"/>
      <point x="27.523809523809526" y="385.26666666666665" type="curve"/>
      <point x="27.523809523809526" y="270.73333333333335" type="line"/>
      <point x="64.73333333333333" y="255.9047619047619"/>
      <point x="79.56190476190477" y="252.62857142857143"/>
      <point x="79.56190476190477" y="207.6952380952381" type="curve" smooth="yes"/>
      <point x="79.56190476190477" y="-22.038095238095238" type="line" smooth="yes"/>
      <point x="79.56190476190477" y="-122.82857142857142"/>
      <point x="150.2095238095238" y="-190.3047619047619"/>
      <point x="321.84761904761905" y="-165.0" type="curve"/>
      <point x="321.84761904761905" y="-53.84761904761905" type="line"/>
      <point x="268.87619047619046" y="-53.84761904761905"/>
      <point x="252.77142857142857" y="-51.49523809523809"/>
      <point x="252.77142857142857" y="-7.523809523809524" type="curve" smooth="yes"/>
      <point x="252.77142857142857" y="189.07619047619048" type="line" smooth="yes"/>
      <point x="251.77142857142857" y="259.0761904761905"/>
      <point x="228.15238095238095" y="303.55238095238093"/>
      <point x="138.84761904761905" y="328.0" type="curve"/>
      <point x="227.6" y="341.2761904761905"/>
      <point x="250.4952380952381" y="386.4761904761905"/>
      <point x="248.77142857142857" y="470.9238095238095" type="curve" smooth="yes"/>
      <point x="248.77142857142857" y="608.0761904761905" type="line" smooth="yes"/>
      <point x="248.77142857142857" y="652.047619047619"/>
      <point x="264.87619047619046" y="656.847619047619"/>
      <point x="317.84761904761905" y="656.847619047619" type="curve"/>
    </contour>
  </outline>
</glyph>
<glyph name="bar" format="2">
  <advance width="269.0952380952381"/>
  <unicode hex="007C"/>
  <outline>
    <contour>
      <point x="198.01904761904763" y="781.0" type="line"/>
      <point x="71.07619047619048" y="781.0" type="line"/>
      <point x="71.07619047619048" y="-169.0" type="line"/>
      <point x="198.01904761904763" y="-169.0" type="line"/>
    </contour>
  </outline>
</glyph>
<glyph name="braceright" format="2">
  <advance width="350.43809523809523"/>
  <unicode hex="007D"/>
  <outline>
    <contour>
      <point x="32.59047619047619" y="768.0" type="curve"/>
      <point x="32.59047619047619" y="656.847619047619" type="line"/>
      <point x="85.56190476190477" y="656.847619047619"/>
      <point x="101.66666666666667" y="652.047619047619"/>
      <point x="101.66666666666667" y="608.0761904761905" type="curve" smooth="yes"/>
      <point x="101.66666666666667" y="470.9238095238095" type="line" smooth="yes"/>
      <point x="99.94285714285715" y="386.4761904761905"/>
      <point x="122.83809523809524" y="341.2761904761905"/>
      <point x="211.59047619047618" y="328.0" type="curve"/>
      <point x="122.28571428571428" y="303.55238095238093"/>
      <point x="98.66666666666667" y="259.0761904761905"/>
      <point x="97.66666666666667" y="189.07619047619048" type="curve" smooth="yes"/>
      <point x="97.66666666666667" y="-7.523809523809524" type="line" smooth="yes"/>
      <point x="97.66666666666667" y="-51.49523809523809"/>
      <point x="81.56190476190477" y="-53.84761904761905"/>
      <point x="28.59047619047619" y="-53.84761904761905" type="curve"/>
      <point x="28.59047619047619" y="-165.0" type="line"/>
      <point x="200.22857142857143" y="-190.3047619047619"/>
      <point x="270.87619047619046" y="-122.82857142857142"/>
      <point x="270.87619047619046" y="-22.038095238095238" type="curve" smooth="yes"/>
      <point x="270.87619047619046" y="207.6952380952381" type="line" smooth="yes"/>
      <point x="270.87619047619046" y="252.62857142857143"/>
      <point x="285.7047619047619" y="255.9047619047619"/>
      <point x="322.9142857142857" y="270.73333333333335" type="curve"/>
      <point x="322.9142857142857" y="385.26666666666665" type="line"/>
      <point x="283.42857142857144" y="398.0952380952381"/>
      <point x="274.87619047619046" y="398.0952380952381"/>
      <point x="274.87619047619046" y="452.3047619047619" type="curve" smooth="yes"/>
      <point x="274.87619047619046" y="625.0380952380953" type="line" smooth="yes"/>
      <point x="274.87619047619046" y="725.8285714285714"/>
      <point x="204.22857142857143" y="793.3047619047619"/>
    </contour>
  </outline>
</glyph>
<glyph name="asciitilde" format="2">
  <advance width="506.0761904761905"/>
  <unicode hex="007E"/>
  <outline>
    <contour>
      <point x="135.8" y="369.9238095238095" type="curve" smooth="yes"/>
      <point x="80.45714285714286" y="371.2"/>
      <point x="34.219047619047615" y="322.96190476190475"/>
      <point x="52.733333333333334" y="211.41904761904763" type="curve"/>
      <point x="130.61904761904762" y="211.41904761904763" type="line"/>
      <point x="130.61904761904762" y="245.62857142857143"/>
      <point x="130.82857142857142" y="258.0095238095238"/>
      <point x="161.93333333333334" y="253.28571428571428" type="curve" smooth="yes"/>
      <point x="200.1809523809524" y="247.28571428571428"/>
      <point x="316.2" y="208.52380952380952"/>
      <point x="370.55238095238093" y="206.97142857142856" type="curve" smooth="yes"/>
      <point x="430.34285714285716" y="204.6952380952381"/>
      <point x="472.1333333333333" y="256.65714285714284"/>
      <point x="453.6190476190476" y="364.9238095238095" type="curve"/>
      <point x="375.73333333333335" y="364.9238095238095" type="line"/>
      <point x="375.73333333333335" y="330.9904761904762"/>
      <point x="374.5238095238095" y="318.16190476190474"/>
      <point x="343.4190476190476" y="323.6095238095238" type="curve" smooth="yes"/>
      <point x="309.23809523809524" y="328.8857142857143"/>
      <point x="187.4952380952381" y="368.37142857142857"/>
    </contour>
  </outline>
</glyph>
<glyph name="exclamdown" format="2">
  <advance width="299.0190476190476"/>
  <unicode hex="00A1"/>
  <outline>
    <contour>
      <point x="220.6" y="290.51428571428573" type="line"/>
      <point x="78.41904761904762" y="290.51428571428573" type="line"/>
      <point x="59.457142857142856" y="69.21904761904761" type="line"/>
      <point x="59.457142857142856" y="-179.6952380952381" type="line"/>
      <point x="239.56190476190477" y="-179.6952380952381" type="line"/>
      <point x="239.56190476190477" y="69.21904761904761" type="line"/>
    </contour>
    <contour>
      <point x="170.6095238095238" y="513.9238095238095" type="curve" smooth="yes"/>
      <point x="129.40952380952382" y="513.9238095238095" type="line" smooth="yes"/>
      <point x="81.5904761904762" y="513.9238095238095"/>
      <point x="66.52380952380952" y="498.85714285714283"/>
      <point x="66.52380952380952" y="451.03809523809525" type="curve" smooth="yes"/>
      <point x="66.52380952380952" y="406.7238095238095" type="line" smooth="yes"/>
      <point x="66.52380952380952" y="358.9047619047619"/>
      <point x="81.5904761904762" y="344.1142857142857"/>
      <point x="129.40952380952382" y="344.1142857142857" type="curve" smooth="yes"/>
      <point x="170.6095238095238" y="344.1142857142857" type="line" smooth="yes"/>
      <point x="218.42857142857144" y="344.1142857142857"/>
      <point x="233.4952380952381" y="358.9047619047619"/>
      <point x="233.4952380952381" y="406.7238095238095" type="curve" smooth="yes"/>
      <point x="233.4952380952381" y="451.03809523809525" type="line" smooth="yes"/>
      <point x="233.4952380952381" y="498.85714285714283"/>
      <point x="218.42857142857144" y="513.9238095238095"/>
    </contour>
  </outline>
</glyph>
<glyph name="cent" format="2">
  <advance width="532.1619047619048"/>
  <unicode hex="00A2"/>
  <outline>
    <contour>
      <point x="292.6857142857143" y="608.8952380952381" type="curve" smooth="yes"/>
      <point x="101.14285714285714" y="608.8952380952381"/>
      <point x="31.35238095238095" y="539.1714285714286"/>
      <point x="31.35238095238095" y="347.55238095238093" type="curve" smooth="yes"/>
      <point x="31.35238095238095" y="155.65714285714284"/>
      <point x="100.14285714285714" y="86.20952380952382"/>
      <point x="290.96190476190475" y="86.20952380952382" type="curve" smooth="yes"/>
      <point x="363.9904761904762" y="86.20952380952382"/>
      <point x="441.0190476190476" y="96.65714285714286"/>
      <point x="498.25714285714287" y="124.34285714285714" type="curve"/>
      <point x="481.74285714285713" y="231.8095238095238" type="line"/>
      <point x="421.0571428571429" y="224.53333333333333"/>
      <point x="356.6095238095238" y="223.98095238095237"/>
      <point x="323.7142857142857" y="223.98095238095237" type="curve" smooth="yes"/>
      <point x="236.15238095238095" y="223.98095238095237"/>
      <point x="210.73333333333335" y="247.95238095238096"/>
      <point x="210.73333333333335" y="347.55238095238093" type="curve" smooth="yes"/>
      <point x="210.73333333333335" y="446.15238095238095"/>
      <point x="236.15238095238095" y="470.12380952380954"/>
      <point x="323.7142857142857" y="470.12380952380954" type="curve" smooth="yes"/>
      <point x="364.0571428571429" y="470.12380952380954"/>
      <point x="412.8857142857143" y="469.57142857142856"/>
      <point x="472.1904761904762" y="468.1904761904762" type="curve"/>
      <point x="490.9809523809524" y="574.9333333333333" type="line"/>
      <point x="433.0190476190476" y="601.447619047619"/>
      <point x="350.26666666666665" y="608.8952380952381"/>
    </contour>
    <contour>
      <point x="344.1904761904762" y="165.6095238095238" type="line"/>
      <point x="209.35238095238094" y="165.6095238095238" type="line"/>
      <point x="190.28571428571428" y="0.0" type="line"/>
      <point x="325.12380952380954" y="0.0" type="line"/>
    </contour>
    <contour>
      <point x="409.9428571428571" y="690.0" type="line"/>
      <point x="274.3809523809524" y="690.0" type="line"/>
      <point x="252.86666666666667" y="504.6380952380952" type="line"/>
      <point x="387.9809523809524" y="504.6380952380952" type="line"/>
    </contour>
  </outline>
</glyph>
<glyph name="sterling" format="2">
  <advance width="594.7142857142857"/>
  <unicode hex="00A3"/>
  <outline>
    <contour>
      <point x="317.6190476190476" y="702.7238095238096" type="curve" smooth="yes"/>
      <point x="164.73333333333335" y="702.7238095238096"/>
      <point x="93.18095238095238" y="666.3142857142857"/>
      <point x="103.35238095238095" y="511.76190476190476" type="curve" smooth="yes"/>
      <point x="119.8" y="294.6095238095238" type="line" smooth="yes"/>
      <point x="125.52380952380952" y="232.0857142857143"/>
      <point x="113.97142857142858" y="179.56190476190477"/>
      <point x="43.523809523809526" y="147.1142857142857" type="curve"/>
      <point x="43.523809523809526" y="0.0" type="line"/>
      <point x="560.9142857142857" y="0.0" type="line"/>
      <point x="560.9142857142857" y="147.1142857142857" type="line"/>
      <point x="314.65714285714284" y="147.1142857142857" type="line" smooth="yes"/>
      <point x="287.3142857142857" y="147.1142857142857"/>
      <point x="259.9714285714286" y="147.1142857142857"/>
      <point x="233.35238095238094" y="138.4952380952381" type="curve"/>
      <point x="276.2190476190476" y="172.63809523809525"/>
      <point x="313.6952380952381" y="203.05714285714285"/>
      <point x="306.5238095238095" y="294.6095238095238" type="curve" smooth="yes"/>
      <point x="286.9047619047619" y="503.6952380952381" type="line" smooth="yes"/>
      <point x="283.35238095238094" y="543.4"/>
      <point x="301.1142857142857" y="556.7809523809524"/>
      <point x="347.5047619047619" y="556.7809523809524" type="curve" smooth="yes"/>
      <point x="484.8" y="556.7809523809524"/>
      <point x="491.15238095238095" y="556.504761904762"/>
      <point x="530.0190476190476" y="555.952380952381" type="curve"/>
      <point x="538.9142857142857" y="692.7238095238096" type="line"/>
      <point x="451.8857142857143" y="699.7238095238096"/>
      <point x="361.51428571428573" y="702.7238095238096"/>
    </contour>
    <contour>
      <point x="474.0857142857143" y="409.3047619047619" type="line"/>
      <point x="39.971428571428575" y="409.3047619047619" type="line"/>
      <point x="41.695238095238096" y="318.14285714285717" type="line"/>
      <point x="469.6380952380952" y="318.14285714285717" type="line"/>
    </contour>
  </outline>
</glyph>
<glyph name="currency" format="2">
  <advance width="579.4190476190477"/>
  <unicode hex="00A4"/>
  <outline>
    <contour>
      <point x="289.20952380952383" y="456.6" type="curve" smooth="yes"/>
      <point x="343.83809523809526" y="456.6"/>
      <point x="391.0857142857143" y="410.35238095238094"/>
      <point x="391.0857142857143" y="352.7238095238095" type="curve" smooth="yes"/>
      <point x="391.0857142857143" y="295.81904761904764"/>
      <point x="343.83809523809526" y="248.57142857142856"/>
      <point x="289.20952380952383" y="248.84761904761905" type="curve" smooth="yes"/>
      <point x="234.02857142857144" y="248.57142857142856"/>
      <point x="186.78095238095239" y="295.81904761904764"/>
      <point x="186.78095238095239" y="352.7238095238095" type="curve" smooth="yes"/>
      <point x="186.78095238095239" y="410.35238095238094"/>
      <point x="234.02857142857144" y="456.6"/>
    </contour>
    <contour>
      <point x="118.4095238095238" y="598.4761904761905" type="line"/>
      <point x="43.457142857142856" y="524.2476190476191" type="line"/>
      <point x="130.35238095238094" y="437.35238095238094" type="line"/>
      <point x="204.58095238095237" y="511.3047619047619" type="line"/>
    </contour>
    <contour>
      <point x="464.18095238095236" y="598.4761904761905" type="line"/>
      <point x="380.0095238095238" y="514.3047619047619" type="line"/>
      <point x="453.96190476190475" y="440.0761904761905" type="line"/>
      <point x="538.4095238095238" y="524.2476190476191" type="line"/>
    </contour>
    <contour>
      <point x="132.62857142857143" y="278.9904761904762" type="line"/>
      <point x="38.285714285714285" y="185.37142857142857" type="line"/>
      <point x="118.4095238095238" y="105.24761904761905" type="line"/>
      <point x="212.02857142857144" y="198.86666666666667" type="line"/>
    </contour>
    <contour>
      <point x="445.79047619047617" y="269.37142857142857" type="line"/>
      <point x="371.56190476190477" y="195.14285714285714" type="line"/>
      <point x="463.18095238095236" y="104.24761904761905" type="line"/>
      <point x="538.4095238095238" y="178.47619047619048" type="line"/>
    </contour>
    <contour>
      <point x="289.20952380952383" y="557.9619047619047" type="curve" smooth="yes"/>
      <point x="175.59047619047618" y="557.9619047619047"/>
      <point x="82.97142857142858" y="465.34285714285716"/>
      <point x="82.97142857142858" y="351.7238095238095" type="curve" smooth="yes"/>
      <point x="82.97142857142858" y="238.38095238095238"/>
      <point x="175.59047619047618" y="145.76190476190476"/>
      <point x="289.20952380952383" y="145.76190476190476" type="curve" smooth="yes"/>
      <point x="402.55238095238093" y="145.76190476190476"/>
      <point x="495.1714285714286" y="238.38095238095238"/>
      <point x="495.1714285714286" y="351.7238095238095" type="curve" smooth="yes"/>
      <point x="495.1714285714286" y="465.34285714285716"/>
      <point x="402.8285714285714" y="557.9619047619047"/>
    </contour>
  </outline>
</glyph>
<glyph name="yen" format="2">
  <advance width="686.2476190476191"/>
  <unicode hex="00A5"/>
  <outline>
    <contour>
      <point x="664.9333333333334" y="690.0" type="line"/>
      <point x="471.76190476190476" y="690.0" type="line"/>
      <point x="373.3333333333333" y="469.9142857142857" type="line" smooth="yes"/>
      <point x="361.3333333333333" y="442.2952380952381"/>
      <point x="355.95238095238096" y="406.2285714285714"/>
      <point x="349.57142857142856" y="376.6095238095238" type="curve"/>
      <point x="337.95238095238096" y="376.6095238095238" type="line"/>
      <point x="331.84761904761905" y="406.2285714285714"/>
      <point x="327.1904761904762" y="440.57142857142856"/>
      <point x="314.1904761904762" y="469.1904761904762" type="curve" smooth="yes"/>
      <point x="214.48571428571427" y="690.0" type="line"/>
      <point x="21.314285714285717" y="690.0" type="line"/>
      <point x="212.45714285714286" y="303.3142857142857" type="line"/>
      <point x="477.34285714285716" y="309.48571428571427" type="line"/>
    </contour>
    <contour>
      <point x="437.76190476190476" y="177.6952380952381" type="line"/>
      <point x="250.03809523809525" y="177.6952380952381" type="line"/>
      <point x="249.76190476190476" y="0.0" type="line"/>
      <point x="437.48571428571427" y="0.0" type="line"/>
    </contour>
    <contour>
      <point x="591.1142857142858" y="237.17142857142858" type="line"/>
      <point x="96.51428571428572" y="237.17142857142858" type="line"/>
      <point x="98.23809523809524" y="134.62857142857143" type="line"/>
      <point x="591.1142857142858" y="134.62857142857143" type="line"/>
    </contour>
    <contour>
      <point x="591.1142857142858" y="370.26666666666665" type="line"/>
      <point x="96.51428571428572" y="370.26666666666665" type="line"/>
      <point x="98.23809523809524" y="267.44761904761907" type="line"/>
      <point x="591.1142857142858" y="267.44761904761907" type="line"/>
    </contour>
  </outline>
</glyph>
<glyph name="brokenbar" format="2">
  <advance width="271.0952380952381"/>
  <unicode hex="00A6"/>
  <outline>
    <contour>
      <point x="199.01904761904763" y="781.0" type="line"/>
      <point x="72.07619047619048" y="781.0" type="line"/>
      <point x="72.07619047619048" y="381.0" type="line"/>
      <point x="199.01904761904763" y="381.0" type="line"/>
    </contour>
    <contour>
      <point x="199.01904761904763" y="231.0" type="line"/>
      <point x="72.07619047619048" y="231.0" type="line"/>
      <point x="72.07619047619048" y="-169.0" type="line"/>
      <point x="199.01904761904763" y="-169.0" type="line"/>
    </contour>
  </outline>
</glyph>
<glyph name="section" format="2">
  <advance width="559.4761904761905"/>
  <unicode hex="00A7"/>
  <outline>
    <contour>
      <point x="187.46666666666667" y="343.25714285714287" type="curve"/>
      <point x="61.971428571428575" y="343.25714285714287" type="line"/>
      <point x="21.495238095238097" y="224.46666666666667"/>
      <point x="34.49523809523809" y="149.74285714285713"/>
      <point x="152.86666666666667" y="92.4" type="curve" smooth="yes"/>
      <point x="277.8095238095238" y="29.390476190476193" type="line" smooth="yes"/>
      <point x="305.2952380952381" y="16.18095238095238"/>
      <point x="329.67619047619047" y="2.6952380952380963"/>
      <point x="325.2285714285714" y="-24.38095238095238" type="curve" smooth="yes"/>
      <point x="322.0571428571429" y="-50.66666666666667"/>
      <point x="293.9809523809524" y="-54.114285714285714"/>
      <point x="227.4952380952381" y="-54.114285714285714" type="curve" smooth="yes"/>
      <point x="146.98095238095237" y="-53.838095238095235"/>
      <point x="115.73333333333333" y="-54.285714285714285"/>
      <point x="63.59047619047619" y="-51.00952380952381" type="curve"/>
      <point x="51.24761904761905" y="-176.9904761904762" type="line"/>
      <point x="123.52380952380952" y="-185.71428571428572"/>
      <point x="234.96190476190475" y="-188.71428571428572"/>
      <point x="282.55238095238093" y="-188.9904761904762" type="curve" smooth="yes"/>
      <point x="437.2285714285714" y="-188.9904761904762"/>
      <point x="519.847619047619" y="-158.96190476190475"/>
      <point x="519.847619047619" y="-31.276190476190475" type="curve" smooth="yes"/>
      <point x="519.847619047619" y="79.43809523809523"/>
      <point x="459.9238095238095" y="110.37142857142857"/>
      <point x="417.67619047619047" y="133.23809523809524" type="curve" smooth="yes"/>
      <point x="267.15238095238095" y="214.2095238095238" type="line" smooth="yes"/>
      <point x="199.53333333333333" y="250.93333333333334"/>
      <point x="185.8095238095238" y="267.9428571428571"/>
    </contour>
    <contour>
      <point x="277.4761904761905" y="703.7238095238096" type="curve" smooth="yes"/>
      <point x="120.86666666666667" y="703.7238095238096"/>
      <point x="39.904761904761905" y="672.0380952380953"/>
      <point x="39.904761904761905" y="545.5619047619048" type="curve" smooth="yes"/>
      <point x="39.904761904761905" y="435.84761904761905"/>
      <point x="100.27619047619048" y="405.1904761904762"/>
      <point x="142.07619047619048" y="382.32380952380953" type="curve" smooth="yes"/>
      <point x="292.6" y="301.0761904761905" type="line" smooth="yes"/>
      <point x="360.6666666666667" y="263.62857142857143"/>
      <point x="373.9428571428571" y="246.7904761904762"/>
      <point x="372.2857142857143" y="171.75238095238095" type="curve"/>
      <point x="497.7809523809524" y="171.75238095238095" type="line"/>
      <point x="538.5333333333333" y="290.26666666666665"/>
      <point x="525.8095238095239" y="365.26666666666665"/>
      <point x="407.43809523809523" y="422.8857142857143" type="curve" smooth="yes"/>
      <point x="282.4952380952381" y="485.1714285714286" type="line" smooth="yes"/>
      <point x="254.45714285714286" y="498.65714285714284"/>
      <point x="230.35238095238094" y="512.5904761904762"/>
      <point x="234.52380952380952" y="539.6666666666666" type="curve" smooth="yes"/>
      <point x="237.97142857142856" y="566.1238095238095"/>
      <point x="266.7714285714286" y="568.1238095238095"/>
      <point x="332.8095238095238" y="567.847619047619" type="curve" smooth="yes"/>
      <point x="413.4" y="567.847619047619"/>
      <point x="445.2285714285714" y="569.0190476190476"/>
      <point x="496.43809523809523" y="565.7428571428571" type="curve"/>
      <point x="508.5047619047619" y="691.7238095238096" type="line"/>
      <point x="436.7142857142857" y="699.447619047619"/>
      <point x="324.6190476190476" y="703.447619047619"/>
    </contour>
  </outline>
</glyph>
<glyph name="dieresis" format="2">
  <advance width="430.35273333333333"/>
  <unicode hex="00A8"/>
  <anchor x="216.94726666666668" y="552.6789619047619" name="_top"/>
  <outline>
    <contour>
      <point x="338.16190476190474" y="714.4761904761905" type="curve" smooth="yes"/>
      <point x="278.55238095238093" y="714.4761904761905" type="line" smooth="yes"/>
      <point x="254.2095238095238" y="714.4761904761905"/>
      <point x="242.31428571428572" y="702.0285714285715"/>
      <point x="242.31428571428572" y="678.2380952380952" type="curve" smooth="yes"/>
      <point x="242.31428571428572" y="617.7238095238096" type="line" smooth="yes"/>
      <point x="242.31428571428572" y="593.3809523809524"/>
      <point x="254.2095238095238" y="581.4857142857143"/>
      <point x="278.55238095238093" y="581.4857142857143" type="curve" smooth="yes"/>
      <point x="338.16190476190474" y="581.4857142857143" type="line" smooth="yes"/>
      <point x="361.95238095238096" y="581.4857142857143"/>
      <point x="374.4" y="593.3809523809524"/>
      <point x="374.4" y="617.7238095238096" type="curve" smooth="yes"/>
      <point x="374.4" y="678.2380952380952" type="line" smooth="yes"/>
      <point x="374.4" y="702.0285714285715"/>
      <point x="361.95238095238096" y="714.4761904761905"/>
    </contour>
    <contour>
      <point x="152.47619047619048" y="714.4761904761905" type="curve" smooth="yes"/>
      <point x="92.5904761904762" y="714.4761904761905" type="line" smooth="yes"/>
      <point x="68.52380952380952" y="714.4761904761905"/>
      <point x="56.62857142857143" y="702.0285714285715"/>
      <point x="56.62857142857143" y="678.2380952380952" type="curve" smooth="yes"/>
      <point x="56.62857142857143" y="617.7238095238096" type="line" smooth="yes"/>
      <point x="56.62857142857143" y="593.3809523809524"/>
      <point x="68.52380952380952" y="581.4857142857143"/>
      <point x="92.5904761904762" y="581.4857142857143" type="curve" smooth="yes"/>
      <point x="152.47619047619048" y="581.4857142857143" type="line" smooth="yes"/>
      <point x="176.54285714285714" y="581.4857142857143"/>
      <point x="188.43809523809523" y="593.3809523809524"/>
      <point x="188.43809523809523" y="617.7238095238096" type="curve" smooth="yes"/>
      <point x="188.43809523809523" y="678.2380952380952" type="line" smooth="yes"/>
      <point x="188.43809523809523" y="702.0285714285715"/>
      <point x="176.54285714285714" y="714.4761904761905"/>
    </contour>
  </outline>
</glyph>
<glyph name="copyright" format="2">
  <advance width="794.7047619047619"/>
  <unicode hex="00A9"/>
  <outline>
    <contour>
      <point x="397.35238095238094" y="703.7238095238096" type="curve" smooth="yes"/>
      <point x="194.45714285714286" y="703.7238095238096"/>
      <point x="34.457142857142856" y="553.7238095238096"/>
      <point x="34.457142857142856" y="345.0" type="curve" smooth="yes"/>
      <point x="34.457142857142856" y="136.27619047619046"/>
      <point x="194.45714285714286" y="-13.723809523809523"/>
      <point x="397.35238095238094" y="-13.723809523809523" type="curve" smooth="yes"/>
      <point x="601.2476190476191" y="-13.723809523809523"/>
      <point x="760.2476190476191" y="136.27619047619046"/>
      <point x="760.2476190476191" y="345.0" type="curve" smooth="yes"/>
      <point x="760.2476190476191" y="553.7238095238096"/>
      <point x="601.2476190476191" y="703.7238095238096"/>
    </contour>
    <contour>
      <point x="401.62857142857143" y="547.0761904761905" type="curve" smooth="yes"/>
      <point x="259.35238095238094" y="547.0761904761905"/>
      <point x="207.35238095238094" y="494.14285714285717"/>
      <point x="207.35238095238094" y="346.2761904761905" type="curve" smooth="yes"/>
      <point x="207.35238095238094" y="197.40952380952382"/>
      <point x="259.35238095238094" y="144.75238095238095"/>
      <point x="401.62857142857143" y="144.75238095238095" type="curve" smooth="yes"/>
      <point x="467.35238095238094" y="144.75238095238095"/>
      <point x="505.62857142857143" y="150.47619047619048"/>
      <point x="548.8" y="164.37142857142857" type="curve"/>
      <point x="538.9047619047619" y="259.3904761904762" type="line"/>
      <point x="497.18095238095236" y="256.1142857142857"/>
      <point x="461.62857142857143" y="255.83809523809524"/>
      <point x="401.35238095238094" y="255.83809523809524" type="curve" smooth="yes"/>
      <point x="353.9904761904762" y="255.83809523809524"/>
      <point x="345.3619047619048" y="271.74285714285713"/>
      <point x="345.3619047619048" y="346.2761904761905" type="curve" smooth="yes"/>
      <point x="345.3619047619048" y="420.0857142857143"/>
      <point x="353.9904761904762" y="436.7142857142857"/>
      <point x="401.35238095238094" y="436.7142857142857" type="curve" smooth="yes"/>
      <point x="458.35238095238094" y="436.7142857142857"/>
      <point x="486.35238095238094" y="435.7142857142857"/>
      <point x="529.3523809523809" y="435.8857142857143" type="curve"/>
      <point x="539.5238095238095" y="531.6285714285714" type="line"/>
      <point x="497.35238095238094" y="542.3523809523809"/>
      <point x="466.8" y="547.0761904761905"/>
    </contour>
    <contour>
      <point x="397.35238095238094" y="618.3238095238095" type="curve" smooth="yes"/>
      <point x="548.4285714285714" y="618.3238095238095"/>
      <point x="670.6761904761905" y="503.35238095238094"/>
      <point x="670.6761904761905" y="345.0" type="curve" smooth="yes"/>
      <point x="670.6761904761905" y="186.64761904761906"/>
      <point x="548.4285714285714" y="71.67619047619047"/>
      <point x="397.35238095238094" y="71.67619047619047" type="curve" smooth="yes"/>
      <point x="248.0" y="71.67619047619047"/>
      <point x="124.02857142857142" y="186.64761904761906"/>
      <point x="124.02857142857142" y="345.0" type="curve" smooth="yes"/>
      <point x="124.02857142857142" y="503.35238095238094"/>
      <point x="248.0" y="618.3238095238095"/>
    </contour>
  </outline>
</glyph>
<glyph name="ordfeminine" format="2">
  <advance width="434.93333333333334"/>
  <unicode hex="00AA"/>
  <outline>
    <contour>
      <point x="245.4857142857143" y="619.4095238095238" type="curve" smooth="yes"/>
      <point x="191.44761904761904" y="619.4095238095238"/>
      <point x="105.35238095238095" y="611.4095238095238"/>
      <point x="55.904761904761905" y="602.9619047619047" type="curve"/>
      <point x="68.24761904761905" y="517.1809523809524" type="line"/>
      <point x="123.41904761904762" y="520.1809523809524"/>
      <point x="177.24761904761905" y="521.2857142857143"/>
      <point x="214.73333333333335" y="521.2857142857143" type="curve" smooth="yes"/>
      <point x="244.98095238095237" y="521.2857142857143"/>
      <point x="256.0857142857143" y="510.8"/>
      <point x="256.0857142857143" y="486.8666666666667" type="curve" smooth="yes"/>
      <point x="256.0857142857143" y="360.51428571428573" type="line"/>
      <point x="264.7047619047619" y="347.8952380952381" type="line"/>
      <point x="282.2190476190476" y="275.8952380952381" type="line"/>
      <point x="387.4761904761905" y="275.8952380952381" type="line"/>
      <point x="387.4761904761905" y="485.8666666666667" type="line" smooth="yes"/>
      <point x="387.4761904761905" y="587.7904761904762"/>
      <point x="336.96190476190475" y="619.4095238095238"/>
    </contour>
    <contour>
      <point x="336.8285714285714" y="481.23809523809524" type="line"/>
      <point x="145.59047619047618" y="481.23809523809524" type="line" smooth="yes"/>
      <point x="78.8" y="481.23809523809524"/>
      <point x="37.733333333333334" y="448.06666666666666"/>
      <point x="37.733333333333334" y="394.8952380952381" type="curve" smooth="yes"/>
      <point x="37.733333333333334" y="360.79047619047617" type="line" smooth="yes"/>
      <point x="37.733333333333334" y="299.1714285714286"/>
      <point x="88.41904761904762" y="266.7238095238095"/>
      <point x="149.86666666666667" y="266.7238095238095" type="curve" smooth="yes"/>
      <point x="242.44761904761904" y="266.7238095238095"/>
      <point x="283.247619047619" y="338.4761904761905"/>
      <point x="297.45714285714286" y="368.4761904761905" type="curve"/>
      <point x="297.45714285714286" y="413.4761904761905" type="line"/>
      <point x="273.9714285714286" y="387.26666666666665"/>
      <point x="231.44761904761904" y="359.3333333333333"/>
      <point x="196.85714285714286" y="359.3333333333333" type="curve" smooth="yes"/>
      <point x="175.43809523809523" y="359.3333333333333"/>
      <point x="164.95238095238096" y="366.6095238095238"/>
      <point x="164.95238095238096" y="382.4095238095238" type="curve" smooth="yes"/>
      <point x="164.95238095238096" y="391.23809523809524" type="line" smooth="yes"/>
      <point x="164.95238095238096" y="404.2761904761905"/>
      <point x="173.5047619047619" y="412.20952380952383"/>
      <point x="194.75238095238095" y="414.20952380952383" type="curve" smooth="yes"/>
      <point x="335.8285714285714" y="427.20952380952383" type="line"/>
    </contour>
  </outline>
</glyph>
<glyph name="logicalnot" format="2">
  <advance width="575.9714285714285"/>
  <unicode hex="00AC"/>
  <outline>
    <contour>
      <point x="520.7904761904762" y="369.12380952380954" type="line"/>
      <point x="48.733333333333334" y="369.12380952380954" type="line"/>
      <point x="48.733333333333334" y="242.8" type="line"/>
      <point x="520.7904761904762" y="242.8" type="line"/>
    </contour>
    <contour>
      <point x="520.7904761904762" y="359.2285714285714" type="line"/>
      <point x="386.2285714285714" y="351.26666666666665" type="line"/>
      <point x="386.2285714285714" y="135.89523809523808" type="line"/>
      <point x="520.7904761904762" y="136.61904761904762" type="line"/>
    </contour>
  </outline>
</glyph>
<glyph name="registered" format="2">
  <advance width="506.8095238095238"/>
  <unicode hex="00AE"/>
  <outline>
    <contour>
      <point x="253.9047619047619" y="703.447619047619" type="curve" smooth="yes"/>
      <point x="129.9047619047619" y="703.447619047619"/>
      <point x="30.904761904761905" y="604.447619047619"/>
      <point x="30.904761904761905" y="481.44761904761907" type="curve" smooth="yes"/>
      <point x="30.904761904761905" y="357.44761904761907"/>
      <point x="129.9047619047619" y="258.44761904761907"/>
      <point x="253.9047619047619" y="258.44761904761907" type="curve" smooth="yes"/>
      <point x="376.9047619047619" y="258.44761904761907"/>
      <point x="475.9047619047619" y="357.44761904761907"/>
      <point x="475.9047619047619" y="481.44761904761907" type="curve" smooth="yes"/>
      <point x="475.9047619047619" y="604.447619047619"/>
      <point x="376.9047619047619" y="703.447619047619"/>
    </contour>
    <contour>
      <point x="229.40952380952382" y="595.1428571428571" type="line"/>
      <point x="154.62857142857143" y="595.1428571428571" type="line"/>
      <point x="154.62857142857143" y="375.81904761904764" type="line"/>
      <point x="229.40952380952382" y="375.81904761904764" type="line"/>
    </contour>
    <contour>
      <point x="253.9047619047619" y="652.8" type="curve" smooth="yes"/>
      <point x="346.4952380952381" y="652.8"/>
      <point x="423.9809523809524" y="576.0380952380953"/>
      <point x="423.9809523809524" y="481.44761904761907" type="curve" smooth="yes"/>
      <point x="423.9809523809524" y="386.1333333333333"/>
      <point x="346.4952380952381" y="309.37142857142857"/>
      <point x="253.9047619047619" y="309.37142857142857" type="curve" smooth="yes"/>
      <point x="160.31428571428572" y="309.37142857142857"/>
      <point x="82.82857142857142" y="386.1333333333333"/>
      <point x="82.82857142857142" y="481.44761904761907" type="curve" smooth="yes"/>
      <point x="82.82857142857142" y="576.0380952380953"/>
      <point x="160.31428571428572" y="652.8"/>
    </contour>
    <contour>
      <point x="259.0095238095238" y="598.1428571428571" type="curve" smooth="yes"/>
      <point x="208.73333333333335" y="598.1428571428571"/>
      <point x="187.1809523809524" y="598.1428571428571"/>
      <point x="154.62857142857143" y="595.1428571428571" type="curve"/>
      <point x="160.9047619047619" y="543.495238095238" type="line"/>
      <point x="173.1809523809524" y="545.2190476190476"/>
      <point x="209.0095238095238" y="545.2190476190476"/>
      <point x="256.56190476190477" y="545.2190476190476" type="curve" smooth="yes"/>
      <point x="281.1904761904762" y="545.2190476190476"/>
      <point x="287.2285714285714" y="541.8380952380952"/>
      <point x="286.95238095238096" y="524.0380952380953" type="curve" smooth="yes"/>
      <point x="287.2285714285714" y="507.06666666666666"/>
      <point x="281.1904761904762" y="501.6857142857143"/>
      <point x="256.56190476190477" y="501.4095238095238" type="curve" smooth="yes"/>
      <point x="159.9047619047619" y="501.4095238095238" type="line"/>
      <point x="159.62857142857143" y="455.8285714285714" type="line"/>
      <point x="181.97142857142856" y="454.8285714285714"/>
      <point x="199.83809523809524" y="454.8285714285714"/>
      <point x="254.66666666666666" y="454.8285714285714" type="curve" smooth="yes"/>
      <point x="267.87619047619046" y="454.8285714285714"/>
      <point x="273.0857142857143" y="452.44761904761907"/>
      <point x="277.9142857142857" y="440.23809523809524" type="curve" smooth="yes"/>
      <point x="292.7809523809524" y="375.81904761904764" type="line"/>
      <point x="372.0095238095238" y="375.81904761904764" type="line"/>
      <point x="351.9714285714286" y="442.96190476190475" type="line" smooth="yes"/>
      <point x="344.9714285714286" y="471.85714285714283"/>
      <point x="326.8" y="476.79047619047617"/>
      <point x="311.5238095238095" y="478.06666666666666" type="curve"/>
      <point x="311.5238095238095" y="480.06666666666666" type="line"/>
      <point x="351.35238095238094" y="484.34285714285716"/>
      <point x="362.73333333333335" y="506.79047619047617"/>
      <point x="362.73333333333335" y="531.9333333333333" type="curve" smooth="yes"/>
      <point x="362.73333333333335" y="582.8666666666667"/>
      <point x="331.2857142857143" y="598.1428571428571"/>
    </contour>
  </outline>
</glyph>
<glyph name="degree" format="2">
  <advance width="333.56190476190477"/>
  <unicode hex="00B0"/>
  <outline>
    <contour>
      <point x="167.14285714285714" y="703.7238095238096" type="curve" smooth="yes"/>
      <point x="90.52380952380952" y="703.7238095238096"/>
      <point x="27.18095238095238" y="643.552380952381"/>
      <point x="27.18095238095238" y="567.7619047619048" type="curve" smooth="yes"/>
      <point x="27.18095238095238" y="490.9714285714286"/>
      <point x="90.8" y="430.5238095238095"/>
      <point x="167.14285714285714" y="430.5238095238095" type="curve" smooth="yes"/>
      <point x="242.76190476190476" y="430.5238095238095"/>
      <point x="306.3809523809524" y="490.9714285714286"/>
      <point x="306.3809523809524" y="567.7619047619048" type="curve" smooth="yes"/>
      <point x="306.3809523809524" y="643.8285714285714"/>
      <point x="242.4857142857143" y="703.7238095238096"/>
    </contour>
    <contour>
      <point x="167.14285714285714" y="620.9047619047619" type="curve" smooth="yes"/>
      <point x="195.1809523809524" y="620.9047619047619"/>
      <point x="218.3904761904762" y="598.8"/>
      <point x="218.3904761904762" y="567.7619047619048" type="curve" smooth="yes"/>
      <point x="218.3904761904762" y="536.7238095238096"/>
      <point x="194.9047619047619" y="513.3428571428572"/>
      <point x="167.14285714285714" y="513.3428571428572" type="curve" smooth="yes"/>
      <point x="138.38095238095238" y="513.3428571428572"/>
      <point x="115.17142857142858" y="536.7238095238096"/>
      <point x="115.17142857142858" y="567.7619047619048" type="curve" smooth="yes"/>
      <point x="115.17142857142858" y="598.8"/>
      <point x="138.38095238095238" y="620.9047619047619"/>
    </contour>
  </outline>
</glyph>
<glyph name="plusminus" format="2">
  <advance width="565.1809523809524"/>
  <unicode hex="00B1"/>
  <outline>
    <contour>
      <point x="514.2761904761904" y="447.87619047619046" type="line"/>
      <point x="50.904761904761905" y="447.87619047619046" type="line"/>
      <point x="50.904761904761905" y="314.3142857142857" type="line"/>
      <point x="514.2761904761904" y="314.3142857142857" type="line"/>
    </contour>
    <contour>
      <point x="514.2761904761904" y="164.6095238095238" type="line"/>
      <point x="50.904761904761905" y="164.6095238095238" type="line"/>
      <point x="50.904761904761905" y="30.6" type="line"/>
      <point x="514.2761904761904" y="30.6" type="line"/>
    </contour>
    <contour>
      <point x="348.9238095238095" y="561.4" type="line"/>
      <point x="216.25714285714287" y="561.4" type="line"/>
      <point x="216.25714285714287" y="201.5142857142857" type="line"/>
      <point x="349.37142857142857" y="201.5142857142857" type="line"/>
    </contour>
  </outline>
</glyph>
<glyph name="twosuperior" format="2">
  <advance width="431.55238095238093"/>
  <unicode hex="00B2"/>
  <outline>
    <contour>
      <point x="201.82857142857142" y="781.0" type="curve" smooth="yes"/>
      <point x="171.0" y="781.0"/>
      <point x="111.97142857142858" y="779.7238095238096"/>
      <point x="46.523809523809526" y="768.447619047619" type="curve"/>
      <point x="50.523809523809526" y="666.3619047619047" type="line"/>
      <point x="110.6952380952381" y="666.2952380952381"/>
      <point x="142.6952380952381" y="666.5714285714286"/>
      <point x="187.86666666666667" y="666.5714285714286" type="curve" smooth="yes"/>
      <point x="216.94285714285715" y="666.5714285714286"/>
      <point x="232.63809523809525" y="664.7428571428571"/>
      <point x="227.74285714285713" y="649.1142857142858" type="curve" smooth="yes"/>
      <point x="221.4" y="631.5904761904762"/>
      <point x="192.95238095238096" y="601.552380952381"/>
      <point x="148.9142857142857" y="562.6857142857143" type="curve" smooth="yes"/>
      <point x="62.03809523809524" y="486.15238095238095" type="line" smooth="yes"/>
      <point x="46.24761904761905" y="471.0857142857143"/>
      <point x="42.523809523809526" y="452.84761904761905"/>
      <point x="42.523809523809526" y="430.16190476190474" type="curve" smooth="yes"/>
      <point x="42.523809523809526" y="360.0" type="line"/>
      <point x="390.2" y="360.0" type="line"/>
      <point x="390.4761904761905" y="475.25714285714287" type="line"/>
      <point x="271.7047619047619" y="477.7047619047619" type="line" smooth="yes"/>
      <point x="249.87619047619046" y="478.42857142857144"/>
      <point x="233.6" y="476.25714285714287"/>
      <point x="212.4952380952381" y="471.0857142857143" type="curve"/>
      <point x="310.95238095238096" y="556.5809523809523" type="line" smooth="yes"/>
      <point x="355.9904761904762" y="596.2761904761904"/>
      <point x="378.81904761904764" y="637.8285714285714"/>
      <point x="378.81904761904764" y="668.2476190476191" type="curve" smooth="yes"/>
      <point x="378.81904761904764" y="762.1047619047619"/>
      <point x="321.4761904761905" y="781.0"/>
    </contour>
  </outline>
</glyph>
<glyph name="threesuperior" format="2">
  <advance width="411.8285714285714"/>
  <unicode hex="00B3"/>
  <outline>
    <contour>
      <point x="205.34285714285716" y="782.7238095238096" type="curve" smooth="yes"/>
      <point x="154.27619047619046" y="782.7238095238096"/>
      <point x="101.31428571428572" y="778.7238095238096"/>
      <point x="47.8" y="771.0" type="curve"/>
      <point x="51.8" y="675.2571428571429" type="line"/>
      <point x="85.97142857142858" y="675.0857142857143"/>
      <point x="132.86666666666667" y="674.6380952380953"/>
      <point x="180.76190476190476" y="674.6380952380953" type="curve" smooth="yes"/>
      <point x="222.77142857142857" y="674.6380952380953"/>
      <point x="231.36190476190475" y="670.4285714285714"/>
      <point x="231.36190476190475" y="648.3523809523809" type="curve" smooth="yes"/>
      <point x="231.36190476190475" y="628.0380952380953"/>
      <point x="226.8095238095238" y="618.3047619047619"/>
      <point x="184.24761904761905" y="617.5809523809523" type="curve" smooth="yes"/>
      <point x="97.8" y="614.6857142857143" type="line"/>
      <point x="97.8" y="530.2476190476191" type="line"/>
      <point x="184.24761904761905" y="528.0761904761905" type="line" smooth="yes"/>
      <point x="228.53333333333333" y="527.3523809523809"/>
      <point x="235.46666666666667" y="518.0"/>
      <point x="235.46666666666667" y="494.6857142857143" type="curve" smooth="yes"/>
      <point x="235.46666666666667" y="465.95238095238096"/>
      <point x="225.04761904761904" y="460.0857142857143"/>
      <point x="167.9047619047619" y="460.0857142857143" type="curve" smooth="yes"/>
      <point x="128.52380952380952" y="460.0857142857143"/>
      <point x="102.48571428571428" y="459.6380952380952"/>
      <point x="42.352380952380955" y="461.9142857142857" type="curve"/>
      <point x="38.352380952380955" y="363.0" type="line"/>
      <point x="91.41904761904762" y="356.2761904761905"/>
      <point x="149.93333333333334" y="351.2761904761905"/>
      <point x="207.0" y="351.2761904761905" type="curve" smooth="yes"/>
      <point x="333.5809523809524" y="351.2761904761905"/>
      <point x="378.9238095238095" y="385.3809523809524"/>
      <point x="377.64761904761906" y="475.0" type="curve" smooth="yes"/>
      <point x="376.64761904761906" y="540.7904761904762"/>
      <point x="356.64761904761906" y="570.0"/>
      <point x="287.0285714285714" y="579.0" type="curve"/>
      <point x="287.0285714285714" y="581.0" type="line"/>
      <point x="352.37142857142857" y="589.2761904761904"/>
      <point x="365.9238095238095" y="624.2095238095238"/>
      <point x="365.9238095238095" y="686.0" type="curve" smooth="yes"/>
      <point x="365.9238095238095" y="759.7238095238096"/>
      <point x="325.752380952381" y="782.7238095238096"/>
    </contour>
  </outline>
</glyph>
<glyph name="micro" format="2">
  <advance width="620.2571428571429"/>
  <unicode hex="00B5"/>
  <outline>
    <contour>
      <point x="232.56190476190477" y="496.96190476190475" type="line"/>
      <point x="51.00952380952381" y="496.96190476190475" type="line"/>
      <point x="51.00952380952381" y="131.4857142857143" type="line"/>
      <point x="51.00952380952381" y="23.247619047619047"/>
      <point x="130.24761904761905" y="-13.447619047619048"/>
      <point x="224.65714285714284" y="-13.447619047619048" type="curve" smooth="yes"/>
      <point x="294.73333333333335" y="-13.447619047619048"/>
      <point x="345.56190476190477" y="33.48571428571429"/>
      <point x="371.3904761904762" y="84.82857142857142" type="curve"/>
      <point x="368.3904761904762" y="305.7142857142857" type="line"/>
      <point x="367.3904761904762" y="198.71428571428572"/>
      <point x="319.4190476190476" y="141.0095238095238"/>
      <point x="273.3333333333333" y="141.0095238095238" type="curve" smooth="yes"/>
      <point x="247.6" y="141.0095238095238"/>
      <point x="232.56190476190477" y="147.4952380952381"/>
      <point x="232.56190476190477" y="196.4" type="curve" smooth="yes"/>
    </contour>
    <contour>
      <point x="231.56190476190477" y="108.88571428571429" type="line"/>
      <point x="51.00952380952381" y="189.59047619047618" type="line"/>
      <point x="51.00952380952381" y="-184.6952380952381" type="line"/>
      <point x="209.15238095238095" y="-184.6952380952381" type="line"/>
      <point x="231.28571428571428" y="-65.0" type="line"/>
    </contour>
    <contour>
      <point x="549.495238095238" y="496.96190476190475" type="line"/>
      <point x="368.3904761904762" y="496.96190476190475" type="line"/>
      <point x="368.3904761904762" y="100.82857142857142" type="line"/>
      <point x="371.3904761904762" y="84.82857142857142" type="line"/>
      <point x="371.3904761904762" y="79.34285714285714" type="line" smooth="yes"/>
      <point x="371.3904761904762" y="13.447619047619048"/>
      <point x="421.03809523809525" y="-12.447619047619048"/>
      <point x="481.06666666666666" y="-12.447619047619048" type="curve" smooth="yes"/>
      <point x="528.7809523809524" y="-12.447619047619048"/>
      <point x="575.4285714285714" y="-0.6571428571428575"/>
      <point x="611.495238095238" y="12.238095238095237" type="curve"/>
      <point x="604.495238095238" y="104.01904761904763" type="line"/>
      <point x="574.495238095238" y="104.01904761904763" type="line" smooth="yes"/>
      <point x="553.495238095238" y="104.01904761904763"/>
      <point x="549.495238095238" y="117.01904761904763"/>
      <point x="549.495238095238" y="149.01904761904763" type="curve" smooth="yes"/>
    </contour>
  </outline>
</glyph>
<glyph name="paragraph" format="2">
  <advance width="612.9904761904762"/>
  <unicode hex="00B6"/>
  <outline>
    <contour>
      <point x="353.1333333333333" y="702.0" type="curve" smooth="yes"/>
      <point x="116.93333333333334" y="702.0"/>
      <point x="24.142857142857142" y="635.0"/>
      <point x="24.142857142857142" y="450.0" type="curve" smooth="yes"/>
      <point x="24.142857142857142" y="284.0"/>
      <point x="93.5904761904762" y="213.0"/>
      <point x="267.93333333333334" y="200.0" type="curve"/>
      <point x="349.7142857142857" y="594.1904761904761" type="line"/>
      <point x="397.7809523809524" y="594.1904761904761"/>
      <point x="478.12380952380954" y="591.1904761904761"/>
      <point x="529.4666666666667" y="582.1904761904761" type="curve"/>
      <point x="535.4666666666667" y="685.0" type="line"/>
      <point x="479.5047619047619" y="698.0"/>
      <point x="403.37142857142857" y="702.0"/>
    </contour>
    <contour>
      <point x="371.67619047619047" y="685.0" type="line"/>
      <point x="257.93333333333334" y="685.0" type="line"/>
      <point x="257.93333333333334" y="-210.0" type="line"/>
      <point x="371.67619047619047" y="-210.0" type="line"/>
    </contour>
    <contour>
      <point x="535.4666666666667" y="685.0" type="line"/>
      <point x="421.44761904761907" y="685.0" type="line"/>
      <point x="421.44761904761907" y="0.0" type="line"/>
      <point x="535.4666666666667" y="0.0" type="line"/>
    </contour>
  </outline>
</glyph>
